%TF.GenerationSoftware,KiCad,Pcbnew,8.0.5*%
%TF.CreationDate,2025-04-19T21:57:35-04:00*%
%TF.ProjectId,tcg_counter,7463675f-636f-4756-9e74-65722e6b6963,1*%
%TF.SameCoordinates,Original*%
%TF.FileFunction,Copper,L2,Bot*%
%TF.FilePolarity,Positive*%
%FSLAX46Y46*%
G04 Gerber Fmt 4.6, Leading zero omitted, Abs format (unit mm)*
G04 Created by KiCad (PCBNEW 8.0.5) date 2025-04-19 21:57:35*
%MOMM*%
%LPD*%
G01*
G04 APERTURE LIST*
G04 Aperture macros list*
%AMRoundRect*
0 Rectangle with rounded corners*
0 $1 Rounding radius*
0 $2 $3 $4 $5 $6 $7 $8 $9 X,Y pos of 4 corners*
0 Add a 4 corners polygon primitive as box body*
4,1,4,$2,$3,$4,$5,$6,$7,$8,$9,$2,$3,0*
0 Add four circle primitives for the rounded corners*
1,1,$1+$1,$2,$3*
1,1,$1+$1,$4,$5*
1,1,$1+$1,$6,$7*
1,1,$1+$1,$8,$9*
0 Add four rect primitives between the rounded corners*
20,1,$1+$1,$2,$3,$4,$5,0*
20,1,$1+$1,$4,$5,$6,$7,0*
20,1,$1+$1,$6,$7,$8,$9,0*
20,1,$1+$1,$8,$9,$2,$3,0*%
G04 Aperture macros list end*
%TA.AperFunction,EtchedComponent*%
%ADD10C,0.150000*%
%TD*%
%TA.AperFunction,SMDPad,CuDef*%
%ADD11O,0.240000X0.599999*%
%TD*%
%TA.AperFunction,SMDPad,CuDef*%
%ADD12O,0.599999X0.240000*%
%TD*%
%TA.AperFunction,SMDPad,CuDef*%
%ADD13R,2.100001X2.100001*%
%TD*%
%TA.AperFunction,SMDPad,CuDef*%
%ADD14RoundRect,0.140000X0.170000X-0.140000X0.170000X0.140000X-0.170000X0.140000X-0.170000X-0.140000X0*%
%TD*%
%TA.AperFunction,SMDPad,CuDef*%
%ADD15RoundRect,0.135000X-0.185000X0.135000X-0.185000X-0.135000X0.185000X-0.135000X0.185000X0.135000X0*%
%TD*%
%TA.AperFunction,SMDPad,CuDef*%
%ADD16RoundRect,0.147500X-0.172500X0.147500X-0.172500X-0.147500X0.172500X-0.147500X0.172500X0.147500X0*%
%TD*%
%TA.AperFunction,SMDPad,CuDef*%
%ADD17RoundRect,0.140000X0.140000X0.170000X-0.140000X0.170000X-0.140000X-0.170000X0.140000X-0.170000X0*%
%TD*%
%TA.AperFunction,SMDPad,CuDef*%
%ADD18RoundRect,0.140000X-0.170000X0.140000X-0.170000X-0.140000X0.170000X-0.140000X0.170000X0.140000X0*%
%TD*%
%TA.AperFunction,SMDPad,CuDef*%
%ADD19R,0.711200X0.254000*%
%TD*%
%TA.AperFunction,SMDPad,CuDef*%
%ADD20R,0.254000X0.711200*%
%TD*%
%TA.AperFunction,SMDPad,CuDef*%
%ADD21R,2.311400X2.311400*%
%TD*%
%TA.AperFunction,SMDPad,CuDef*%
%ADD22RoundRect,0.140000X-0.140000X-0.170000X0.140000X-0.170000X0.140000X0.170000X-0.140000X0.170000X0*%
%TD*%
%TA.AperFunction,SMDPad,CuDef*%
%ADD23RoundRect,0.135000X0.135000X0.185000X-0.135000X0.185000X-0.135000X-0.185000X0.135000X-0.185000X0*%
%TD*%
%TA.AperFunction,ViaPad*%
%ADD24C,0.600000*%
%TD*%
%TA.AperFunction,Conductor*%
%ADD25C,0.200000*%
%TD*%
G04 APERTURE END LIST*
D10*
%TO.C,R2*%
X127000000Y-109035000D02*
X127000000Y-108435000D01*
%TO.C,R3*%
X128500000Y-108800000D02*
X128500000Y-108200000D01*
%TD*%
D11*
%TO.P,U3,1,ANT1*%
%TO.N,Net-(U3-ANT1)*%
X133850001Y-102100001D03*
%TO.P,U3,2,ANT2*%
%TO.N,Net-(U3-ANT2)*%
X134350000Y-102100001D03*
%TO.P,U3,3,VDDSW*%
%TO.N,VDDSW*%
X134850001Y-102100001D03*
%TO.P,U3,4,VDDB*%
%TO.N,VDDB*%
X135350001Y-102100001D03*
%TO.P,U3,5,CP1*%
%TO.N,Net-(U3-CP1)*%
X135850002Y-102100001D03*
%TO.P,U3,6,CP2*%
%TO.N,Net-(U3-CP2)*%
X136350001Y-102100001D03*
D12*
%TO.P,U3,7,VDD2X*%
%TO.N,Net-(U3-VDD2X)*%
X137000000Y-102750000D03*
%TO.P,U3,8,P1.3_SPI_STE_TA0.2_ACLK_TA0CLK*%
%TO.N,unconnected-(U3-P1.3_SPI_STE_TA0.2_ACLK_TA0CLK-Pad8)*%
X137000000Y-103249999D03*
%TO.P,U3,9,P1.2_SPI_CLK_MCLK_TA0.0*%
%TO.N,unconnected-(U3-P1.2_SPI_CLK_MCLK_TA0.0-Pad9)*%
X137000000Y-103750000D03*
%TO.P,U3,10,RST_NMI*%
%TO.N,Net-(P1-~{RST})*%
X137000000Y-104250000D03*
%TO.P,U3,11,P1.1_SPI_SOMI_SCL_ACLK_TA0.2_CCI0.0*%
%TO.N,/P1.1*%
X137000000Y-104750001D03*
%TO.P,U3,12,P1.0_SPI_SIMO_SDA_SMCLK_TA0.1_CCI0.0*%
%TO.N,/P1.0*%
X137000000Y-105250000D03*
D11*
%TO.P,U3,13,ADC0*%
%TO.N,unconnected-(U3-ADC0-Pad13)*%
X136350001Y-105899999D03*
%TO.P,U3,14,TST2*%
%TO.N,Net-(U3-TST2)*%
X135850002Y-105899999D03*
%TO.P,U3,15,SVSS*%
%TO.N,/SVSS*%
X135350001Y-105899999D03*
%TO.P,U3,16,TST1*%
%TO.N,Net-(U3-TST1)*%
X134850001Y-105899999D03*
%TO.P,U3,17,ADC1_TEMP1*%
%TO.N,unconnected-(U3-ADC1_TEMP1-Pad17)*%
X134350000Y-105899999D03*
%TO.P,U3,18,ADC2_TEMP2*%
%TO.N,unconnected-(U3-ADC2_TEMP2-Pad18)*%
X133850001Y-105899999D03*
D12*
%TO.P,U3,19,TMS_P1.7_TA0.1_TA0.0_CCI0.2*%
%TO.N,TMS*%
X133200002Y-105250000D03*
%TO.P,U3,20,TDO_P1.6_TA0.0_TA0.2_CCI0.2*%
%TO.N,TDO*%
X133200002Y-104750001D03*
%TO.P,U3,21,TDI_P1.5_TA0.2_MCLK_CCI0.1*%
%TO.N,TDI*%
X133200002Y-104250000D03*
%TO.P,U3,22,TCK_P1.4_TA0.1_SMCLK_CCI0.1*%
%TO.N,TCK*%
X133200002Y-103750000D03*
%TO.P,U3,23,VDDH*%
%TO.N,Net-(U3-VDDH)*%
X133200002Y-103249999D03*
%TO.P,U3,24,VDDD*%
%TO.N,Net-(U3-VDDD)*%
X133200002Y-102750000D03*
D13*
%TO.P,U3,25,PAD*%
%TO.N,GND*%
X135100001Y-104000000D03*
%TD*%
D14*
%TO.P,C2,1*%
%TO.N,VDDSW*%
X135750000Y-98230000D03*
%TO.P,C2,2*%
%TO.N,GND*%
X135750000Y-97270000D03*
%TD*%
D15*
%TO.P,R5,1*%
%TO.N,VDDSW*%
X141000000Y-101230000D03*
%TO.P,R5,2*%
%TO.N,/P1.0*%
X141000000Y-102250000D03*
%TD*%
D16*
%TO.P,R2,1*%
%TO.N,GND*%
X127000000Y-108250000D03*
%TO.P,R2,2*%
%TO.N,Net-(U3-TST1)*%
X127000000Y-109220000D03*
%TD*%
D14*
%TO.P,C5,1*%
%TO.N,Net-(U3-VDD2X)*%
X138250000Y-102750000D03*
%TO.P,C5,2*%
%TO.N,GND*%
X138250000Y-101790000D03*
%TD*%
D17*
%TO.P,C9,1*%
%TO.N,GND*%
X128750000Y-106500000D03*
%TO.P,C9,2*%
%TO.N,/SVSS*%
X127790000Y-106500000D03*
%TD*%
D16*
%TO.P,R3,1*%
%TO.N,GND*%
X128500000Y-108015000D03*
%TO.P,R3,2*%
%TO.N,Net-(U3-TST2)*%
X128500000Y-108985000D03*
%TD*%
D15*
%TO.P,R4,1*%
%TO.N,VDDSW*%
X140000000Y-101230000D03*
%TO.P,R4,2*%
%TO.N,/P1.1*%
X140000000Y-102250000D03*
%TD*%
D18*
%TO.P,C7,1*%
%TO.N,Net-(U3-CP1)*%
X138250000Y-99540000D03*
%TO.P,C7,2*%
%TO.N,Net-(U3-CP2)*%
X138250000Y-100500000D03*
%TD*%
D17*
%TO.P,C3,1*%
%TO.N,Net-(U3-VDDD)*%
X130750000Y-102750000D03*
%TO.P,C3,2*%
%TO.N,GND*%
X129790000Y-102750000D03*
%TD*%
D19*
%TO.P,U1,1,P00*%
%TO.N,Net-(U1-P00)*%
X149642301Y-102642300D03*
%TO.P,U1,2,P01*%
%TO.N,Net-(U1-P01)*%
X149642301Y-103142299D03*
%TO.P,U1,3,P02*%
%TO.N,Net-(U1-P02)*%
X149642301Y-103642300D03*
%TO.P,U1,4,P03*%
%TO.N,Net-(U1-P03)*%
X149642301Y-104142300D03*
%TO.P,U1,5,P04*%
%TO.N,Net-(U1-P04)*%
X149642301Y-104642301D03*
%TO.P,U1,6,P05*%
%TO.N,Net-(U1-P05)*%
X149642301Y-105142300D03*
D20*
%TO.P,U1,7,P06*%
%TO.N,Net-(U1-P06)*%
X149000001Y-105784600D03*
%TO.P,U1,8,P07*%
%TO.N,Net-(U1-P07)*%
X148500002Y-105784600D03*
%TO.P,U1,9,GND*%
%TO.N,GND*%
X148000001Y-105784600D03*
%TO.P,U1,10,P10*%
%TO.N,Net-(U1-P10)*%
X147500001Y-105784600D03*
%TO.P,U1,11,P11*%
%TO.N,Net-(U1-P11)*%
X147000000Y-105784600D03*
%TO.P,U1,12,P12*%
%TO.N,Net-(U1-P12)*%
X146500001Y-105784600D03*
D19*
%TO.P,U1,13,P13*%
%TO.N,Net-(U1-P13)*%
X145857701Y-105142300D03*
%TO.P,U1,14,P14*%
%TO.N,Net-(U1-P14)*%
X145857701Y-104642301D03*
%TO.P,U1,15,P15*%
%TO.N,Net-(U1-P15)*%
X145857701Y-104142300D03*
%TO.P,U1,16,P16*%
%TO.N,Net-(U1-P16)*%
X145857701Y-103642300D03*
%TO.P,U1,17,P17*%
%TO.N,Net-(U1-P17)*%
X145857701Y-103142299D03*
%TO.P,U1,18,A0*%
%TO.N,GND*%
X145857701Y-102642300D03*
D20*
%TO.P,U1,19,SCL*%
%TO.N,/P1.1*%
X146500001Y-102000000D03*
%TO.P,U1,20,SDA*%
%TO.N,/P1.0*%
X147000000Y-102000000D03*
%TO.P,U1,21,VCC*%
%TO.N,VDDSW*%
X147500001Y-102000000D03*
%TO.P,U1,22,~{INT}*%
%TO.N,unconnected-(U1-~{INT}-Pad22)*%
X148000001Y-102000000D03*
%TO.P,U1,23,A1*%
%TO.N,GND*%
X148500002Y-102000000D03*
%TO.P,U1,24,~{RESET}*%
%TO.N,unconnected-(U1-~{RESET}-Pad24)*%
X149000001Y-102000000D03*
D21*
%TO.P,U1,25*%
%TO.N,N/C*%
X147750001Y-103892300D03*
%TD*%
D14*
%TO.P,C11,1*%
%TO.N,VDDSW*%
X148250000Y-99750000D03*
%TO.P,C11,2*%
%TO.N,GND*%
X148250000Y-98790000D03*
%TD*%
D22*
%TO.P,C8,1*%
%TO.N,Net-(U3-ANT1)*%
X133520000Y-97250000D03*
%TO.P,C8,2*%
%TO.N,Net-(U3-ANT2)*%
X134480000Y-97250000D03*
%TD*%
D23*
%TO.P,R1,1*%
%TO.N,Net-(U1-P07)*%
X141760000Y-108500000D03*
%TO.P,R1,2*%
%TO.N,Net-(U2-COM)*%
X140740000Y-108500000D03*
%TD*%
D17*
%TO.P,C4,1*%
%TO.N,Net-(U3-VDDH)*%
X130750000Y-103750000D03*
%TO.P,C4,2*%
%TO.N,GND*%
X129790000Y-103750000D03*
%TD*%
D14*
%TO.P,C12,1*%
%TO.N,VDDSW*%
X147250000Y-99750000D03*
%TO.P,C12,2*%
%TO.N,GND*%
X147250000Y-98790000D03*
%TD*%
D22*
%TO.P,C10,1*%
%TO.N,Net-(U3-ANT1)*%
X133520000Y-99500000D03*
%TO.P,C10,2*%
%TO.N,Net-(U3-ANT2)*%
X134480000Y-99500000D03*
%TD*%
D14*
%TO.P,C1,1*%
%TO.N,VDDB*%
X136500000Y-100500000D03*
%TO.P,C1,2*%
%TO.N,GND*%
X136500000Y-99540000D03*
%TD*%
D17*
%TO.P,C6,1*%
%TO.N,Net-(P1-~{RST})*%
X132480000Y-109000000D03*
%TO.P,C6,2*%
%TO.N,GND*%
X131520000Y-109000000D03*
%TD*%
D24*
%TO.N,Net-(U3-ANT1)*%
X133500000Y-94250000D03*
%TO.N,Net-(U3-ANT2)*%
X145000000Y-72500000D03*
%TO.N,GND*%
X147250000Y-97500000D03*
X147750001Y-103892300D03*
X148500000Y-101000000D03*
X144750000Y-102250000D03*
X147750001Y-103892300D03*
X140250000Y-122750000D03*
X148250000Y-97500000D03*
X147750001Y-104500000D03*
X135100001Y-104000000D03*
%TO.N,TMS*%
X132000000Y-127000000D03*
%TO.N,Net-(U2-COM)*%
X134000000Y-110750000D03*
%TO.N,Net-(U1-P05)*%
X137000000Y-111500000D03*
%TO.N,Net-(U1-P06)*%
X139000000Y-109250000D03*
%TO.N,Net-(U1-P04)*%
X140000000Y-111500000D03*
%TO.N,Net-(U1-P16)*%
X143750000Y-105500000D03*
%TO.N,Net-(U1-P10)*%
X147900002Y-107750000D03*
%TO.N,Net-(U1-P03)*%
X141000000Y-111500000D03*
%TO.N,Net-(U1-P11)*%
X147000000Y-107750000D03*
%TO.N,Net-(U1-P13)*%
X144000000Y-107500000D03*
%TO.N,Net-(U1-P14)*%
X143000000Y-107250000D03*
%TO.N,Net-(U1-P01)*%
X135000000Y-112750000D03*
%TO.N,Net-(U1-P15)*%
X144350000Y-104500000D03*
%TO.N,Net-(U1-P02)*%
X142000000Y-111500000D03*
%TO.N,Net-(U1-P00)*%
X136000000Y-112750000D03*
%TO.N,Net-(U1-P12)*%
X145000000Y-107650000D03*
%TO.N,Net-(U1-P17)*%
X138000000Y-107250000D03*
%TD*%
D25*
%TO.N,VDDSW*%
X135750000Y-98230000D02*
X140230000Y-98230000D01*
X140230000Y-98230000D02*
X141750000Y-99750000D01*
X141750000Y-99750000D02*
X147250000Y-99750000D01*
X134850001Y-102100001D02*
X134850001Y-101149999D01*
X134850001Y-101149999D02*
X135750000Y-100250000D01*
X135750000Y-100250000D02*
X135750000Y-98460000D01*
%TO.N,VDDB*%
X135350001Y-102100001D02*
X135350001Y-101649999D01*
X135350001Y-101649999D02*
X136500000Y-100500000D01*
%TO.N,Net-(U3-CP1)*%
X135850002Y-102100001D02*
X135850002Y-101826030D01*
X135850002Y-101826030D02*
X136176032Y-101500000D01*
X136176032Y-101500000D02*
X136934314Y-101500000D01*
X136934314Y-101500000D02*
X137500000Y-100934314D01*
X137500000Y-100934314D02*
X137500000Y-99750000D01*
X137500000Y-99750000D02*
X137710000Y-99540000D01*
X137710000Y-99540000D02*
X138250000Y-99540000D01*
%TO.N,Net-(U3-CP2)*%
X136350001Y-102100001D02*
X136899999Y-102100001D01*
X136899999Y-102100001D02*
X138250000Y-100750000D01*
X138250000Y-100750000D02*
X138250000Y-100500000D01*
%TO.N,Net-(U3-VDDH)*%
X132000001Y-103249999D02*
X131500000Y-103750000D01*
X133200002Y-103249999D02*
X132000001Y-103249999D01*
X131500000Y-103750000D02*
X130750000Y-103750000D01*
%TO.N,Net-(U3-VDDD)*%
X133200002Y-102750000D02*
X130750000Y-102750000D01*
%TO.N,Net-(U3-ANT1)*%
X133520000Y-99500000D02*
X133520000Y-97250000D01*
%TO.N,Net-(U3-ANT2)*%
X134480000Y-99500000D02*
X134480000Y-97250000D01*
%TO.N,Net-(U3-ANT1)*%
X133850001Y-102100001D02*
X133850001Y-99830001D01*
X133850001Y-99830001D02*
X133520000Y-99500000D01*
%TO.N,Net-(U3-ANT2)*%
X134480000Y-99500000D02*
X134350000Y-99630000D01*
X134350000Y-99630000D02*
X134350000Y-102100001D01*
X145000000Y-72500000D02*
X144750000Y-72750000D01*
X144750000Y-82000000D02*
X134480000Y-92270000D01*
X144750000Y-72750000D02*
X144750000Y-82000000D01*
X134480000Y-92270000D02*
X134480000Y-97250000D01*
%TO.N,Net-(U3-ANT1)*%
X133520000Y-94270000D02*
X133500000Y-94250000D01*
X133520000Y-97250000D02*
X133520000Y-94270000D01*
%TO.N,GND*%
X148000001Y-104142300D02*
X147750001Y-103892300D01*
X148000001Y-104500000D02*
X148000001Y-104142300D01*
X148000001Y-105784600D02*
X148000001Y-104500000D01*
%TO.N,VDDSW*%
X147250000Y-100500000D02*
X147250000Y-99750000D01*
X147500001Y-100750001D02*
X147250000Y-100500000D01*
X148250000Y-100000002D02*
X148250000Y-99750000D01*
X147500001Y-102000000D02*
X147500001Y-100750001D01*
X147500001Y-100750001D02*
X148250000Y-100000002D01*
%TO.N,Net-(U1-P07)*%
X148250000Y-108500000D02*
X141760000Y-108500000D01*
X148500002Y-106499998D02*
X148500002Y-108249998D01*
X148500002Y-106499998D02*
X148500000Y-106500000D01*
X148500002Y-108249998D02*
X148250000Y-108500000D01*
X148500002Y-105784600D02*
X148500002Y-106499998D01*
%TO.N,Net-(U2-COM)*%
X134000000Y-110750000D02*
X136250000Y-108500000D01*
X136250000Y-108500000D02*
X140740000Y-108500000D01*
%TO.N,Net-(U1-P05)*%
X149281372Y-109968628D02*
X150900000Y-108350000D01*
X150900000Y-108350000D02*
X150900000Y-105650000D01*
X137000000Y-111500000D02*
X138531372Y-109968628D01*
X150900000Y-105650000D02*
X150392300Y-105142300D01*
X138531372Y-109968628D02*
X149281372Y-109968628D01*
X150392300Y-105142300D02*
X149642301Y-105142300D01*
%TO.N,Net-(U1-P06)*%
X149000001Y-108499999D02*
X149000001Y-105784600D01*
X148250000Y-109250000D02*
X149000001Y-108499999D01*
X139000000Y-109250000D02*
X148250000Y-109250000D01*
%TO.N,Net-(U1-P04)*%
X141131372Y-110368628D02*
X140000000Y-111500000D01*
X149618628Y-110368628D02*
X141131372Y-110368628D01*
X150584602Y-104642301D02*
X151300000Y-105357699D01*
X149642301Y-104642301D02*
X150584602Y-104642301D01*
X151300000Y-108687256D02*
X149618628Y-110368628D01*
X151300000Y-105357699D02*
X151300000Y-108687256D01*
%TO.N,Net-(U1-P16)*%
X144000000Y-103750000D02*
X144250000Y-103750000D01*
X143750000Y-104000000D02*
X144000000Y-103750000D01*
X144250000Y-103750000D02*
X144357700Y-103642300D01*
X143750000Y-105500000D02*
X143750000Y-104000000D01*
X144357700Y-103642300D02*
X145857701Y-103642300D01*
%TO.N,Net-(U1-P10)*%
X147500001Y-107349999D02*
X147500001Y-105784600D01*
X147900002Y-107750000D02*
X147500001Y-107349999D01*
%TO.N,Net-(U1-P03)*%
X149642301Y-104142300D02*
X150892300Y-104142300D01*
X151700000Y-104950000D02*
X151700000Y-108852942D01*
X149650000Y-110900000D02*
X141600000Y-110900000D01*
X150892300Y-104142300D02*
X151700000Y-104950000D01*
X151700000Y-108852942D02*
X149651471Y-110901471D01*
X149651471Y-110901471D02*
X149650000Y-110900000D01*
X141600000Y-110900000D02*
X141000000Y-111500000D01*
%TO.N,Net-(U1-P11)*%
X147000000Y-107750000D02*
X147000000Y-105784600D01*
%TO.N,Net-(U1-P13)*%
X145857701Y-105642299D02*
X145857701Y-105142300D01*
X144000000Y-107500000D02*
X145857701Y-105642299D01*
%TO.N,Net-(U1-P14)*%
X145275100Y-104642301D02*
X145857701Y-104642301D01*
X144350000Y-105900000D02*
X144350000Y-105567401D01*
X144350000Y-105567401D02*
X145275100Y-104642301D01*
X143000000Y-107250000D02*
X144350000Y-105900000D01*
%TO.N,Net-(U1-P01)*%
X152500000Y-104000000D02*
X151642299Y-103142299D01*
X149584314Y-112100000D02*
X152500000Y-109184314D01*
X151642299Y-103142299D02*
X149642301Y-103142299D01*
X152500000Y-109184314D02*
X152500000Y-104000000D01*
X135000000Y-112750000D02*
X135650000Y-112100000D01*
X135650000Y-112100000D02*
X149584314Y-112100000D01*
%TO.N,Net-(U1-P15)*%
X144707700Y-104142300D02*
X145857701Y-104142300D01*
X144350000Y-104500000D02*
X144707700Y-104142300D01*
%TO.N,Net-(U1-P02)*%
X151392300Y-103642300D02*
X149642301Y-103642300D01*
X149618628Y-111500000D02*
X152100000Y-109018628D01*
X142000000Y-111500000D02*
X149618628Y-111500000D01*
X152100000Y-104350000D02*
X151392300Y-103642300D01*
X152100000Y-109018628D02*
X152100000Y-104350000D01*
%TO.N,Net-(U1-P00)*%
X152900000Y-109350000D02*
X149750000Y-112500000D01*
X151707986Y-102642300D02*
X152900000Y-103834314D01*
X149750000Y-112500000D02*
X136250000Y-112500000D01*
X152900000Y-103834314D02*
X152900000Y-109350000D01*
X149642301Y-102642300D02*
X151707986Y-102642300D01*
X136250000Y-112500000D02*
X136000000Y-112750000D01*
%TO.N,Net-(U1-P12)*%
X146500001Y-106749999D02*
X146500001Y-105784600D01*
X145600000Y-107650000D02*
X146500001Y-106749999D01*
X145000000Y-107650000D02*
X145600000Y-107650000D01*
%TO.N,Net-(U1-P17)*%
X138000000Y-107250000D02*
X142107701Y-103142299D01*
X142107701Y-103142299D02*
X145857701Y-103142299D01*
%TD*%
%TA.AperFunction,Conductor*%
%TO.N,GND*%
G36*
X133205148Y-96014352D02*
G01*
X133219500Y-96049000D01*
X133219500Y-96747925D01*
X133205148Y-96782573D01*
X133191211Y-96792333D01*
X133181682Y-96796776D01*
X133096777Y-96881681D01*
X133096776Y-96881683D01*
X133046029Y-96990510D01*
X133046028Y-96990511D01*
X133046028Y-96990512D01*
X133046028Y-96990513D01*
X133039501Y-97040098D01*
X133039500Y-97040102D01*
X133039500Y-97459896D01*
X133039501Y-97459901D01*
X133046027Y-97509487D01*
X133096776Y-97618316D01*
X133096777Y-97618318D01*
X133181682Y-97703223D01*
X133191206Y-97707664D01*
X133216544Y-97735313D01*
X133219500Y-97752074D01*
X133219500Y-98997925D01*
X133205148Y-99032573D01*
X133191211Y-99042333D01*
X133181682Y-99046776D01*
X133096777Y-99131681D01*
X133096776Y-99131683D01*
X133046029Y-99240510D01*
X133046028Y-99240511D01*
X133039500Y-99290099D01*
X133039500Y-99709896D01*
X133039501Y-99709901D01*
X133046027Y-99759487D01*
X133096776Y-99868316D01*
X133096777Y-99868318D01*
X133181681Y-99953222D01*
X133181683Y-99953223D01*
X133181684Y-99953224D01*
X133290513Y-100003972D01*
X133340099Y-100010500D01*
X133500501Y-100010499D01*
X133535149Y-100024851D01*
X133549501Y-100059499D01*
X133549501Y-101796713D01*
X133547831Y-101809395D01*
X133529501Y-101877803D01*
X133529501Y-102322198D01*
X133546810Y-102386797D01*
X133541915Y-102423979D01*
X133512162Y-102446809D01*
X133486798Y-102446809D01*
X133422199Y-102429500D01*
X133422196Y-102429500D01*
X132977808Y-102429500D01*
X132977805Y-102429500D01*
X132909397Y-102447830D01*
X132896715Y-102449500D01*
X131236063Y-102449500D01*
X131201415Y-102435148D01*
X131191654Y-102421208D01*
X131187213Y-102411684D01*
X131173224Y-102381684D01*
X131173223Y-102381683D01*
X131173222Y-102381681D01*
X131088318Y-102296777D01*
X131088316Y-102296776D01*
X130979489Y-102246029D01*
X130979488Y-102246028D01*
X130969569Y-102244722D01*
X130929901Y-102239500D01*
X130929897Y-102239500D01*
X130570103Y-102239500D01*
X130570098Y-102239501D01*
X130520512Y-102246027D01*
X130411683Y-102296776D01*
X130411681Y-102296777D01*
X130326777Y-102381681D01*
X130315898Y-102405012D01*
X130288247Y-102430348D01*
X130250780Y-102428712D01*
X130227080Y-102405011D01*
X130215468Y-102380110D01*
X130215467Y-102380108D01*
X130129891Y-102294532D01*
X130129889Y-102294531D01*
X130020198Y-102243381D01*
X129970208Y-102236800D01*
X129891650Y-102236800D01*
X129891650Y-104263199D01*
X129970206Y-104263199D01*
X129970211Y-104263198D01*
X130020197Y-104256619D01*
X130129889Y-104205468D01*
X130129891Y-104205467D01*
X130215467Y-104119891D01*
X130215469Y-104119888D01*
X130227080Y-104094989D01*
X130254729Y-104069651D01*
X130292196Y-104071287D01*
X130315898Y-104094988D01*
X130326776Y-104118316D01*
X130326777Y-104118318D01*
X130411681Y-104203222D01*
X130411683Y-104203223D01*
X130411684Y-104203224D01*
X130520513Y-104253972D01*
X130570099Y-104260500D01*
X130929900Y-104260499D01*
X130979487Y-104253972D01*
X131088316Y-104203224D01*
X131173224Y-104118316D01*
X131191654Y-104078791D01*
X131219304Y-104053455D01*
X131236063Y-104050500D01*
X131539564Y-104050500D01*
X131566230Y-104043354D01*
X131615989Y-104030021D01*
X131684511Y-103990460D01*
X131740460Y-103934511D01*
X132110120Y-103564851D01*
X132144768Y-103550499D01*
X132680232Y-103550499D01*
X132714880Y-103564851D01*
X132729232Y-103599499D01*
X132722667Y-103624000D01*
X132721343Y-103626292D01*
X132699503Y-103707801D01*
X132699503Y-103792198D01*
X132721343Y-103873708D01*
X132721344Y-103873711D01*
X132763535Y-103946786D01*
X132763537Y-103946788D01*
X132763539Y-103946792D01*
X132763542Y-103946795D01*
X132782099Y-103965352D01*
X132796451Y-104000000D01*
X132782099Y-104034648D01*
X132763542Y-104053204D01*
X132763535Y-104053213D01*
X132721344Y-104126288D01*
X132721343Y-104126291D01*
X132699503Y-104207801D01*
X132699503Y-104292198D01*
X132721343Y-104373708D01*
X132721344Y-104373711D01*
X132763535Y-104446786D01*
X132763537Y-104446788D01*
X132763539Y-104446792D01*
X132763542Y-104446795D01*
X132782099Y-104465352D01*
X132796451Y-104500000D01*
X132782100Y-104534647D01*
X132763541Y-104553206D01*
X132763539Y-104553208D01*
X132763539Y-104553209D01*
X132755585Y-104566986D01*
X132721343Y-104626293D01*
X132699503Y-104707802D01*
X132699503Y-104792199D01*
X132721343Y-104873709D01*
X132721344Y-104873712D01*
X132763535Y-104946787D01*
X132763537Y-104946789D01*
X132763539Y-104946793D01*
X132763542Y-104946796D01*
X132782098Y-104965352D01*
X132796450Y-105000000D01*
X132782099Y-105034647D01*
X132763541Y-105053205D01*
X132721343Y-105126292D01*
X132699503Y-105207801D01*
X132699503Y-105292198D01*
X132721343Y-105373708D01*
X132721344Y-105373711D01*
X132763535Y-105446786D01*
X132763537Y-105446788D01*
X132763539Y-105446792D01*
X132823211Y-105506464D01*
X132823215Y-105506466D01*
X132823216Y-105506467D01*
X132896291Y-105548658D01*
X132896294Y-105548659D01*
X132977804Y-105570499D01*
X132977805Y-105570500D01*
X132977808Y-105570500D01*
X133422198Y-105570500D01*
X133450253Y-105562982D01*
X133486798Y-105553190D01*
X133523980Y-105558084D01*
X133546810Y-105587837D01*
X133546810Y-105613202D01*
X133529501Y-105677801D01*
X133529501Y-106122196D01*
X133551341Y-106203706D01*
X133551342Y-106203709D01*
X133593533Y-106276784D01*
X133593535Y-106276786D01*
X133593537Y-106276790D01*
X133653209Y-106336462D01*
X133653213Y-106336464D01*
X133653214Y-106336465D01*
X133726289Y-106378656D01*
X133726292Y-106378657D01*
X133807802Y-106400497D01*
X133807803Y-106400498D01*
X133807806Y-106400498D01*
X133892199Y-106400498D01*
X133892199Y-106400497D01*
X133973710Y-106378657D01*
X134046793Y-106336462D01*
X134065352Y-106317901D01*
X134099998Y-106303550D01*
X134134645Y-106317899D01*
X134153208Y-106336462D01*
X134153212Y-106336464D01*
X134153213Y-106336465D01*
X134226288Y-106378656D01*
X134226291Y-106378657D01*
X134307801Y-106400497D01*
X134307802Y-106400498D01*
X134307805Y-106400498D01*
X134392198Y-106400498D01*
X134392198Y-106400497D01*
X134473709Y-106378657D01*
X134546792Y-106336462D01*
X134565352Y-106317900D01*
X134599998Y-106303549D01*
X134634645Y-106317898D01*
X134653209Y-106336462D01*
X134653213Y-106336464D01*
X134653214Y-106336465D01*
X134726289Y-106378656D01*
X134726292Y-106378657D01*
X134807802Y-106400497D01*
X134807803Y-106400498D01*
X134807806Y-106400498D01*
X134892199Y-106400498D01*
X134892199Y-106400497D01*
X134973710Y-106378657D01*
X135046793Y-106336462D01*
X135065353Y-106317902D01*
X135100001Y-106303550D01*
X135134649Y-106317902D01*
X135153209Y-106336462D01*
X135153213Y-106336464D01*
X135153214Y-106336465D01*
X135226289Y-106378656D01*
X135226292Y-106378657D01*
X135307802Y-106400497D01*
X135307803Y-106400498D01*
X135307806Y-106400498D01*
X135392199Y-106400498D01*
X135392199Y-106400497D01*
X135473710Y-106378657D01*
X135546793Y-106336462D01*
X135565353Y-106317900D01*
X135599999Y-106303549D01*
X135634646Y-106317898D01*
X135653210Y-106336462D01*
X135653214Y-106336464D01*
X135653215Y-106336465D01*
X135726290Y-106378656D01*
X135726293Y-106378657D01*
X135807803Y-106400497D01*
X135807804Y-106400498D01*
X135807807Y-106400498D01*
X135892200Y-106400498D01*
X135892200Y-106400497D01*
X135973711Y-106378657D01*
X136046794Y-106336462D01*
X136065353Y-106317901D01*
X136099999Y-106303550D01*
X136134646Y-106317899D01*
X136153209Y-106336462D01*
X136153213Y-106336464D01*
X136153214Y-106336465D01*
X136226289Y-106378656D01*
X136226292Y-106378657D01*
X136307802Y-106400497D01*
X136307803Y-106400498D01*
X136307806Y-106400498D01*
X136392199Y-106400498D01*
X136392199Y-106400497D01*
X136473710Y-106378657D01*
X136546793Y-106336462D01*
X136606465Y-106276790D01*
X136648660Y-106203707D01*
X136670500Y-106122196D01*
X136670501Y-106122196D01*
X136670501Y-105677802D01*
X136653191Y-105613202D01*
X136658086Y-105576020D01*
X136687839Y-105553190D01*
X136713202Y-105553190D01*
X136724046Y-105556095D01*
X136777803Y-105570500D01*
X136777806Y-105570500D01*
X137222197Y-105570500D01*
X137222197Y-105570499D01*
X137303708Y-105548659D01*
X137376791Y-105506464D01*
X137436463Y-105446792D01*
X137478658Y-105373709D01*
X137500498Y-105292198D01*
X137500499Y-105292198D01*
X137500499Y-105207802D01*
X137500498Y-105207801D01*
X137478658Y-105126291D01*
X137478657Y-105126288D01*
X137436466Y-105053213D01*
X137436465Y-105053212D01*
X137436463Y-105053208D01*
X137417903Y-105034648D01*
X137403551Y-105000000D01*
X137417902Y-104965353D01*
X137436463Y-104946793D01*
X137478658Y-104873710D01*
X137500498Y-104792199D01*
X137500499Y-104792199D01*
X137500499Y-104707803D01*
X137500498Y-104707802D01*
X137478658Y-104626292D01*
X137478657Y-104626289D01*
X137436466Y-104553214D01*
X137436465Y-104553213D01*
X137436463Y-104553209D01*
X137417902Y-104534648D01*
X137403550Y-104500000D01*
X137417901Y-104465353D01*
X137436463Y-104446792D01*
X137478658Y-104373709D01*
X137500498Y-104292198D01*
X137500499Y-104292198D01*
X137500499Y-104207802D01*
X137500498Y-104207801D01*
X137478658Y-104126291D01*
X137478657Y-104126288D01*
X137436466Y-104053213D01*
X137436465Y-104053212D01*
X137436463Y-104053208D01*
X137417903Y-104034648D01*
X137403551Y-104000000D01*
X137417903Y-103965352D01*
X137426103Y-103957152D01*
X137436463Y-103946792D01*
X137478658Y-103873709D01*
X137500498Y-103792198D01*
X137500499Y-103792198D01*
X137500499Y-103707802D01*
X137500498Y-103707801D01*
X137478658Y-103626291D01*
X137478657Y-103626288D01*
X137436466Y-103553213D01*
X137436465Y-103553212D01*
X137436463Y-103553208D01*
X137417902Y-103534647D01*
X137403550Y-103499999D01*
X137417901Y-103465352D01*
X137436463Y-103446791D01*
X137478658Y-103373708D01*
X137500498Y-103292197D01*
X137500499Y-103292197D01*
X137500499Y-103207801D01*
X137500498Y-103207800D01*
X137478658Y-103126290D01*
X137478657Y-103126287D01*
X137436466Y-103053212D01*
X137436465Y-103053211D01*
X137436463Y-103053207D01*
X137417903Y-103034647D01*
X137403551Y-102999999D01*
X137417902Y-102965352D01*
X137436463Y-102946792D01*
X137478658Y-102873709D01*
X137500498Y-102792198D01*
X137500499Y-102792198D01*
X137500499Y-102707802D01*
X137500498Y-102707801D01*
X137478658Y-102626291D01*
X137478657Y-102626288D01*
X137436466Y-102553213D01*
X137436465Y-102553212D01*
X137436463Y-102553208D01*
X137376791Y-102493536D01*
X137376787Y-102493534D01*
X137376785Y-102493532D01*
X137303710Y-102451341D01*
X137303707Y-102451340D01*
X137222197Y-102429500D01*
X137222194Y-102429500D01*
X137112821Y-102429500D01*
X137078173Y-102415148D01*
X137063821Y-102380500D01*
X137078173Y-102345852D01*
X137082991Y-102341626D01*
X137084502Y-102340465D01*
X137084510Y-102340461D01*
X137140459Y-102284512D01*
X137454759Y-101970211D01*
X137736801Y-101970211D01*
X137743380Y-102020197D01*
X137794531Y-102129889D01*
X137794532Y-102129891D01*
X137880108Y-102215467D01*
X137880110Y-102215468D01*
X137905011Y-102227080D01*
X137930348Y-102254730D01*
X137928712Y-102292197D01*
X137905012Y-102315898D01*
X137881681Y-102326777D01*
X137796777Y-102411681D01*
X137796776Y-102411683D01*
X137746029Y-102520510D01*
X137746028Y-102520511D01*
X137743416Y-102540347D01*
X137739501Y-102570098D01*
X137739500Y-102570102D01*
X137739500Y-102929896D01*
X137739501Y-102929901D01*
X137746027Y-102979487D01*
X137796776Y-103088316D01*
X137796777Y-103088318D01*
X137881681Y-103173222D01*
X137881683Y-103173223D01*
X137881684Y-103173224D01*
X137990513Y-103223972D01*
X138040099Y-103230500D01*
X138459900Y-103230499D01*
X138509487Y-103223972D01*
X138618316Y-103173224D01*
X138703224Y-103088316D01*
X138753972Y-102979487D01*
X138760500Y-102929901D01*
X138760499Y-102570100D01*
X138753972Y-102520513D01*
X138753971Y-102520511D01*
X138711927Y-102430348D01*
X138703224Y-102411684D01*
X138703223Y-102411683D01*
X138703222Y-102411681D01*
X138618318Y-102326777D01*
X138618316Y-102326776D01*
X138594988Y-102315898D01*
X138569651Y-102288248D01*
X138571287Y-102250781D01*
X138594989Y-102227080D01*
X138619888Y-102215469D01*
X138619891Y-102215467D01*
X138705467Y-102129891D01*
X138705468Y-102129889D01*
X138756618Y-102020198D01*
X138763200Y-101970208D01*
X138763200Y-101891650D01*
X137736801Y-101891650D01*
X137736801Y-101970211D01*
X137454759Y-101970211D01*
X137722268Y-101702701D01*
X137756916Y-101688350D01*
X138148350Y-101688350D01*
X138351650Y-101688350D01*
X138763199Y-101688350D01*
X138763199Y-101609793D01*
X138763198Y-101609788D01*
X138756619Y-101559802D01*
X138705468Y-101450110D01*
X138705467Y-101450108D01*
X138659671Y-101404312D01*
X139479499Y-101404312D01*
X139485528Y-101450108D01*
X139485932Y-101453173D01*
X139491742Y-101465633D01*
X139535935Y-101560404D01*
X139535936Y-101560406D01*
X139619593Y-101644063D01*
X139619595Y-101644064D01*
X139619596Y-101644065D01*
X139714565Y-101688350D01*
X139730093Y-101695591D01*
X139755430Y-101723241D01*
X139753794Y-101760708D01*
X139730093Y-101784409D01*
X139619595Y-101835935D01*
X139619593Y-101835936D01*
X139535936Y-101919593D01*
X139535935Y-101919595D01*
X139485933Y-102026824D01*
X139485932Y-102026825D01*
X139479500Y-102075687D01*
X139479500Y-102424312D01*
X139479499Y-102424312D01*
X139483058Y-102451341D01*
X139485932Y-102473173D01*
X139505228Y-102514553D01*
X139535935Y-102580404D01*
X139535936Y-102580406D01*
X139619593Y-102664063D01*
X139619595Y-102664064D01*
X139619596Y-102664065D01*
X139726827Y-102714068D01*
X139775684Y-102720500D01*
X139775687Y-102720500D01*
X140224312Y-102720500D01*
X140224316Y-102720500D01*
X140273173Y-102714068D01*
X140380404Y-102664065D01*
X140418181Y-102626288D01*
X140465352Y-102579118D01*
X140500000Y-102564766D01*
X140534648Y-102579118D01*
X140619593Y-102664063D01*
X140619595Y-102664064D01*
X140619596Y-102664065D01*
X140726827Y-102714068D01*
X140775684Y-102720500D01*
X140775687Y-102720500D01*
X141224312Y-102720500D01*
X141224316Y-102720500D01*
X141273173Y-102714068D01*
X141380404Y-102664065D01*
X141464065Y-102580404D01*
X141503758Y-102495282D01*
X145298901Y-102495282D01*
X145298901Y-102540650D01*
X145756051Y-102540650D01*
X145756051Y-102312100D01*
X145482083Y-102312100D01*
X145422817Y-102323889D01*
X145355601Y-102368800D01*
X145310690Y-102436016D01*
X145298901Y-102495282D01*
X141503758Y-102495282D01*
X141514068Y-102473173D01*
X141520500Y-102424316D01*
X141520500Y-102075684D01*
X141514068Y-102026827D01*
X141464065Y-101919596D01*
X141464064Y-101919595D01*
X141464063Y-101919593D01*
X141380406Y-101835936D01*
X141380404Y-101835935D01*
X141323489Y-101809395D01*
X141273173Y-101785932D01*
X141273171Y-101785931D01*
X141269906Y-101784409D01*
X141244569Y-101756759D01*
X141246205Y-101719292D01*
X141269906Y-101695591D01*
X141273171Y-101694068D01*
X141273173Y-101694068D01*
X141380404Y-101644065D01*
X141464065Y-101560404D01*
X141514068Y-101453173D01*
X141520500Y-101404316D01*
X141520500Y-101055684D01*
X141514068Y-101006827D01*
X141464065Y-100899596D01*
X141464064Y-100899595D01*
X141464063Y-100899593D01*
X141380406Y-100815936D01*
X141380404Y-100815935D01*
X141273175Y-100765933D01*
X141273174Y-100765932D01*
X141263401Y-100764645D01*
X141224316Y-100759500D01*
X140775684Y-100759500D01*
X140743112Y-100763788D01*
X140726825Y-100765932D01*
X140726824Y-100765933D01*
X140619595Y-100815935D01*
X140619593Y-100815936D01*
X140534648Y-100900882D01*
X140500000Y-100915234D01*
X140465352Y-100900882D01*
X140380406Y-100815936D01*
X140380404Y-100815935D01*
X140273175Y-100765933D01*
X140273174Y-100765932D01*
X140263401Y-100764645D01*
X140224316Y-100759500D01*
X139775684Y-100759500D01*
X139743112Y-100763788D01*
X139726825Y-100765932D01*
X139726824Y-100765933D01*
X139619595Y-100815935D01*
X139619593Y-100815936D01*
X139535936Y-100899593D01*
X139535935Y-100899595D01*
X139485933Y-101006824D01*
X139485932Y-101006825D01*
X139479500Y-101055687D01*
X139479500Y-101404312D01*
X139479499Y-101404312D01*
X138659671Y-101404312D01*
X138619891Y-101364532D01*
X138619889Y-101364531D01*
X138510198Y-101313381D01*
X138460208Y-101306800D01*
X138351650Y-101306800D01*
X138351650Y-101688350D01*
X138148350Y-101688350D01*
X138148350Y-101296915D01*
X138162701Y-101262269D01*
X138430371Y-100994598D01*
X138458625Y-100980666D01*
X138459894Y-100980499D01*
X138459900Y-100980499D01*
X138509487Y-100973972D01*
X138618316Y-100923224D01*
X138703224Y-100838316D01*
X138753972Y-100729487D01*
X138760500Y-100679901D01*
X138760499Y-100320100D01*
X138753972Y-100270513D01*
X138732269Y-100223972D01*
X138708605Y-100173224D01*
X138703224Y-100161684D01*
X138703223Y-100161683D01*
X138703222Y-100161681D01*
X138618318Y-100076777D01*
X138618316Y-100076776D01*
X138591795Y-100064409D01*
X138566458Y-100036759D01*
X138568094Y-99999292D01*
X138591795Y-99975591D01*
X138591924Y-99975530D01*
X138618316Y-99963224D01*
X138703224Y-99878316D01*
X138753972Y-99769487D01*
X138760500Y-99719901D01*
X138760499Y-99360100D01*
X138753972Y-99310513D01*
X138753640Y-99309802D01*
X138709652Y-99215469D01*
X138703224Y-99201684D01*
X138703223Y-99201683D01*
X138703222Y-99201681D01*
X138618318Y-99116777D01*
X138618316Y-99116776D01*
X138509489Y-99066029D01*
X138509488Y-99066028D01*
X138499569Y-99064722D01*
X138459901Y-99059500D01*
X138459897Y-99059500D01*
X138040103Y-99059500D01*
X138040098Y-99059501D01*
X137990512Y-99066027D01*
X137881683Y-99116776D01*
X137881681Y-99116777D01*
X137796777Y-99201681D01*
X137796776Y-99201683D01*
X137792335Y-99211208D01*
X137764686Y-99236545D01*
X137747926Y-99239500D01*
X137670436Y-99239500D01*
X137594012Y-99259978D01*
X137594008Y-99259980D01*
X137541840Y-99290099D01*
X137525495Y-99299535D01*
X137525486Y-99299542D01*
X137259541Y-99565488D01*
X137259540Y-99565488D01*
X137219979Y-99634008D01*
X137219979Y-99634010D01*
X137199500Y-99710436D01*
X137199500Y-100789547D01*
X137185148Y-100824195D01*
X136824195Y-101185148D01*
X136789547Y-101199500D01*
X136343767Y-101199500D01*
X136309119Y-101185148D01*
X136294767Y-101150500D01*
X136309119Y-101115852D01*
X136430119Y-100994851D01*
X136464767Y-100980499D01*
X136709896Y-100980499D01*
X136709900Y-100980499D01*
X136759487Y-100973972D01*
X136868316Y-100923224D01*
X136953224Y-100838316D01*
X137003972Y-100729487D01*
X137010500Y-100679901D01*
X137010499Y-100320100D01*
X137003972Y-100270513D01*
X136982269Y-100223972D01*
X136958605Y-100173224D01*
X136953224Y-100161684D01*
X136953223Y-100161683D01*
X136953222Y-100161681D01*
X136868318Y-100076777D01*
X136868316Y-100076776D01*
X136844988Y-100065898D01*
X136819651Y-100038248D01*
X136821287Y-100000781D01*
X136844989Y-99977080D01*
X136869888Y-99965469D01*
X136869891Y-99965467D01*
X136955467Y-99879891D01*
X136955468Y-99879889D01*
X137006618Y-99770198D01*
X137013200Y-99720208D01*
X137013200Y-99641650D01*
X136447350Y-99641650D01*
X136412702Y-99627298D01*
X136398350Y-99592650D01*
X136398350Y-99438350D01*
X136601650Y-99438350D01*
X137013199Y-99438350D01*
X137013199Y-99359793D01*
X137013198Y-99359788D01*
X137006619Y-99309802D01*
X136955468Y-99200110D01*
X136955467Y-99200108D01*
X136869891Y-99114532D01*
X136869889Y-99114531D01*
X136760198Y-99063381D01*
X136710208Y-99056800D01*
X136601650Y-99056800D01*
X136601650Y-99438350D01*
X136398350Y-99438350D01*
X136398350Y-99056800D01*
X136289793Y-99056800D01*
X136289788Y-99056801D01*
X136239802Y-99063380D01*
X136130107Y-99114532D01*
X136127598Y-99116289D01*
X136090983Y-99124400D01*
X136059357Y-99104244D01*
X136050500Y-99076146D01*
X136050500Y-98716063D01*
X136064852Y-98681415D01*
X136078790Y-98671654D01*
X136118316Y-98653224D01*
X136203224Y-98568316D01*
X136207665Y-98558791D01*
X136235314Y-98533455D01*
X136252074Y-98530500D01*
X140085233Y-98530500D01*
X140119881Y-98544852D01*
X141565489Y-99990460D01*
X141600199Y-100010500D01*
X141625055Y-100024851D01*
X141634012Y-100030022D01*
X141694286Y-100046172D01*
X141710434Y-100050499D01*
X141710435Y-100050500D01*
X141710438Y-100050500D01*
X146747926Y-100050500D01*
X146782574Y-100064852D01*
X146792335Y-100078792D01*
X146796776Y-100088316D01*
X146796777Y-100088318D01*
X146881681Y-100173222D01*
X146881683Y-100173223D01*
X146881684Y-100173224D01*
X146921208Y-100191654D01*
X146946545Y-100219304D01*
X146949500Y-100236063D01*
X146949500Y-100539563D01*
X146969978Y-100615987D01*
X146969979Y-100615991D01*
X146992094Y-100654293D01*
X146992095Y-100654294D01*
X147009537Y-100684507D01*
X147009542Y-100684513D01*
X147185149Y-100860120D01*
X147199501Y-100894768D01*
X147199501Y-101395032D01*
X147185149Y-101429680D01*
X147150501Y-101444032D01*
X147147803Y-101443900D01*
X147146748Y-101443900D01*
X146853252Y-101443900D01*
X146818162Y-101450879D01*
X146794767Y-101455533D01*
X146777221Y-101467257D01*
X146740439Y-101474572D01*
X146722778Y-101467257D01*
X146720349Y-101465634D01*
X146705232Y-101455533D01*
X146646749Y-101443900D01*
X146353253Y-101443900D01*
X146300501Y-101454393D01*
X146294770Y-101455533D01*
X146228448Y-101499847D01*
X146198435Y-101544766D01*
X146184134Y-101566169D01*
X146172501Y-101624652D01*
X146172501Y-101624655D01*
X146172501Y-102263100D01*
X146158149Y-102297748D01*
X146123501Y-102312100D01*
X145959351Y-102312100D01*
X145959351Y-102694950D01*
X145944999Y-102729598D01*
X145910351Y-102743950D01*
X145298901Y-102743950D01*
X145298901Y-102791721D01*
X145297644Y-102791721D01*
X145287880Y-102823890D01*
X145254802Y-102841564D01*
X145250007Y-102841799D01*
X142068137Y-102841799D01*
X141991711Y-102862278D01*
X141991709Y-102862278D01*
X141956236Y-102882760D01*
X141923189Y-102901839D01*
X138089880Y-106735148D01*
X138055232Y-106749500D01*
X137928034Y-106749500D01*
X137789949Y-106790046D01*
X137668871Y-106867857D01*
X137574625Y-106976623D01*
X137574624Y-106976625D01*
X137514833Y-107107545D01*
X137494353Y-107249997D01*
X137494353Y-107250002D01*
X137514833Y-107392454D01*
X137531736Y-107429465D01*
X137574623Y-107523373D01*
X137574624Y-107523374D01*
X137574625Y-107523376D01*
X137647556Y-107607543D01*
X137668872Y-107632143D01*
X137789947Y-107709953D01*
X137866785Y-107732514D01*
X137928034Y-107750499D01*
X137928037Y-107750499D01*
X137928039Y-107750500D01*
X137928040Y-107750500D01*
X138071960Y-107750500D01*
X138071961Y-107750500D01*
X138071963Y-107750499D01*
X138071965Y-107750499D01*
X138094795Y-107743795D01*
X138210053Y-107709953D01*
X138331128Y-107632143D01*
X138425377Y-107523373D01*
X138485165Y-107392457D01*
X138485165Y-107392455D01*
X138485166Y-107392454D01*
X138505647Y-107250001D01*
X138505647Y-107250000D01*
X138502286Y-107226627D01*
X138498995Y-107203741D01*
X138508269Y-107167406D01*
X138512841Y-107162128D01*
X142217820Y-103457151D01*
X142252468Y-103442799D01*
X143763934Y-103442799D01*
X143798582Y-103457151D01*
X143812934Y-103491799D01*
X143798582Y-103526447D01*
X143509541Y-103815488D01*
X143509540Y-103815488D01*
X143469979Y-103884008D01*
X143469979Y-103884010D01*
X143449500Y-103960436D01*
X143449500Y-105071417D01*
X143435148Y-105106065D01*
X143426994Y-105112637D01*
X143418872Y-105117857D01*
X143418868Y-105117860D01*
X143324625Y-105226623D01*
X143324624Y-105226625D01*
X143264833Y-105357545D01*
X143244353Y-105499997D01*
X143244353Y-105500002D01*
X143264833Y-105642454D01*
X143280978Y-105677805D01*
X143324623Y-105773373D01*
X143324624Y-105773374D01*
X143324625Y-105773376D01*
X143409013Y-105870765D01*
X143418872Y-105882143D01*
X143539947Y-105959953D01*
X143616785Y-105982514D01*
X143678034Y-106000499D01*
X143678037Y-106000499D01*
X143678039Y-106000500D01*
X143678040Y-106000500D01*
X143706232Y-106000500D01*
X143740880Y-106014852D01*
X143755232Y-106049500D01*
X143740880Y-106084148D01*
X143089880Y-106735148D01*
X143055232Y-106749500D01*
X142928034Y-106749500D01*
X142789949Y-106790046D01*
X142668871Y-106867857D01*
X142574625Y-106976623D01*
X142574624Y-106976625D01*
X142514833Y-107107545D01*
X142494353Y-107249997D01*
X142494353Y-107250002D01*
X142514833Y-107392454D01*
X142531736Y-107429465D01*
X142574623Y-107523373D01*
X142574624Y-107523374D01*
X142574625Y-107523376D01*
X142647556Y-107607543D01*
X142668872Y-107632143D01*
X142789947Y-107709953D01*
X142866785Y-107732514D01*
X142928034Y-107750499D01*
X142928037Y-107750499D01*
X142928039Y-107750500D01*
X142928040Y-107750500D01*
X143071960Y-107750500D01*
X143071961Y-107750500D01*
X143071963Y-107750499D01*
X143071965Y-107750499D01*
X143094795Y-107743795D01*
X143210053Y-107709953D01*
X143331128Y-107632143D01*
X143417155Y-107532862D01*
X143450691Y-107516075D01*
X143486275Y-107527918D01*
X143502688Y-107557977D01*
X143514833Y-107642454D01*
X143523256Y-107660897D01*
X143574623Y-107773373D01*
X143574624Y-107773374D01*
X143574625Y-107773376D01*
X143609079Y-107813138D01*
X143668872Y-107882143D01*
X143789947Y-107959953D01*
X143856519Y-107979500D01*
X143928034Y-108000499D01*
X143928037Y-108000499D01*
X143928039Y-108000500D01*
X143928040Y-108000500D01*
X144071960Y-108000500D01*
X144071961Y-108000500D01*
X144071963Y-108000499D01*
X144071965Y-108000499D01*
X144121572Y-107985933D01*
X144210053Y-107959953D01*
X144331128Y-107882143D01*
X144408841Y-107792457D01*
X144427672Y-107770725D01*
X144428443Y-107771393D01*
X144455999Y-107752246D01*
X144492908Y-107758891D01*
X144514308Y-107789689D01*
X144514766Y-107792224D01*
X144514833Y-107792454D01*
X144546935Y-107862746D01*
X144574623Y-107923373D01*
X144574624Y-107923374D01*
X144574625Y-107923376D01*
X144641453Y-108000500D01*
X144668872Y-108032143D01*
X144788899Y-108109279D01*
X144810287Y-108140084D01*
X144803629Y-108176991D01*
X144772823Y-108198380D01*
X144762407Y-108199500D01*
X142242541Y-108199500D01*
X142207893Y-108185148D01*
X142198132Y-108171208D01*
X142194166Y-108162702D01*
X142174065Y-108119596D01*
X142174064Y-108119595D01*
X142174063Y-108119593D01*
X142090406Y-108035936D01*
X142090404Y-108035935D01*
X141983175Y-107985933D01*
X141983174Y-107985932D01*
X141973401Y-107984645D01*
X141934316Y-107979500D01*
X141585684Y-107979500D01*
X141553112Y-107983788D01*
X141536825Y-107985932D01*
X141536824Y-107985933D01*
X141429595Y-108035935D01*
X141429593Y-108035936D01*
X141345936Y-108119593D01*
X141345935Y-108119595D01*
X141294409Y-108230093D01*
X141266759Y-108255430D01*
X141229292Y-108253794D01*
X141205591Y-108230093D01*
X141190803Y-108198380D01*
X141154065Y-108119596D01*
X141154064Y-108119595D01*
X141154063Y-108119593D01*
X141070406Y-108035936D01*
X141070404Y-108035935D01*
X140963175Y-107985933D01*
X140963174Y-107985932D01*
X140953401Y-107984645D01*
X140914316Y-107979500D01*
X140565684Y-107979500D01*
X140533112Y-107983788D01*
X140516825Y-107985932D01*
X140516824Y-107985933D01*
X140409595Y-108035935D01*
X140409593Y-108035936D01*
X140325936Y-108119593D01*
X140325935Y-108119595D01*
X140301868Y-108171208D01*
X140274218Y-108196545D01*
X140257459Y-108199500D01*
X136210435Y-108199500D01*
X136134013Y-108219977D01*
X136134010Y-108219978D01*
X136065488Y-108259540D01*
X134089880Y-110235148D01*
X134055232Y-110249500D01*
X133928034Y-110249500D01*
X133789949Y-110290046D01*
X133668871Y-110367857D01*
X133574625Y-110476623D01*
X133574624Y-110476625D01*
X133514833Y-110607545D01*
X133494353Y-110749997D01*
X133494353Y-110750002D01*
X133514833Y-110892454D01*
X133525519Y-110915852D01*
X133574623Y-111023373D01*
X133574624Y-111023374D01*
X133574625Y-111023376D01*
X133656493Y-111117857D01*
X133668872Y-111132143D01*
X133789947Y-111209953D01*
X133866785Y-111232514D01*
X133928034Y-111250499D01*
X133928037Y-111250499D01*
X133928039Y-111250500D01*
X133928040Y-111250500D01*
X134071960Y-111250500D01*
X134071961Y-111250500D01*
X134071963Y-111250499D01*
X134071965Y-111250499D01*
X134094795Y-111243795D01*
X134210053Y-111209953D01*
X134331128Y-111132143D01*
X134425377Y-111023373D01*
X134485165Y-110892457D01*
X134485165Y-110892455D01*
X134485166Y-110892454D01*
X134505647Y-110750001D01*
X134505647Y-110750000D01*
X134501064Y-110718128D01*
X134498995Y-110703741D01*
X134508269Y-110667406D01*
X134512841Y-110662128D01*
X136360119Y-108814852D01*
X136394767Y-108800500D01*
X138619942Y-108800500D01*
X138654590Y-108814852D01*
X138668942Y-108849500D01*
X138656974Y-108881588D01*
X138574625Y-108976623D01*
X138574624Y-108976625D01*
X138514833Y-109107545D01*
X138494353Y-109249997D01*
X138494353Y-109250002D01*
X138514833Y-109392454D01*
X138542586Y-109453222D01*
X138574623Y-109523373D01*
X138574624Y-109523374D01*
X138574625Y-109523376D01*
X138629790Y-109587040D01*
X138641633Y-109622624D01*
X138624846Y-109656160D01*
X138592758Y-109668128D01*
X138491808Y-109668128D01*
X138415384Y-109688606D01*
X138415380Y-109688607D01*
X138368803Y-109715500D01*
X138363317Y-109718667D01*
X138346864Y-109728165D01*
X138346858Y-109728170D01*
X137089880Y-110985148D01*
X137055232Y-110999500D01*
X136928034Y-110999500D01*
X136789949Y-111040046D01*
X136668871Y-111117857D01*
X136574625Y-111226623D01*
X136574624Y-111226625D01*
X136514833Y-111357545D01*
X136494353Y-111499997D01*
X136494353Y-111500002D01*
X136514833Y-111642454D01*
X136554881Y-111730144D01*
X136556220Y-111767623D01*
X136530665Y-111795072D01*
X136510309Y-111799500D01*
X135610436Y-111799500D01*
X135534012Y-111819978D01*
X135534008Y-111819979D01*
X135520031Y-111828050D01*
X135465495Y-111859535D01*
X135465486Y-111859542D01*
X135089880Y-112235148D01*
X135055232Y-112249500D01*
X134928034Y-112249500D01*
X134789949Y-112290046D01*
X134668871Y-112367857D01*
X134574625Y-112476623D01*
X134574624Y-112476625D01*
X134514833Y-112607545D01*
X134494353Y-112749997D01*
X134494353Y-112750002D01*
X134514833Y-112892454D01*
X134533512Y-112933354D01*
X134574623Y-113023373D01*
X134574624Y-113023374D01*
X134574625Y-113023376D01*
X134668871Y-113132142D01*
X134668872Y-113132143D01*
X134789947Y-113209953D01*
X134866785Y-113232514D01*
X134928034Y-113250499D01*
X134928037Y-113250499D01*
X134928039Y-113250500D01*
X134928040Y-113250500D01*
X135071960Y-113250500D01*
X135071961Y-113250500D01*
X135071963Y-113250499D01*
X135071965Y-113250499D01*
X135094795Y-113243795D01*
X135210053Y-113209953D01*
X135331128Y-113132143D01*
X135425377Y-113023373D01*
X135455428Y-112957569D01*
X135482876Y-112932015D01*
X135520356Y-112933354D01*
X135544570Y-112957568D01*
X135574623Y-113023373D01*
X135574624Y-113023374D01*
X135574625Y-113023376D01*
X135668871Y-113132142D01*
X135668872Y-113132143D01*
X135789947Y-113209953D01*
X135866785Y-113232514D01*
X135928034Y-113250499D01*
X135928037Y-113250499D01*
X135928039Y-113250500D01*
X135928040Y-113250500D01*
X136071960Y-113250500D01*
X136071961Y-113250500D01*
X136071963Y-113250499D01*
X136071965Y-113250499D01*
X136094795Y-113243795D01*
X136210053Y-113209953D01*
X136331128Y-113132143D01*
X136425377Y-113023373D01*
X136485165Y-112892457D01*
X136485165Y-112892455D01*
X136485166Y-112892454D01*
X136492344Y-112842527D01*
X136511480Y-112810274D01*
X136540845Y-112800500D01*
X149789564Y-112800500D01*
X149816230Y-112793354D01*
X149865989Y-112780021D01*
X149934511Y-112740460D01*
X149990460Y-112684511D01*
X153140460Y-109534511D01*
X153180022Y-109465988D01*
X153200499Y-109389565D01*
X153200500Y-109389565D01*
X153200500Y-103794750D01*
X153191065Y-103759540D01*
X153180021Y-103718325D01*
X153180020Y-103718323D01*
X153180020Y-103718322D01*
X153140459Y-103649802D01*
X153084511Y-103593854D01*
X151892501Y-102401843D01*
X151892492Y-102401836D01*
X151890179Y-102400501D01*
X151823976Y-102362279D01*
X151747550Y-102341800D01*
X151747548Y-102341800D01*
X150113994Y-102341800D01*
X150086771Y-102333542D01*
X150076132Y-102326433D01*
X150063342Y-102323889D01*
X150017649Y-102314800D01*
X150017646Y-102314800D01*
X149376501Y-102314800D01*
X149341853Y-102300448D01*
X149327501Y-102265800D01*
X149327501Y-101624655D01*
X149327501Y-101624652D01*
X149315868Y-101566169D01*
X149289302Y-101526412D01*
X149271553Y-101499847D01*
X149220347Y-101465633D01*
X149205232Y-101455533D01*
X149146749Y-101443900D01*
X148853253Y-101443900D01*
X148818163Y-101450879D01*
X148794768Y-101455533D01*
X148779653Y-101465633D01*
X148742871Y-101472948D01*
X148725209Y-101465633D01*
X148706284Y-101452989D01*
X148647019Y-101441200D01*
X148601652Y-101441200D01*
X148601652Y-102052650D01*
X148587300Y-102087298D01*
X148552652Y-102101650D01*
X148447352Y-102101650D01*
X148412704Y-102087298D01*
X148398352Y-102052650D01*
X148398352Y-101441200D01*
X148352984Y-101441200D01*
X148293717Y-101452989D01*
X148274792Y-101465634D01*
X148238010Y-101472949D01*
X148220349Y-101465634D01*
X148219875Y-101465317D01*
X148205232Y-101455533D01*
X148146749Y-101443900D01*
X147853253Y-101443900D01*
X147850846Y-101443900D01*
X147850846Y-101442752D01*
X147818403Y-101432899D01*
X147800735Y-101399818D01*
X147800501Y-101395032D01*
X147800501Y-100894767D01*
X147814852Y-100860120D01*
X148430374Y-100244598D01*
X148458626Y-100230666D01*
X148459895Y-100230499D01*
X148459900Y-100230499D01*
X148509487Y-100223972D01*
X148618316Y-100173224D01*
X148703224Y-100088316D01*
X148753972Y-99979487D01*
X148760500Y-99929901D01*
X148760499Y-99570100D01*
X148753972Y-99520513D01*
X148748855Y-99509540D01*
X148716642Y-99440459D01*
X148703224Y-99411684D01*
X148703223Y-99411683D01*
X148703222Y-99411681D01*
X148618318Y-99326777D01*
X148618316Y-99326776D01*
X148594988Y-99315898D01*
X148569651Y-99288248D01*
X148571287Y-99250781D01*
X148594989Y-99227080D01*
X148619888Y-99215469D01*
X148619891Y-99215467D01*
X148705467Y-99129891D01*
X148705468Y-99129889D01*
X148756618Y-99020198D01*
X148763200Y-98970208D01*
X148763200Y-98891650D01*
X146736801Y-98891650D01*
X146736801Y-98970211D01*
X146743380Y-99020197D01*
X146794531Y-99129889D01*
X146794532Y-99129891D01*
X146880108Y-99215467D01*
X146880110Y-99215468D01*
X146905011Y-99227080D01*
X146930348Y-99254730D01*
X146928712Y-99292197D01*
X146905012Y-99315898D01*
X146881681Y-99326777D01*
X146796777Y-99411681D01*
X146796776Y-99411683D01*
X146792335Y-99421208D01*
X146764686Y-99446545D01*
X146747926Y-99449500D01*
X141894767Y-99449500D01*
X141860119Y-99435148D01*
X141034762Y-98609791D01*
X146736800Y-98609791D01*
X146736800Y-98688350D01*
X147148350Y-98688350D01*
X147351650Y-98688350D01*
X148148350Y-98688350D01*
X148351650Y-98688350D01*
X148763199Y-98688350D01*
X148763199Y-98609793D01*
X148763198Y-98609788D01*
X148756619Y-98559802D01*
X148705468Y-98450110D01*
X148705467Y-98450108D01*
X148619891Y-98364532D01*
X148619889Y-98364531D01*
X148510198Y-98313381D01*
X148460208Y-98306800D01*
X148351650Y-98306800D01*
X148351650Y-98688350D01*
X148148350Y-98688350D01*
X148148350Y-98306800D01*
X148039793Y-98306800D01*
X148039788Y-98306801D01*
X147989802Y-98313380D01*
X147880110Y-98364531D01*
X147880108Y-98364532D01*
X147794532Y-98450108D01*
X147794530Y-98450111D01*
X147794408Y-98450374D01*
X147794236Y-98450530D01*
X147792075Y-98453619D01*
X147791389Y-98453139D01*
X147766758Y-98475709D01*
X147729290Y-98474072D01*
X147708461Y-98453243D01*
X147707925Y-98453619D01*
X147705796Y-98450578D01*
X147705592Y-98450374D01*
X147705469Y-98450111D01*
X147705467Y-98450108D01*
X147619891Y-98364532D01*
X147619889Y-98364531D01*
X147510198Y-98313381D01*
X147460208Y-98306800D01*
X147351650Y-98306800D01*
X147351650Y-98688350D01*
X147148350Y-98688350D01*
X147148350Y-98306800D01*
X147039793Y-98306800D01*
X147039788Y-98306801D01*
X146989802Y-98313380D01*
X146880110Y-98364531D01*
X146880108Y-98364532D01*
X146794532Y-98450108D01*
X146794531Y-98450110D01*
X146743381Y-98559801D01*
X146736800Y-98609791D01*
X141034762Y-98609791D01*
X140414511Y-97989540D01*
X140345990Y-97949979D01*
X140269564Y-97929500D01*
X140269562Y-97929500D01*
X136252074Y-97929500D01*
X136217426Y-97915148D01*
X136207665Y-97901208D01*
X136203224Y-97891684D01*
X136203223Y-97891683D01*
X136203222Y-97891681D01*
X136118318Y-97806777D01*
X136118316Y-97806776D01*
X136094988Y-97795898D01*
X136069651Y-97768248D01*
X136071287Y-97730781D01*
X136094989Y-97707080D01*
X136119888Y-97695469D01*
X136119891Y-97695467D01*
X136205467Y-97609891D01*
X136205468Y-97609889D01*
X136256618Y-97500198D01*
X136263200Y-97450208D01*
X136263200Y-97371650D01*
X135236801Y-97371650D01*
X135236801Y-97450211D01*
X135243380Y-97500197D01*
X135294531Y-97609889D01*
X135294532Y-97609891D01*
X135380108Y-97695467D01*
X135380110Y-97695468D01*
X135405011Y-97707080D01*
X135430348Y-97734730D01*
X135428712Y-97772197D01*
X135405012Y-97795898D01*
X135381681Y-97806777D01*
X135296777Y-97891681D01*
X135296776Y-97891683D01*
X135246029Y-98000510D01*
X135246028Y-98000511D01*
X135239500Y-98050102D01*
X135239500Y-98409896D01*
X135239501Y-98409901D01*
X135246027Y-98459487D01*
X135296776Y-98568316D01*
X135296777Y-98568318D01*
X135381681Y-98653222D01*
X135381683Y-98653223D01*
X135381684Y-98653224D01*
X135421208Y-98671654D01*
X135446545Y-98699304D01*
X135449500Y-98716063D01*
X135449500Y-100105233D01*
X135435148Y-100139881D01*
X134734148Y-100840881D01*
X134699500Y-100855233D01*
X134664852Y-100840881D01*
X134650500Y-100806233D01*
X134650500Y-100054709D01*
X134664852Y-100020061D01*
X134693107Y-100006128D01*
X134709487Y-100003972D01*
X134738463Y-99990460D01*
X134818316Y-99953224D01*
X134903224Y-99868316D01*
X134953972Y-99759487D01*
X134960500Y-99709901D01*
X134960499Y-99290100D01*
X134953972Y-99240513D01*
X134953971Y-99240511D01*
X134927405Y-99183541D01*
X134903224Y-99131684D01*
X134903223Y-99131683D01*
X134903222Y-99131681D01*
X134818317Y-99046776D01*
X134808789Y-99042333D01*
X134783454Y-99014682D01*
X134780500Y-98997925D01*
X134780500Y-97752074D01*
X134794852Y-97717426D01*
X134808794Y-97707664D01*
X134810046Y-97707080D01*
X134818316Y-97703224D01*
X134903224Y-97618316D01*
X134953972Y-97509487D01*
X134960500Y-97459901D01*
X134960499Y-97089791D01*
X135236800Y-97089791D01*
X135236800Y-97168350D01*
X135648350Y-97168350D01*
X135851650Y-97168350D01*
X136263199Y-97168350D01*
X136263199Y-97089793D01*
X136263198Y-97089788D01*
X136256619Y-97039802D01*
X136205468Y-96930110D01*
X136205467Y-96930108D01*
X136119891Y-96844532D01*
X136119889Y-96844531D01*
X136010198Y-96793381D01*
X135960208Y-96786800D01*
X135851650Y-96786800D01*
X135851650Y-97168350D01*
X135648350Y-97168350D01*
X135648350Y-96786800D01*
X135539793Y-96786800D01*
X135539788Y-96786801D01*
X135489802Y-96793380D01*
X135380110Y-96844531D01*
X135380108Y-96844532D01*
X135294532Y-96930108D01*
X135294531Y-96930110D01*
X135243381Y-97039801D01*
X135236800Y-97089791D01*
X134960499Y-97089791D01*
X134960499Y-97040100D01*
X134953972Y-96990513D01*
X134953971Y-96990511D01*
X134927405Y-96933541D01*
X134903224Y-96881684D01*
X134903223Y-96881683D01*
X134903222Y-96881681D01*
X134818317Y-96796776D01*
X134808789Y-96792333D01*
X134783454Y-96764682D01*
X134780500Y-96747925D01*
X134780500Y-96049000D01*
X134794852Y-96014352D01*
X134829500Y-96000000D01*
X172450500Y-96000000D01*
X172485148Y-96014352D01*
X172499500Y-96049000D01*
X172499500Y-130998251D01*
X172499375Y-131001747D01*
X172484486Y-131209905D01*
X172483491Y-131216825D01*
X172439505Y-131419029D01*
X172437536Y-131425737D01*
X172365215Y-131619637D01*
X172362310Y-131625996D01*
X172263140Y-131807614D01*
X172259360Y-131813496D01*
X172135345Y-131979159D01*
X172130767Y-131984442D01*
X171984442Y-132130767D01*
X171979159Y-132135345D01*
X171813496Y-132259360D01*
X171807614Y-132263140D01*
X171625996Y-132362310D01*
X171619637Y-132365215D01*
X171425737Y-132437536D01*
X171419029Y-132439505D01*
X171216825Y-132483491D01*
X171209905Y-132484486D01*
X171001748Y-132499375D01*
X170998252Y-132499500D01*
X112001748Y-132499500D01*
X111998252Y-132499375D01*
X111790094Y-132484486D01*
X111783174Y-132483491D01*
X111580970Y-132439505D01*
X111574262Y-132437536D01*
X111380362Y-132365215D01*
X111374003Y-132362310D01*
X111252504Y-132295967D01*
X111192381Y-132263137D01*
X111186508Y-132259363D01*
X111020840Y-132135345D01*
X111015557Y-132130767D01*
X110869232Y-131984442D01*
X110864654Y-131979159D01*
X110740634Y-131813488D01*
X110736864Y-131807622D01*
X110637687Y-131625992D01*
X110634784Y-131619637D01*
X110562463Y-131425737D01*
X110560494Y-131419029D01*
X110516508Y-131216825D01*
X110515513Y-131209905D01*
X110500625Y-131001747D01*
X110500500Y-130998251D01*
X110500500Y-127577545D01*
X144564200Y-127577545D01*
X144564200Y-127724455D01*
X144592860Y-127868542D01*
X144649080Y-128004269D01*
X144681991Y-128053525D01*
X144730696Y-128126417D01*
X144834582Y-128230303D01*
X144883176Y-128262772D01*
X144956731Y-128311920D01*
X145092458Y-128368140D01*
X145236545Y-128396800D01*
X145236548Y-128396800D01*
X145383452Y-128396800D01*
X145383455Y-128396800D01*
X145527542Y-128368140D01*
X145663269Y-128311920D01*
X145785420Y-128230301D01*
X145889301Y-128126420D01*
X145970920Y-128004269D01*
X146027140Y-127868542D01*
X146055800Y-127724455D01*
X146055800Y-127577545D01*
X146027140Y-127433458D01*
X145970920Y-127297731D01*
X145915174Y-127214301D01*
X145889303Y-127175582D01*
X145785417Y-127071696D01*
X145678115Y-127000000D01*
X145663269Y-126990080D01*
X145663266Y-126990078D01*
X145663265Y-126990078D01*
X145527542Y-126933860D01*
X145383455Y-126905200D01*
X145236545Y-126905200D01*
X145128479Y-126926695D01*
X145092457Y-126933860D01*
X145092456Y-126933860D01*
X144956734Y-126990078D01*
X144834582Y-127071696D01*
X144730696Y-127175582D01*
X144649078Y-127297734D01*
X144592860Y-127433456D01*
X144592860Y-127433457D01*
X144592860Y-127433458D01*
X144564200Y-127577545D01*
X110500500Y-127577545D01*
X110500500Y-126999997D01*
X131494353Y-126999997D01*
X131494353Y-127000002D01*
X131514833Y-127142454D01*
X131529962Y-127175580D01*
X131574623Y-127273373D01*
X131574624Y-127273374D01*
X131574625Y-127273376D01*
X131642874Y-127352140D01*
X131668872Y-127382143D01*
X131789947Y-127459953D01*
X131866785Y-127482514D01*
X131928034Y-127500499D01*
X131928037Y-127500499D01*
X131928039Y-127500500D01*
X131928040Y-127500500D01*
X132071960Y-127500500D01*
X132071961Y-127500500D01*
X132071963Y-127500499D01*
X132071965Y-127500499D01*
X132094795Y-127493795D01*
X132210053Y-127459953D01*
X132331128Y-127382143D01*
X132425377Y-127273373D01*
X132485165Y-127142457D01*
X132485165Y-127142455D01*
X132485166Y-127142454D01*
X132505647Y-127000002D01*
X132505647Y-126999997D01*
X132485166Y-126857545D01*
X132480751Y-126847879D01*
X132425377Y-126726627D01*
X132331128Y-126617857D01*
X132243505Y-126561545D01*
X136944200Y-126561545D01*
X136944200Y-126708455D01*
X136947815Y-126726627D01*
X136972860Y-126852542D01*
X136972860Y-126852543D01*
X137006543Y-126933860D01*
X137029080Y-126988269D01*
X137036920Y-127000002D01*
X137110696Y-127110417D01*
X137214582Y-127214303D01*
X137263176Y-127246772D01*
X137336731Y-127295920D01*
X137472458Y-127352140D01*
X137616545Y-127380800D01*
X137616548Y-127380800D01*
X137763452Y-127380800D01*
X137763455Y-127380800D01*
X137907542Y-127352140D01*
X138043269Y-127295920D01*
X138165420Y-127214301D01*
X138269301Y-127110420D01*
X138350920Y-126988269D01*
X138407140Y-126852542D01*
X138435800Y-126708455D01*
X138435800Y-126561545D01*
X138407140Y-126417458D01*
X138350920Y-126281731D01*
X138295174Y-126198301D01*
X138269303Y-126159582D01*
X138165417Y-126055696D01*
X138092525Y-126006991D01*
X138043269Y-125974080D01*
X138043266Y-125974078D01*
X138043265Y-125974078D01*
X137907542Y-125917860D01*
X137763455Y-125889200D01*
X137616545Y-125889200D01*
X137508479Y-125910695D01*
X137472457Y-125917860D01*
X137472456Y-125917860D01*
X137336734Y-125974078D01*
X137214582Y-126055696D01*
X137110696Y-126159582D01*
X137029078Y-126281734D01*
X136972860Y-126417456D01*
X136972860Y-126417457D01*
X136972860Y-126417458D01*
X136944200Y-126561545D01*
X132243505Y-126561545D01*
X132210053Y-126540047D01*
X132210050Y-126540046D01*
X132071965Y-126499500D01*
X132071961Y-126499500D01*
X131928039Y-126499500D01*
X131928034Y-126499500D01*
X131789949Y-126540046D01*
X131668871Y-126617857D01*
X131574625Y-126726623D01*
X131574624Y-126726625D01*
X131514833Y-126857545D01*
X131494353Y-126999997D01*
X110500500Y-126999997D01*
X110500500Y-125545545D01*
X144564200Y-125545545D01*
X144564200Y-125692455D01*
X144592860Y-125836542D01*
X144592860Y-125836543D01*
X144626543Y-125917860D01*
X144649080Y-125972269D01*
X144681991Y-126021525D01*
X144730696Y-126094417D01*
X144834582Y-126198303D01*
X144883176Y-126230772D01*
X144956731Y-126279920D01*
X145092458Y-126336140D01*
X145236545Y-126364800D01*
X145236548Y-126364800D01*
X145383452Y-126364800D01*
X145383455Y-126364800D01*
X145527542Y-126336140D01*
X145663269Y-126279920D01*
X145785420Y-126198301D01*
X145889301Y-126094420D01*
X145970920Y-125972269D01*
X146027140Y-125836542D01*
X146055800Y-125692455D01*
X146055800Y-125545545D01*
X146027140Y-125401458D01*
X145970920Y-125265731D01*
X145921772Y-125192176D01*
X145889303Y-125143582D01*
X145785417Y-125039696D01*
X145712525Y-124990991D01*
X145663269Y-124958080D01*
X145663266Y-124958078D01*
X145663265Y-124958078D01*
X145527542Y-124901860D01*
X145383455Y-124873200D01*
X145236545Y-124873200D01*
X145128479Y-124894695D01*
X145092457Y-124901860D01*
X145092456Y-124901860D01*
X144956734Y-124958078D01*
X144834582Y-125039696D01*
X144730696Y-125143582D01*
X144649078Y-125265734D01*
X144592860Y-125401456D01*
X144592860Y-125401457D01*
X144592860Y-125401458D01*
X144564200Y-125545545D01*
X110500500Y-125545545D01*
X110500500Y-108069216D01*
X126476800Y-108069216D01*
X126476800Y-108148350D01*
X126778738Y-108148350D01*
X126813386Y-108162702D01*
X126827738Y-108197350D01*
X126813386Y-108231998D01*
X126766445Y-108278939D01*
X126766443Y-108278940D01*
X126748855Y-108321402D01*
X126722336Y-108347920D01*
X126703585Y-108351650D01*
X126476800Y-108351650D01*
X126476800Y-108430783D01*
X126486732Y-108498950D01*
X126486732Y-108498951D01*
X126538136Y-108604098D01*
X126538138Y-108604102D01*
X126620897Y-108686861D01*
X126620901Y-108686863D01*
X126632391Y-108692481D01*
X126657215Y-108720592D01*
X126654891Y-108758023D01*
X126632391Y-108780523D01*
X126622491Y-108785362D01*
X126622487Y-108785365D01*
X126540365Y-108867487D01*
X126540363Y-108867491D01*
X126489356Y-108971826D01*
X126489355Y-108971828D01*
X126479500Y-109039470D01*
X126479500Y-109400529D01*
X126489355Y-109468171D01*
X126489356Y-109468173D01*
X126500251Y-109490459D01*
X126540364Y-109572511D01*
X126622489Y-109654636D01*
X126726830Y-109705645D01*
X126774760Y-109712628D01*
X126794470Y-109715500D01*
X126794472Y-109715500D01*
X127205530Y-109715500D01*
X127222733Y-109712993D01*
X127273170Y-109705645D01*
X127377511Y-109654636D01*
X127459636Y-109572511D01*
X127510645Y-109468170D01*
X127520500Y-109400528D01*
X127520500Y-109039472D01*
X127510645Y-108971830D01*
X127459636Y-108867489D01*
X127377511Y-108785364D01*
X127377509Y-108785363D01*
X127377506Y-108785361D01*
X127367609Y-108780523D01*
X127342784Y-108752413D01*
X127345108Y-108714982D01*
X127367610Y-108692480D01*
X127379099Y-108686863D01*
X127379102Y-108686861D01*
X127461861Y-108604102D01*
X127461863Y-108604098D01*
X127513267Y-108498951D01*
X127513267Y-108498950D01*
X127523200Y-108430783D01*
X127523200Y-108351650D01*
X127296415Y-108351650D01*
X127261767Y-108337298D01*
X127251145Y-108321402D01*
X127233556Y-108278940D01*
X127186614Y-108231998D01*
X127172262Y-108197350D01*
X127186614Y-108162702D01*
X127221262Y-108148350D01*
X127523200Y-108148350D01*
X127523200Y-108069216D01*
X127513267Y-108001049D01*
X127513267Y-108001048D01*
X127461863Y-107895901D01*
X127461861Y-107895897D01*
X127400180Y-107834216D01*
X127976800Y-107834216D01*
X127976800Y-107913350D01*
X128278738Y-107913350D01*
X128313386Y-107927702D01*
X128327738Y-107962350D01*
X128313386Y-107996998D01*
X128266445Y-108043939D01*
X128266443Y-108043940D01*
X128248855Y-108086402D01*
X128222336Y-108112920D01*
X128203585Y-108116650D01*
X127976800Y-108116650D01*
X127976800Y-108195783D01*
X127986732Y-108263950D01*
X127986732Y-108263951D01*
X128038136Y-108369098D01*
X128038138Y-108369102D01*
X128120897Y-108451861D01*
X128120901Y-108451863D01*
X128132391Y-108457481D01*
X128157215Y-108485592D01*
X128154891Y-108523023D01*
X128132391Y-108545523D01*
X128122491Y-108550362D01*
X128122487Y-108550365D01*
X128040365Y-108632487D01*
X128040363Y-108632491D01*
X127989356Y-108736826D01*
X127989355Y-108736828D01*
X127979500Y-108804470D01*
X127979500Y-109165529D01*
X127989355Y-109233171D01*
X127989356Y-109233173D01*
X128014859Y-109285340D01*
X128040364Y-109337511D01*
X128122489Y-109419636D01*
X128226830Y-109470645D01*
X128274760Y-109477628D01*
X128294470Y-109480500D01*
X128294472Y-109480500D01*
X128705530Y-109480500D01*
X128722733Y-109477993D01*
X128773170Y-109470645D01*
X128877511Y-109419636D01*
X128959636Y-109337511D01*
X129010645Y-109233170D01*
X129013990Y-109210211D01*
X131036801Y-109210211D01*
X131043380Y-109260197D01*
X131094531Y-109369889D01*
X131094532Y-109369891D01*
X131180108Y-109455467D01*
X131180110Y-109455468D01*
X131289801Y-109506618D01*
X131339792Y-109513199D01*
X131418349Y-109513199D01*
X131621650Y-109513199D01*
X131700206Y-109513199D01*
X131700211Y-109513198D01*
X131750197Y-109506619D01*
X131859889Y-109455468D01*
X131859891Y-109455467D01*
X131945467Y-109369891D01*
X131945469Y-109369888D01*
X131957080Y-109344989D01*
X131984729Y-109319651D01*
X132022196Y-109321287D01*
X132045898Y-109344988D01*
X132056776Y-109368316D01*
X132056777Y-109368318D01*
X132141681Y-109453222D01*
X132141683Y-109453223D01*
X132141684Y-109453224D01*
X132250513Y-109503972D01*
X132300099Y-109510500D01*
X132659900Y-109510499D01*
X132709487Y-109503972D01*
X132818316Y-109453224D01*
X132903224Y-109368316D01*
X132953972Y-109259487D01*
X132960500Y-109209901D01*
X132960499Y-108790100D01*
X132953972Y-108740513D01*
X132946419Y-108724316D01*
X132914102Y-108655012D01*
X132903224Y-108631684D01*
X132903223Y-108631683D01*
X132903222Y-108631681D01*
X132818318Y-108546777D01*
X132818316Y-108546776D01*
X132709489Y-108496029D01*
X132709488Y-108496028D01*
X132699569Y-108494722D01*
X132659901Y-108489500D01*
X132659897Y-108489500D01*
X132300103Y-108489500D01*
X132300098Y-108489501D01*
X132250512Y-108496027D01*
X132141683Y-108546776D01*
X132141681Y-108546777D01*
X132056777Y-108631681D01*
X132045898Y-108655012D01*
X132018247Y-108680348D01*
X131980780Y-108678712D01*
X131957080Y-108655011D01*
X131945468Y-108630110D01*
X131945467Y-108630108D01*
X131859891Y-108544532D01*
X131859889Y-108544531D01*
X131750198Y-108493381D01*
X131700208Y-108486800D01*
X131621650Y-108486800D01*
X131621650Y-109513199D01*
X131418349Y-109513199D01*
X131418350Y-109513198D01*
X131418350Y-109101650D01*
X131036801Y-109101650D01*
X131036801Y-109210211D01*
X129013990Y-109210211D01*
X129020500Y-109165528D01*
X129020500Y-108804472D01*
X129019921Y-108800500D01*
X129018361Y-108789791D01*
X131036800Y-108789791D01*
X131036800Y-108898350D01*
X131418350Y-108898350D01*
X131418350Y-108486800D01*
X131339793Y-108486800D01*
X131339788Y-108486801D01*
X131289802Y-108493380D01*
X131180110Y-108544531D01*
X131180108Y-108544532D01*
X131094532Y-108630108D01*
X131094531Y-108630110D01*
X131043381Y-108739801D01*
X131036800Y-108789791D01*
X129018361Y-108789791D01*
X129015464Y-108769906D01*
X129010645Y-108736830D01*
X128959636Y-108632489D01*
X128877511Y-108550364D01*
X128877509Y-108550363D01*
X128877506Y-108550361D01*
X128867609Y-108545523D01*
X128842784Y-108517413D01*
X128845108Y-108479982D01*
X128867610Y-108457480D01*
X128879099Y-108451863D01*
X128879102Y-108451861D01*
X128961861Y-108369102D01*
X128961863Y-108369098D01*
X129013267Y-108263951D01*
X129013267Y-108263950D01*
X129023200Y-108195783D01*
X129023200Y-108116650D01*
X128796415Y-108116650D01*
X128761767Y-108102298D01*
X128751145Y-108086402D01*
X128733556Y-108043940D01*
X128686614Y-107996998D01*
X128672262Y-107962350D01*
X128686614Y-107927702D01*
X128721262Y-107913350D01*
X129023200Y-107913350D01*
X129023200Y-107834216D01*
X129013267Y-107766049D01*
X129013267Y-107766048D01*
X128961863Y-107660901D01*
X128961861Y-107660897D01*
X128879102Y-107578138D01*
X128879098Y-107578136D01*
X128773950Y-107526732D01*
X128705784Y-107516800D01*
X128601650Y-107516800D01*
X128601650Y-107875500D01*
X128587298Y-107910148D01*
X128552650Y-107924500D01*
X128447350Y-107924500D01*
X128412702Y-107910148D01*
X128398350Y-107875500D01*
X128398350Y-107516800D01*
X128294216Y-107516800D01*
X128226049Y-107526732D01*
X128226048Y-107526732D01*
X128120901Y-107578136D01*
X128120897Y-107578138D01*
X128038138Y-107660897D01*
X128038136Y-107660901D01*
X127986732Y-107766048D01*
X127986732Y-107766049D01*
X127976800Y-107834216D01*
X127400180Y-107834216D01*
X127379102Y-107813138D01*
X127379098Y-107813136D01*
X127273950Y-107761732D01*
X127205784Y-107751800D01*
X127101650Y-107751800D01*
X127101650Y-108110500D01*
X127087298Y-108145148D01*
X127052650Y-108159500D01*
X126947350Y-108159500D01*
X126912702Y-108145148D01*
X126898350Y-108110500D01*
X126898350Y-107751800D01*
X126794216Y-107751800D01*
X126726049Y-107761732D01*
X126726048Y-107761732D01*
X126620901Y-107813136D01*
X126620897Y-107813138D01*
X126538138Y-107895897D01*
X126538136Y-107895901D01*
X126486732Y-108001048D01*
X126486732Y-108001049D01*
X126476800Y-108069216D01*
X110500500Y-108069216D01*
X110500500Y-106290102D01*
X127309500Y-106290102D01*
X127309500Y-106709896D01*
X127309501Y-106709901D01*
X127316027Y-106759487D01*
X127366776Y-106868316D01*
X127366777Y-106868318D01*
X127451681Y-106953222D01*
X127451683Y-106953223D01*
X127451684Y-106953224D01*
X127560513Y-107003972D01*
X127610099Y-107010500D01*
X127969900Y-107010499D01*
X128019487Y-107003972D01*
X128128316Y-106953224D01*
X128213224Y-106868316D01*
X128224102Y-106844986D01*
X128251749Y-106819652D01*
X128289217Y-106821286D01*
X128312919Y-106844987D01*
X128324532Y-106869891D01*
X128410108Y-106955467D01*
X128410110Y-106955468D01*
X128519801Y-107006618D01*
X128569792Y-107013199D01*
X128648349Y-107013199D01*
X128851650Y-107013199D01*
X128930206Y-107013199D01*
X128930211Y-107013198D01*
X128980197Y-107006619D01*
X129089889Y-106955468D01*
X129089891Y-106955467D01*
X129175467Y-106869891D01*
X129175468Y-106869889D01*
X129226618Y-106760198D01*
X129233200Y-106710208D01*
X129233200Y-106601650D01*
X128851650Y-106601650D01*
X128851650Y-107013199D01*
X128648349Y-107013199D01*
X128648350Y-107013198D01*
X128648350Y-106398350D01*
X128851650Y-106398350D01*
X129233199Y-106398350D01*
X129233199Y-106289793D01*
X129233198Y-106289788D01*
X129226619Y-106239802D01*
X129175468Y-106130110D01*
X129175467Y-106130108D01*
X129089891Y-106044532D01*
X129089889Y-106044531D01*
X128980198Y-105993381D01*
X128930208Y-105986800D01*
X128851650Y-105986800D01*
X128851650Y-106398350D01*
X128648350Y-106398350D01*
X128648350Y-105986800D01*
X128569793Y-105986800D01*
X128569788Y-105986801D01*
X128519802Y-105993380D01*
X128410110Y-106044531D01*
X128410108Y-106044532D01*
X128324532Y-106130108D01*
X128312919Y-106155012D01*
X128285268Y-106180348D01*
X128247801Y-106178712D01*
X128224101Y-106155010D01*
X128213224Y-106131684D01*
X128213222Y-106131681D01*
X128128318Y-106046777D01*
X128128316Y-106046776D01*
X128019489Y-105996029D01*
X128019488Y-105996028D01*
X128009569Y-105994722D01*
X127969901Y-105989500D01*
X127969897Y-105989500D01*
X127610103Y-105989500D01*
X127610098Y-105989501D01*
X127560512Y-105996027D01*
X127451683Y-106046776D01*
X127451681Y-106046777D01*
X127366777Y-106131681D01*
X127366776Y-106131683D01*
X127316029Y-106240510D01*
X127316028Y-106240511D01*
X127314779Y-106250000D01*
X127309541Y-106289793D01*
X127309500Y-106290102D01*
X110500500Y-106290102D01*
X110500500Y-103960211D01*
X129306801Y-103960211D01*
X129313380Y-104010197D01*
X129364531Y-104119889D01*
X129364532Y-104119891D01*
X129450108Y-104205467D01*
X129450110Y-104205468D01*
X129559801Y-104256618D01*
X129609792Y-104263199D01*
X129688349Y-104263199D01*
X129688350Y-104263198D01*
X129688350Y-103851650D01*
X129306801Y-103851650D01*
X129306801Y-103960211D01*
X110500500Y-103960211D01*
X110500500Y-103539791D01*
X129306800Y-103539791D01*
X129306800Y-103648350D01*
X129688350Y-103648350D01*
X129688350Y-102851650D01*
X129306801Y-102851650D01*
X129306801Y-102960211D01*
X129313380Y-103010197D01*
X129364531Y-103119889D01*
X129364532Y-103119891D01*
X129450108Y-103205467D01*
X129450111Y-103205469D01*
X129450374Y-103205592D01*
X129450530Y-103205763D01*
X129453619Y-103207925D01*
X129453139Y-103208610D01*
X129475709Y-103233242D01*
X129474072Y-103270710D01*
X129453243Y-103291538D01*
X129453619Y-103292075D01*
X129450578Y-103294203D01*
X129450374Y-103294408D01*
X129450111Y-103294530D01*
X129450108Y-103294532D01*
X129364532Y-103380108D01*
X129364531Y-103380110D01*
X129313381Y-103489801D01*
X129306800Y-103539791D01*
X110500500Y-103539791D01*
X110500500Y-102539791D01*
X129306800Y-102539791D01*
X129306800Y-102648350D01*
X129688350Y-102648350D01*
X129688350Y-102236800D01*
X129609793Y-102236800D01*
X129609788Y-102236801D01*
X129559802Y-102243380D01*
X129450110Y-102294531D01*
X129450108Y-102294532D01*
X129364532Y-102380108D01*
X129364531Y-102380110D01*
X129313381Y-102489801D01*
X129306800Y-102539791D01*
X110500500Y-102539791D01*
X110500500Y-96049000D01*
X110514852Y-96014352D01*
X110549500Y-96000000D01*
X133170500Y-96000000D01*
X133205148Y-96014352D01*
G37*
%TD.AperFunction*%
%TD*%
M02*
