%TF.GenerationSoftware,KiCad,Pcbnew,8.0.5*%
%TF.CreationDate,2024-11-02T21:30:57-04:00*%
%TF.ProjectId,tcg_counter,7463675f-636f-4756-9e74-65722e6b6963,1*%
%TF.SameCoordinates,Original*%
%TF.FileFunction,Paste,Bot*%
%TF.FilePolarity,Positive*%
%FSLAX46Y46*%
G04 Gerber Fmt 4.6, Leading zero omitted, Abs format (unit mm)*
G04 Created by KiCad (PCBNEW 8.0.5) date 2024-11-02 21:30:57*
%MOMM*%
%LPD*%
G01*
G04 APERTURE LIST*
G04 Aperture macros list*
%AMRoundRect*
0 Rectangle with rounded corners*
0 $1 Rounding radius*
0 $2 $3 $4 $5 $6 $7 $8 $9 X,Y pos of 4 corners*
0 Add a 4 corners polygon primitive as box body*
4,1,4,$2,$3,$4,$5,$6,$7,$8,$9,$2,$3,0*
0 Add four circle primitives for the rounded corners*
1,1,$1+$1,$2,$3*
1,1,$1+$1,$4,$5*
1,1,$1+$1,$6,$7*
1,1,$1+$1,$8,$9*
0 Add four rect primitives between the rounded corners*
20,1,$1+$1,$2,$3,$4,$5,0*
20,1,$1+$1,$4,$5,$6,$7,0*
20,1,$1+$1,$6,$7,$8,$9,0*
20,1,$1+$1,$8,$9,$2,$3,0*%
G04 Aperture macros list end*
%ADD10RoundRect,0.250000X0.295000X0.295000X-0.295000X0.295000X-0.295000X-0.295000X0.295000X-0.295000X0*%
%ADD11RoundRect,0.062500X0.350000X0.062500X-0.350000X0.062500X-0.350000X-0.062500X0.350000X-0.062500X0*%
%ADD12RoundRect,0.062500X0.062500X0.350000X-0.062500X0.350000X-0.062500X-0.350000X0.062500X-0.350000X0*%
%ADD13RoundRect,0.212500X0.212500X0.212500X-0.212500X0.212500X-0.212500X-0.212500X0.212500X-0.212500X0*%
%ADD14RoundRect,0.062500X0.375000X0.062500X-0.375000X0.062500X-0.375000X-0.062500X0.375000X-0.062500X0*%
%ADD15RoundRect,0.062500X0.062500X0.375000X-0.062500X0.375000X-0.062500X-0.375000X0.062500X-0.375000X0*%
G04 APERTURE END LIST*
D10*
%TO.C,REF\u002A\u002A*%
X156200000Y-107200000D03*
X156200000Y-105850000D03*
X154850000Y-107200000D03*
X154850000Y-105850000D03*
D11*
X157487500Y-105275000D03*
X157487500Y-105775000D03*
X157487500Y-106275000D03*
X157487500Y-106775000D03*
X157487500Y-107275000D03*
X157487500Y-107775000D03*
D12*
X156775000Y-108487500D03*
X156275000Y-108487500D03*
X155775000Y-108487500D03*
X155275000Y-108487500D03*
X154775000Y-108487500D03*
X154275000Y-108487500D03*
D11*
X153562500Y-107775000D03*
X153562500Y-107275000D03*
X153562500Y-106775000D03*
X153562500Y-106275000D03*
X153562500Y-105775000D03*
X153562500Y-105275000D03*
D12*
X154275000Y-104562500D03*
X154775000Y-104562500D03*
X155275000Y-104562500D03*
X155775000Y-104562500D03*
X156275000Y-104562500D03*
X156775000Y-104562500D03*
%TD*%
D13*
%TO.C,REF\u002A\u002A*%
X146050000Y-107050000D03*
X146050000Y-106000000D03*
X145000000Y-107050000D03*
X145000000Y-106000000D03*
D14*
X147462500Y-105275000D03*
X147462500Y-105775000D03*
X147462500Y-106275000D03*
X147462500Y-106775000D03*
X147462500Y-107275000D03*
X147462500Y-107775000D03*
D15*
X146775000Y-108462500D03*
X146275000Y-108462500D03*
X145775000Y-108462500D03*
X145275000Y-108462500D03*
X144775000Y-108462500D03*
X144275000Y-108462500D03*
D14*
X143587500Y-107775000D03*
X143587500Y-107275000D03*
X143587500Y-106775000D03*
X143587500Y-106275000D03*
X143587500Y-105775000D03*
X143587500Y-105275000D03*
D15*
X144275000Y-104587500D03*
X144775000Y-104587500D03*
X145275000Y-104587500D03*
X145775000Y-104587500D03*
X146275000Y-104587500D03*
X146775000Y-104587500D03*
%TD*%
M02*
