M48
; DRILL file {KiCad 8.0.5} date 2025-05-24T22:45:18-0400
; FORMAT={-:-/ absolute / inch / decimal}
; #@! TF.CreationDate,2025-05-24T22:45:18-04:00
; #@! TF.GenerationSoftware,Kicad,Pcbnew,8.0.5
; #@! TF.FileFunction,Plated,1,2,PTH
FMAT,2
INCH
; #@! TA.AperFunction,Plated,PTH,ComponentDrill
T1C0.0079
; #@! TA.AperFunction,Plated,PTH,ViaDrill
T2C0.0118
%
G90
G05
T1
X5.2874Y-4.0945
X5.3189Y-4.063
X5.3189Y-4.0945
X5.3189Y-4.126
X5.3504Y-4.0945
X5.7835Y-4.0902
X5.8169Y-4.0568
X5.8169Y-4.0902
X5.8169Y-4.1237
X5.8504Y-4.0902
T2
X5.0984Y-3.9665
X5.0984Y-4.1339
X5.0984Y-4.3012
X5.1358Y-4.7835
X5.1831Y-4.9344
X5.2067Y-3.8287
X5.2067Y-5.0886
X5.2362Y-4.8524
X5.2559Y-3.7106
X5.2756Y-4.2717
X5.2756Y-4.3602
X5.2953Y-4.8425
X5.3051Y-5.1181
X5.315Y-4.439
X5.3534Y-3.9738
X5.3543Y-4.2126
X5.3543Y-4.439
X5.374Y-4.8425
X5.3937Y-3.8091
X5.3937Y-4.3898
X5.4232Y-4.124
X5.4232Y-4.1555
X5.4331Y-4.2224
X5.4724Y-4.3012
X5.4823Y-3.9075
X5.4921Y-3.9862
X5.5118Y-4.3898
X5.541Y-4.0354
X5.5512Y-4.3898
X5.5906Y-4.3898
X5.6201Y-3.9965
X5.6299Y-4.2224
X5.6398Y-3.9469
X5.6594Y-4.1535
X5.6693Y-4.2323
X5.6831Y-4.1142
X5.6988Y-4.0354
X5.7087Y-2.8346
X5.7087Y-4.2382
X5.7874Y-4.2421
X5.7972Y-3.8386
X5.8228Y-4.2421
X5.8366Y-3.8386
X5.8858Y-3.9764
M30
