%TF.GenerationSoftware,KiCad,Pcbnew,8.0.5*%
%TF.CreationDate,2024-11-02T21:30:57-04:00*%
%TF.ProjectId,tcg_counter,7463675f-636f-4756-9e74-65722e6b6963,1*%
%TF.SameCoordinates,Original*%
%TF.FileFunction,Copper,L2,Bot*%
%TF.FilePolarity,Positive*%
%FSLAX46Y46*%
G04 Gerber Fmt 4.6, Leading zero omitted, Abs format (unit mm)*
G04 Created by KiCad (PCBNEW 8.0.5) date 2024-11-02 21:30:57*
%MOMM*%
%LPD*%
G01*
G04 APERTURE LIST*
G04 Aperture macros list*
%AMRoundRect*
0 Rectangle with rounded corners*
0 $1 Rounding radius*
0 $2 $3 $4 $5 $6 $7 $8 $9 X,Y pos of 4 corners*
0 Add a 4 corners polygon primitive as box body*
4,1,4,$2,$3,$4,$5,$6,$7,$8,$9,$2,$3,0*
0 Add four circle primitives for the rounded corners*
1,1,$1+$1,$2,$3*
1,1,$1+$1,$4,$5*
1,1,$1+$1,$6,$7*
1,1,$1+$1,$8,$9*
0 Add four rect primitives between the rounded corners*
20,1,$1+$1,$2,$3,$4,$5,0*
20,1,$1+$1,$4,$5,$6,$7,0*
20,1,$1+$1,$6,$7,$8,$9,0*
20,1,$1+$1,$8,$9,$2,$3,0*%
G04 Aperture macros list end*
%TA.AperFunction,SMDPad,CuDef*%
%ADD10RoundRect,0.062500X0.350000X0.062500X-0.350000X0.062500X-0.350000X-0.062500X0.350000X-0.062500X0*%
%TD*%
%TA.AperFunction,SMDPad,CuDef*%
%ADD11RoundRect,0.062500X0.062500X0.350000X-0.062500X0.350000X-0.062500X-0.350000X0.062500X-0.350000X0*%
%TD*%
%TA.AperFunction,HeatsinkPad*%
%ADD12R,2.700000X2.700000*%
%TD*%
%TA.AperFunction,SMDPad,CuDef*%
%ADD13RoundRect,0.062500X0.375000X0.062500X-0.375000X0.062500X-0.375000X-0.062500X0.375000X-0.062500X0*%
%TD*%
%TA.AperFunction,SMDPad,CuDef*%
%ADD14RoundRect,0.062500X0.062500X0.375000X-0.062500X0.375000X-0.062500X-0.375000X0.062500X-0.375000X0*%
%TD*%
%TA.AperFunction,HeatsinkPad*%
%ADD15R,2.100000X2.100000*%
%TD*%
G04 APERTURE END LIST*
D10*
%TO.P,REF\u002A\u002A,1*%
%TO.N,N/C*%
X157487500Y-105275000D03*
%TO.P,REF\u002A\u002A,2*%
X157487500Y-105775000D03*
%TO.P,REF\u002A\u002A,3*%
X157487500Y-106275000D03*
%TO.P,REF\u002A\u002A,4*%
X157487500Y-106775000D03*
%TO.P,REF\u002A\u002A,5*%
X157487500Y-107275000D03*
%TO.P,REF\u002A\u002A,6*%
X157487500Y-107775000D03*
D11*
%TO.P,REF\u002A\u002A,7*%
X156775000Y-108487500D03*
%TO.P,REF\u002A\u002A,8*%
X156275000Y-108487500D03*
%TO.P,REF\u002A\u002A,9*%
X155775000Y-108487500D03*
%TO.P,REF\u002A\u002A,10*%
X155275000Y-108487500D03*
%TO.P,REF\u002A\u002A,11*%
X154775000Y-108487500D03*
%TO.P,REF\u002A\u002A,12*%
X154275000Y-108487500D03*
D10*
%TO.P,REF\u002A\u002A,13*%
X153562500Y-107775000D03*
%TO.P,REF\u002A\u002A,14*%
X153562500Y-107275000D03*
%TO.P,REF\u002A\u002A,15*%
X153562500Y-106775000D03*
%TO.P,REF\u002A\u002A,16*%
X153562500Y-106275000D03*
%TO.P,REF\u002A\u002A,17*%
X153562500Y-105775000D03*
%TO.P,REF\u002A\u002A,18*%
X153562500Y-105275000D03*
D11*
%TO.P,REF\u002A\u002A,19*%
X154275000Y-104562500D03*
%TO.P,REF\u002A\u002A,20*%
X154775000Y-104562500D03*
%TO.P,REF\u002A\u002A,21*%
X155275000Y-104562500D03*
%TO.P,REF\u002A\u002A,22*%
X155775000Y-104562500D03*
%TO.P,REF\u002A\u002A,23*%
X156275000Y-104562500D03*
%TO.P,REF\u002A\u002A,24*%
X156775000Y-104562500D03*
D12*
%TO.P,REF\u002A\u002A,25*%
X155525000Y-106525000D03*
%TD*%
D13*
%TO.P,REF\u002A\u002A,1*%
%TO.N,N/C*%
X147462500Y-105275000D03*
%TO.P,REF\u002A\u002A,2*%
X147462500Y-105775000D03*
%TO.P,REF\u002A\u002A,3*%
X147462500Y-106275000D03*
%TO.P,REF\u002A\u002A,4*%
X147462500Y-106775000D03*
%TO.P,REF\u002A\u002A,5*%
X147462500Y-107275000D03*
%TO.P,REF\u002A\u002A,6*%
X147462500Y-107775000D03*
D14*
%TO.P,REF\u002A\u002A,7*%
X146775000Y-108462500D03*
%TO.P,REF\u002A\u002A,8*%
X146275000Y-108462500D03*
%TO.P,REF\u002A\u002A,9*%
X145775000Y-108462500D03*
%TO.P,REF\u002A\u002A,10*%
X145275000Y-108462500D03*
%TO.P,REF\u002A\u002A,11*%
X144775000Y-108462500D03*
%TO.P,REF\u002A\u002A,12*%
X144275000Y-108462500D03*
D13*
%TO.P,REF\u002A\u002A,13*%
X143587500Y-107775000D03*
%TO.P,REF\u002A\u002A,14*%
X143587500Y-107275000D03*
%TO.P,REF\u002A\u002A,15*%
X143587500Y-106775000D03*
%TO.P,REF\u002A\u002A,16*%
X143587500Y-106275000D03*
%TO.P,REF\u002A\u002A,17*%
X143587500Y-105775000D03*
%TO.P,REF\u002A\u002A,18*%
X143587500Y-105275000D03*
D14*
%TO.P,REF\u002A\u002A,19*%
X144275000Y-104587500D03*
%TO.P,REF\u002A\u002A,20*%
X144775000Y-104587500D03*
%TO.P,REF\u002A\u002A,21*%
X145275000Y-104587500D03*
%TO.P,REF\u002A\u002A,22*%
X145775000Y-104587500D03*
%TO.P,REF\u002A\u002A,23*%
X146275000Y-104587500D03*
%TO.P,REF\u002A\u002A,24*%
X146775000Y-104587500D03*
D15*
%TO.P,REF\u002A\u002A,25*%
X145525000Y-106525000D03*
%TD*%
M02*
