%TF.GenerationSoftware,KiCad,Pcbnew,8.0.5*%
%TF.CreationDate,2024-11-02T21:30:57-04:00*%
%TF.ProjectId,tcg_counter,7463675f-636f-4756-9e74-65722e6b6963,1*%
%TF.SameCoordinates,Original*%
%TF.FileFunction,Legend,Bot*%
%TF.FilePolarity,Positive*%
%FSLAX46Y46*%
G04 Gerber Fmt 4.6, Leading zero omitted, Abs format (unit mm)*
G04 Created by KiCad (PCBNEW 8.0.5) date 2024-11-02 21:30:57*
%MOMM*%
%LPD*%
G01*
G04 APERTURE LIST*
%ADD10C,0.150000*%
%ADD11C,0.120000*%
G04 APERTURE END LIST*
D10*
X156858333Y-103649819D02*
X157191666Y-103173628D01*
X157429761Y-103649819D02*
X157429761Y-102649819D01*
X157429761Y-102649819D02*
X157048809Y-102649819D01*
X157048809Y-102649819D02*
X156953571Y-102697438D01*
X156953571Y-102697438D02*
X156905952Y-102745057D01*
X156905952Y-102745057D02*
X156858333Y-102840295D01*
X156858333Y-102840295D02*
X156858333Y-102983152D01*
X156858333Y-102983152D02*
X156905952Y-103078390D01*
X156905952Y-103078390D02*
X156953571Y-103126009D01*
X156953571Y-103126009D02*
X157048809Y-103173628D01*
X157048809Y-103173628D02*
X157429761Y-103173628D01*
X156429761Y-103126009D02*
X156096428Y-103126009D01*
X155953571Y-103649819D02*
X156429761Y-103649819D01*
X156429761Y-103649819D02*
X156429761Y-102649819D01*
X156429761Y-102649819D02*
X155953571Y-102649819D01*
X155191666Y-103126009D02*
X155524999Y-103126009D01*
X155524999Y-103649819D02*
X155524999Y-102649819D01*
X155524999Y-102649819D02*
X155048809Y-102649819D01*
X154524999Y-102649819D02*
X154524999Y-102887914D01*
X154763094Y-102792676D02*
X154524999Y-102887914D01*
X154524999Y-102887914D02*
X154286904Y-102792676D01*
X154667856Y-103078390D02*
X154524999Y-102887914D01*
X154524999Y-102887914D02*
X154382142Y-103078390D01*
X153763094Y-102649819D02*
X153763094Y-102887914D01*
X154001189Y-102792676D02*
X153763094Y-102887914D01*
X153763094Y-102887914D02*
X153524999Y-102792676D01*
X153905951Y-103078390D02*
X153763094Y-102887914D01*
X153763094Y-102887914D02*
X153620237Y-103078390D01*
X146858333Y-103649819D02*
X147191666Y-103173628D01*
X147429761Y-103649819D02*
X147429761Y-102649819D01*
X147429761Y-102649819D02*
X147048809Y-102649819D01*
X147048809Y-102649819D02*
X146953571Y-102697438D01*
X146953571Y-102697438D02*
X146905952Y-102745057D01*
X146905952Y-102745057D02*
X146858333Y-102840295D01*
X146858333Y-102840295D02*
X146858333Y-102983152D01*
X146858333Y-102983152D02*
X146905952Y-103078390D01*
X146905952Y-103078390D02*
X146953571Y-103126009D01*
X146953571Y-103126009D02*
X147048809Y-103173628D01*
X147048809Y-103173628D02*
X147429761Y-103173628D01*
X146429761Y-103126009D02*
X146096428Y-103126009D01*
X145953571Y-103649819D02*
X146429761Y-103649819D01*
X146429761Y-103649819D02*
X146429761Y-102649819D01*
X146429761Y-102649819D02*
X145953571Y-102649819D01*
X145191666Y-103126009D02*
X145524999Y-103126009D01*
X145524999Y-103649819D02*
X145524999Y-102649819D01*
X145524999Y-102649819D02*
X145048809Y-102649819D01*
X144524999Y-102649819D02*
X144524999Y-102887914D01*
X144763094Y-102792676D02*
X144524999Y-102887914D01*
X144524999Y-102887914D02*
X144286904Y-102792676D01*
X144667856Y-103078390D02*
X144524999Y-102887914D01*
X144524999Y-102887914D02*
X144382142Y-103078390D01*
X143763094Y-102649819D02*
X143763094Y-102887914D01*
X144001189Y-102792676D02*
X143763094Y-102887914D01*
X143763094Y-102887914D02*
X143524999Y-102792676D01*
X143905951Y-103078390D02*
X143763094Y-102887914D01*
X143763094Y-102887914D02*
X143620237Y-103078390D01*
D11*
%TO.C,REF\u002A\u002A*%
X153415000Y-104415000D02*
X153890000Y-104415000D01*
X153415000Y-104890000D02*
X153415000Y-104415000D01*
X153415000Y-108160000D02*
X153415000Y-108635000D01*
X153415000Y-108635000D02*
X153890000Y-108635000D01*
X157335000Y-104415000D02*
X157160000Y-104415000D01*
X157635000Y-104655000D02*
X157635000Y-104890000D01*
X157635000Y-108160000D02*
X157635000Y-108635000D01*
X157635000Y-108635000D02*
X157160000Y-108635000D01*
X157635000Y-104415000D02*
X157395000Y-104085000D01*
X157875000Y-104085000D01*
X157635000Y-104415000D01*
G36*
X157635000Y-104415000D02*
G01*
X157395000Y-104085000D01*
X157875000Y-104085000D01*
X157635000Y-104415000D01*
G37*
X143415000Y-104415000D02*
X143890000Y-104415000D01*
X143415000Y-104890000D02*
X143415000Y-104415000D01*
X143415000Y-108160000D02*
X143415000Y-108635000D01*
X143415000Y-108635000D02*
X143890000Y-108635000D01*
X147335000Y-104415000D02*
X147160000Y-104415000D01*
X147635000Y-104655000D02*
X147635000Y-104890000D01*
X147635000Y-108160000D02*
X147635000Y-108635000D01*
X147635000Y-108635000D02*
X147160000Y-108635000D01*
X147635000Y-104415000D02*
X147395000Y-104085000D01*
X147875000Y-104085000D01*
X147635000Y-104415000D01*
G36*
X147635000Y-104415000D02*
G01*
X147395000Y-104085000D01*
X147875000Y-104085000D01*
X147635000Y-104415000D01*
G37*
%TD*%
M02*
