%TF.GenerationSoftware,KiCad,Pcbnew,8.0.5*%
%TF.CreationDate,2025-04-05T14:36:40-04:00*%
%TF.ProjectId,tcg_counter,7463675f-636f-4756-9e74-65722e6b6963,1*%
%TF.SameCoordinates,Original*%
%TF.FileFunction,Legend,Bot*%
%TF.FilePolarity,Positive*%
%FSLAX46Y46*%
G04 Gerber Fmt 4.6, Leading zero omitted, Abs format (unit mm)*
G04 Created by KiCad (PCBNEW 8.0.5) date 2025-04-05 14:36:40*
%MOMM*%
%LPD*%
G01*
G04 APERTURE LIST*
%ADD10C,0.150000*%
%ADD11C,0.120000*%
%ADD12C,0.152400*%
%ADD13C,0.000000*%
G04 APERTURE END LIST*
D10*
X131164820Y-103238095D02*
X131974343Y-103238095D01*
X131974343Y-103238095D02*
X132069581Y-103285714D01*
X132069581Y-103285714D02*
X132117201Y-103333333D01*
X132117201Y-103333333D02*
X132164820Y-103428571D01*
X132164820Y-103428571D02*
X132164820Y-103619047D01*
X132164820Y-103619047D02*
X132117201Y-103714285D01*
X132117201Y-103714285D02*
X132069581Y-103761904D01*
X132069581Y-103761904D02*
X131974343Y-103809523D01*
X131974343Y-103809523D02*
X131164820Y-103809523D01*
X131164820Y-104190476D02*
X131164820Y-104809523D01*
X131164820Y-104809523D02*
X131545772Y-104476190D01*
X131545772Y-104476190D02*
X131545772Y-104619047D01*
X131545772Y-104619047D02*
X131593391Y-104714285D01*
X131593391Y-104714285D02*
X131641010Y-104761904D01*
X131641010Y-104761904D02*
X131736248Y-104809523D01*
X131736248Y-104809523D02*
X131974343Y-104809523D01*
X131974343Y-104809523D02*
X132069581Y-104761904D01*
X132069581Y-104761904D02*
X132117201Y-104714285D01*
X132117201Y-104714285D02*
X132164820Y-104619047D01*
X132164820Y-104619047D02*
X132164820Y-104333333D01*
X132164820Y-104333333D02*
X132117201Y-104238095D01*
X132117201Y-104238095D02*
X132069581Y-104190476D01*
X134436666Y-100199580D02*
X134484285Y-100247200D01*
X134484285Y-100247200D02*
X134627142Y-100294819D01*
X134627142Y-100294819D02*
X134722380Y-100294819D01*
X134722380Y-100294819D02*
X134865237Y-100247200D01*
X134865237Y-100247200D02*
X134960475Y-100151961D01*
X134960475Y-100151961D02*
X135008094Y-100056723D01*
X135008094Y-100056723D02*
X135055713Y-99866247D01*
X135055713Y-99866247D02*
X135055713Y-99723390D01*
X135055713Y-99723390D02*
X135008094Y-99532914D01*
X135008094Y-99532914D02*
X134960475Y-99437676D01*
X134960475Y-99437676D02*
X134865237Y-99342438D01*
X134865237Y-99342438D02*
X134722380Y-99294819D01*
X134722380Y-99294819D02*
X134627142Y-99294819D01*
X134627142Y-99294819D02*
X134484285Y-99342438D01*
X134484285Y-99342438D02*
X134436666Y-99390057D01*
X134055713Y-99390057D02*
X134008094Y-99342438D01*
X134008094Y-99342438D02*
X133912856Y-99294819D01*
X133912856Y-99294819D02*
X133674761Y-99294819D01*
X133674761Y-99294819D02*
X133579523Y-99342438D01*
X133579523Y-99342438D02*
X133531904Y-99390057D01*
X133531904Y-99390057D02*
X133484285Y-99485295D01*
X133484285Y-99485295D02*
X133484285Y-99580533D01*
X133484285Y-99580533D02*
X133531904Y-99723390D01*
X133531904Y-99723390D02*
X134103332Y-100294819D01*
X134103332Y-100294819D02*
X133484285Y-100294819D01*
X140284819Y-101573333D02*
X139808628Y-101240000D01*
X140284819Y-101001905D02*
X139284819Y-101001905D01*
X139284819Y-101001905D02*
X139284819Y-101382857D01*
X139284819Y-101382857D02*
X139332438Y-101478095D01*
X139332438Y-101478095D02*
X139380057Y-101525714D01*
X139380057Y-101525714D02*
X139475295Y-101573333D01*
X139475295Y-101573333D02*
X139618152Y-101573333D01*
X139618152Y-101573333D02*
X139713390Y-101525714D01*
X139713390Y-101525714D02*
X139761009Y-101478095D01*
X139761009Y-101478095D02*
X139808628Y-101382857D01*
X139808628Y-101382857D02*
X139808628Y-101001905D01*
X139284819Y-102478095D02*
X139284819Y-102001905D01*
X139284819Y-102001905D02*
X139761009Y-101954286D01*
X139761009Y-101954286D02*
X139713390Y-102001905D01*
X139713390Y-102001905D02*
X139665771Y-102097143D01*
X139665771Y-102097143D02*
X139665771Y-102335238D01*
X139665771Y-102335238D02*
X139713390Y-102430476D01*
X139713390Y-102430476D02*
X139761009Y-102478095D01*
X139761009Y-102478095D02*
X139856247Y-102525714D01*
X139856247Y-102525714D02*
X140094342Y-102525714D01*
X140094342Y-102525714D02*
X140189580Y-102478095D01*
X140189580Y-102478095D02*
X140237200Y-102430476D01*
X140237200Y-102430476D02*
X140284819Y-102335238D01*
X140284819Y-102335238D02*
X140284819Y-102097143D01*
X140284819Y-102097143D02*
X140237200Y-102001905D01*
X140237200Y-102001905D02*
X140189580Y-101954286D01*
X131034819Y-107818333D02*
X130558628Y-107485000D01*
X131034819Y-107246905D02*
X130034819Y-107246905D01*
X130034819Y-107246905D02*
X130034819Y-107627857D01*
X130034819Y-107627857D02*
X130082438Y-107723095D01*
X130082438Y-107723095D02*
X130130057Y-107770714D01*
X130130057Y-107770714D02*
X130225295Y-107818333D01*
X130225295Y-107818333D02*
X130368152Y-107818333D01*
X130368152Y-107818333D02*
X130463390Y-107770714D01*
X130463390Y-107770714D02*
X130511009Y-107723095D01*
X130511009Y-107723095D02*
X130558628Y-107627857D01*
X130558628Y-107627857D02*
X130558628Y-107246905D01*
X130130057Y-108199286D02*
X130082438Y-108246905D01*
X130082438Y-108246905D02*
X130034819Y-108342143D01*
X130034819Y-108342143D02*
X130034819Y-108580238D01*
X130034819Y-108580238D02*
X130082438Y-108675476D01*
X130082438Y-108675476D02*
X130130057Y-108723095D01*
X130130057Y-108723095D02*
X130225295Y-108770714D01*
X130225295Y-108770714D02*
X130320533Y-108770714D01*
X130320533Y-108770714D02*
X130463390Y-108723095D01*
X130463390Y-108723095D02*
X131034819Y-108151667D01*
X131034819Y-108151667D02*
X131034819Y-108770714D01*
X139769580Y-98833333D02*
X139817200Y-98785714D01*
X139817200Y-98785714D02*
X139864819Y-98642857D01*
X139864819Y-98642857D02*
X139864819Y-98547619D01*
X139864819Y-98547619D02*
X139817200Y-98404762D01*
X139817200Y-98404762D02*
X139721961Y-98309524D01*
X139721961Y-98309524D02*
X139626723Y-98261905D01*
X139626723Y-98261905D02*
X139436247Y-98214286D01*
X139436247Y-98214286D02*
X139293390Y-98214286D01*
X139293390Y-98214286D02*
X139102914Y-98261905D01*
X139102914Y-98261905D02*
X139007676Y-98309524D01*
X139007676Y-98309524D02*
X138912438Y-98404762D01*
X138912438Y-98404762D02*
X138864819Y-98547619D01*
X138864819Y-98547619D02*
X138864819Y-98642857D01*
X138864819Y-98642857D02*
X138912438Y-98785714D01*
X138912438Y-98785714D02*
X138960057Y-98833333D01*
X138864819Y-99738095D02*
X138864819Y-99261905D01*
X138864819Y-99261905D02*
X139341009Y-99214286D01*
X139341009Y-99214286D02*
X139293390Y-99261905D01*
X139293390Y-99261905D02*
X139245771Y-99357143D01*
X139245771Y-99357143D02*
X139245771Y-99595238D01*
X139245771Y-99595238D02*
X139293390Y-99690476D01*
X139293390Y-99690476D02*
X139341009Y-99738095D01*
X139341009Y-99738095D02*
X139436247Y-99785714D01*
X139436247Y-99785714D02*
X139674342Y-99785714D01*
X139674342Y-99785714D02*
X139769580Y-99738095D01*
X139769580Y-99738095D02*
X139817200Y-99690476D01*
X139817200Y-99690476D02*
X139864819Y-99595238D01*
X139864819Y-99595238D02*
X139864819Y-99357143D01*
X139864819Y-99357143D02*
X139817200Y-99261905D01*
X139817200Y-99261905D02*
X139769580Y-99214286D01*
X119646666Y-106199580D02*
X119694285Y-106247200D01*
X119694285Y-106247200D02*
X119837142Y-106294819D01*
X119837142Y-106294819D02*
X119932380Y-106294819D01*
X119932380Y-106294819D02*
X120075237Y-106247200D01*
X120075237Y-106247200D02*
X120170475Y-106151961D01*
X120170475Y-106151961D02*
X120218094Y-106056723D01*
X120218094Y-106056723D02*
X120265713Y-105866247D01*
X120265713Y-105866247D02*
X120265713Y-105723390D01*
X120265713Y-105723390D02*
X120218094Y-105532914D01*
X120218094Y-105532914D02*
X120170475Y-105437676D01*
X120170475Y-105437676D02*
X120075237Y-105342438D01*
X120075237Y-105342438D02*
X119932380Y-105294819D01*
X119932380Y-105294819D02*
X119837142Y-105294819D01*
X119837142Y-105294819D02*
X119694285Y-105342438D01*
X119694285Y-105342438D02*
X119646666Y-105390057D01*
X119170475Y-106294819D02*
X118979999Y-106294819D01*
X118979999Y-106294819D02*
X118884761Y-106247200D01*
X118884761Y-106247200D02*
X118837142Y-106199580D01*
X118837142Y-106199580D02*
X118741904Y-106056723D01*
X118741904Y-106056723D02*
X118694285Y-105866247D01*
X118694285Y-105866247D02*
X118694285Y-105485295D01*
X118694285Y-105485295D02*
X118741904Y-105390057D01*
X118741904Y-105390057D02*
X118789523Y-105342438D01*
X118789523Y-105342438D02*
X118884761Y-105294819D01*
X118884761Y-105294819D02*
X119075237Y-105294819D01*
X119075237Y-105294819D02*
X119170475Y-105342438D01*
X119170475Y-105342438D02*
X119218094Y-105390057D01*
X119218094Y-105390057D02*
X119265713Y-105485295D01*
X119265713Y-105485295D02*
X119265713Y-105723390D01*
X119265713Y-105723390D02*
X119218094Y-105818628D01*
X119218094Y-105818628D02*
X119170475Y-105866247D01*
X119170475Y-105866247D02*
X119075237Y-105913866D01*
X119075237Y-105913866D02*
X118884761Y-105913866D01*
X118884761Y-105913866D02*
X118789523Y-105866247D01*
X118789523Y-105866247D02*
X118741904Y-105818628D01*
X118741904Y-105818628D02*
X118694285Y-105723390D01*
X161284819Y-101348333D02*
X160808628Y-101015000D01*
X161284819Y-100776905D02*
X160284819Y-100776905D01*
X160284819Y-100776905D02*
X160284819Y-101157857D01*
X160284819Y-101157857D02*
X160332438Y-101253095D01*
X160332438Y-101253095D02*
X160380057Y-101300714D01*
X160380057Y-101300714D02*
X160475295Y-101348333D01*
X160475295Y-101348333D02*
X160618152Y-101348333D01*
X160618152Y-101348333D02*
X160713390Y-101300714D01*
X160713390Y-101300714D02*
X160761009Y-101253095D01*
X160761009Y-101253095D02*
X160808628Y-101157857D01*
X160808628Y-101157857D02*
X160808628Y-100776905D01*
X160284819Y-101681667D02*
X160284819Y-102300714D01*
X160284819Y-102300714D02*
X160665771Y-101967381D01*
X160665771Y-101967381D02*
X160665771Y-102110238D01*
X160665771Y-102110238D02*
X160713390Y-102205476D01*
X160713390Y-102205476D02*
X160761009Y-102253095D01*
X160761009Y-102253095D02*
X160856247Y-102300714D01*
X160856247Y-102300714D02*
X161094342Y-102300714D01*
X161094342Y-102300714D02*
X161189580Y-102253095D01*
X161189580Y-102253095D02*
X161237200Y-102205476D01*
X161237200Y-102205476D02*
X161284819Y-102110238D01*
X161284819Y-102110238D02*
X161284819Y-101824524D01*
X161284819Y-101824524D02*
X161237200Y-101729286D01*
X161237200Y-101729286D02*
X161189580Y-101681667D01*
X139444819Y-101573333D02*
X138968628Y-101240000D01*
X139444819Y-101001905D02*
X138444819Y-101001905D01*
X138444819Y-101001905D02*
X138444819Y-101382857D01*
X138444819Y-101382857D02*
X138492438Y-101478095D01*
X138492438Y-101478095D02*
X138540057Y-101525714D01*
X138540057Y-101525714D02*
X138635295Y-101573333D01*
X138635295Y-101573333D02*
X138778152Y-101573333D01*
X138778152Y-101573333D02*
X138873390Y-101525714D01*
X138873390Y-101525714D02*
X138921009Y-101478095D01*
X138921009Y-101478095D02*
X138968628Y-101382857D01*
X138968628Y-101382857D02*
X138968628Y-101001905D01*
X138778152Y-102430476D02*
X139444819Y-102430476D01*
X138397200Y-102192381D02*
X139111485Y-101954286D01*
X139111485Y-101954286D02*
X139111485Y-102573333D01*
X136416666Y-101019580D02*
X136464285Y-101067200D01*
X136464285Y-101067200D02*
X136607142Y-101114819D01*
X136607142Y-101114819D02*
X136702380Y-101114819D01*
X136702380Y-101114819D02*
X136845237Y-101067200D01*
X136845237Y-101067200D02*
X136940475Y-100971961D01*
X136940475Y-100971961D02*
X136988094Y-100876723D01*
X136988094Y-100876723D02*
X137035713Y-100686247D01*
X137035713Y-100686247D02*
X137035713Y-100543390D01*
X137035713Y-100543390D02*
X136988094Y-100352914D01*
X136988094Y-100352914D02*
X136940475Y-100257676D01*
X136940475Y-100257676D02*
X136845237Y-100162438D01*
X136845237Y-100162438D02*
X136702380Y-100114819D01*
X136702380Y-100114819D02*
X136607142Y-100114819D01*
X136607142Y-100114819D02*
X136464285Y-100162438D01*
X136464285Y-100162438D02*
X136416666Y-100210057D01*
X136083332Y-100114819D02*
X135416666Y-100114819D01*
X135416666Y-100114819D02*
X135845237Y-101114819D01*
X130146666Y-101199580D02*
X130194285Y-101247200D01*
X130194285Y-101247200D02*
X130337142Y-101294819D01*
X130337142Y-101294819D02*
X130432380Y-101294819D01*
X130432380Y-101294819D02*
X130575237Y-101247200D01*
X130575237Y-101247200D02*
X130670475Y-101151961D01*
X130670475Y-101151961D02*
X130718094Y-101056723D01*
X130718094Y-101056723D02*
X130765713Y-100866247D01*
X130765713Y-100866247D02*
X130765713Y-100723390D01*
X130765713Y-100723390D02*
X130718094Y-100532914D01*
X130718094Y-100532914D02*
X130670475Y-100437676D01*
X130670475Y-100437676D02*
X130575237Y-100342438D01*
X130575237Y-100342438D02*
X130432380Y-100294819D01*
X130432380Y-100294819D02*
X130337142Y-100294819D01*
X130337142Y-100294819D02*
X130194285Y-100342438D01*
X130194285Y-100342438D02*
X130146666Y-100390057D01*
X129813332Y-100294819D02*
X129194285Y-100294819D01*
X129194285Y-100294819D02*
X129527618Y-100675771D01*
X129527618Y-100675771D02*
X129384761Y-100675771D01*
X129384761Y-100675771D02*
X129289523Y-100723390D01*
X129289523Y-100723390D02*
X129241904Y-100771009D01*
X129241904Y-100771009D02*
X129194285Y-100866247D01*
X129194285Y-100866247D02*
X129194285Y-101104342D01*
X129194285Y-101104342D02*
X129241904Y-101199580D01*
X129241904Y-101199580D02*
X129289523Y-101247200D01*
X129289523Y-101247200D02*
X129384761Y-101294819D01*
X129384761Y-101294819D02*
X129670475Y-101294819D01*
X129670475Y-101294819D02*
X129765713Y-101247200D01*
X129765713Y-101247200D02*
X129813332Y-101199580D01*
X151761904Y-100704819D02*
X151761904Y-101514342D01*
X151761904Y-101514342D02*
X151714285Y-101609580D01*
X151714285Y-101609580D02*
X151666666Y-101657200D01*
X151666666Y-101657200D02*
X151571428Y-101704819D01*
X151571428Y-101704819D02*
X151380952Y-101704819D01*
X151380952Y-101704819D02*
X151285714Y-101657200D01*
X151285714Y-101657200D02*
X151238095Y-101609580D01*
X151238095Y-101609580D02*
X151190476Y-101514342D01*
X151190476Y-101514342D02*
X151190476Y-100704819D01*
X150190476Y-101704819D02*
X150761904Y-101704819D01*
X150476190Y-101704819D02*
X150476190Y-100704819D01*
X150476190Y-100704819D02*
X150571428Y-100847676D01*
X150571428Y-100847676D02*
X150666666Y-100942914D01*
X150666666Y-100942914D02*
X150761904Y-100990533D01*
X149859580Y-98607142D02*
X149907200Y-98559523D01*
X149907200Y-98559523D02*
X149954819Y-98416666D01*
X149954819Y-98416666D02*
X149954819Y-98321428D01*
X149954819Y-98321428D02*
X149907200Y-98178571D01*
X149907200Y-98178571D02*
X149811961Y-98083333D01*
X149811961Y-98083333D02*
X149716723Y-98035714D01*
X149716723Y-98035714D02*
X149526247Y-97988095D01*
X149526247Y-97988095D02*
X149383390Y-97988095D01*
X149383390Y-97988095D02*
X149192914Y-98035714D01*
X149192914Y-98035714D02*
X149097676Y-98083333D01*
X149097676Y-98083333D02*
X149002438Y-98178571D01*
X149002438Y-98178571D02*
X148954819Y-98321428D01*
X148954819Y-98321428D02*
X148954819Y-98416666D01*
X148954819Y-98416666D02*
X149002438Y-98559523D01*
X149002438Y-98559523D02*
X149050057Y-98607142D01*
X149954819Y-99559523D02*
X149954819Y-98988095D01*
X149954819Y-99273809D02*
X148954819Y-99273809D01*
X148954819Y-99273809D02*
X149097676Y-99178571D01*
X149097676Y-99178571D02*
X149192914Y-99083333D01*
X149192914Y-99083333D02*
X149240533Y-98988095D01*
X149954819Y-100511904D02*
X149954819Y-99940476D01*
X149954819Y-100226190D02*
X148954819Y-100226190D01*
X148954819Y-100226190D02*
X149097676Y-100130952D01*
X149097676Y-100130952D02*
X149192914Y-100035714D01*
X149192914Y-100035714D02*
X149240533Y-99940476D01*
X134166666Y-98769580D02*
X134214285Y-98817200D01*
X134214285Y-98817200D02*
X134357142Y-98864819D01*
X134357142Y-98864819D02*
X134452380Y-98864819D01*
X134452380Y-98864819D02*
X134595237Y-98817200D01*
X134595237Y-98817200D02*
X134690475Y-98721961D01*
X134690475Y-98721961D02*
X134738094Y-98626723D01*
X134738094Y-98626723D02*
X134785713Y-98436247D01*
X134785713Y-98436247D02*
X134785713Y-98293390D01*
X134785713Y-98293390D02*
X134738094Y-98102914D01*
X134738094Y-98102914D02*
X134690475Y-98007676D01*
X134690475Y-98007676D02*
X134595237Y-97912438D01*
X134595237Y-97912438D02*
X134452380Y-97864819D01*
X134452380Y-97864819D02*
X134357142Y-97864819D01*
X134357142Y-97864819D02*
X134214285Y-97912438D01*
X134214285Y-97912438D02*
X134166666Y-97960057D01*
X133595237Y-98293390D02*
X133690475Y-98245771D01*
X133690475Y-98245771D02*
X133738094Y-98198152D01*
X133738094Y-98198152D02*
X133785713Y-98102914D01*
X133785713Y-98102914D02*
X133785713Y-98055295D01*
X133785713Y-98055295D02*
X133738094Y-97960057D01*
X133738094Y-97960057D02*
X133690475Y-97912438D01*
X133690475Y-97912438D02*
X133595237Y-97864819D01*
X133595237Y-97864819D02*
X133404761Y-97864819D01*
X133404761Y-97864819D02*
X133309523Y-97912438D01*
X133309523Y-97912438D02*
X133261904Y-97960057D01*
X133261904Y-97960057D02*
X133214285Y-98055295D01*
X133214285Y-98055295D02*
X133214285Y-98102914D01*
X133214285Y-98102914D02*
X133261904Y-98198152D01*
X133261904Y-98198152D02*
X133309523Y-98245771D01*
X133309523Y-98245771D02*
X133404761Y-98293390D01*
X133404761Y-98293390D02*
X133595237Y-98293390D01*
X133595237Y-98293390D02*
X133690475Y-98341009D01*
X133690475Y-98341009D02*
X133738094Y-98388628D01*
X133738094Y-98388628D02*
X133785713Y-98483866D01*
X133785713Y-98483866D02*
X133785713Y-98674342D01*
X133785713Y-98674342D02*
X133738094Y-98769580D01*
X133738094Y-98769580D02*
X133690475Y-98817200D01*
X133690475Y-98817200D02*
X133595237Y-98864819D01*
X133595237Y-98864819D02*
X133404761Y-98864819D01*
X133404761Y-98864819D02*
X133309523Y-98817200D01*
X133309523Y-98817200D02*
X133261904Y-98769580D01*
X133261904Y-98769580D02*
X133214285Y-98674342D01*
X133214285Y-98674342D02*
X133214285Y-98483866D01*
X133214285Y-98483866D02*
X133261904Y-98388628D01*
X133261904Y-98388628D02*
X133309523Y-98341009D01*
X133309523Y-98341009D02*
X133404761Y-98293390D01*
X141416666Y-107784819D02*
X141749999Y-107308628D01*
X141988094Y-107784819D02*
X141988094Y-106784819D01*
X141988094Y-106784819D02*
X141607142Y-106784819D01*
X141607142Y-106784819D02*
X141511904Y-106832438D01*
X141511904Y-106832438D02*
X141464285Y-106880057D01*
X141464285Y-106880057D02*
X141416666Y-106975295D01*
X141416666Y-106975295D02*
X141416666Y-107118152D01*
X141416666Y-107118152D02*
X141464285Y-107213390D01*
X141464285Y-107213390D02*
X141511904Y-107261009D01*
X141511904Y-107261009D02*
X141607142Y-107308628D01*
X141607142Y-107308628D02*
X141988094Y-107308628D01*
X140464285Y-107784819D02*
X141035713Y-107784819D01*
X140749999Y-107784819D02*
X140749999Y-106784819D01*
X140749999Y-106784819D02*
X140845237Y-106927676D01*
X140845237Y-106927676D02*
X140940475Y-107022914D01*
X140940475Y-107022914D02*
X141035713Y-107070533D01*
X130146666Y-103199580D02*
X130194285Y-103247200D01*
X130194285Y-103247200D02*
X130337142Y-103294819D01*
X130337142Y-103294819D02*
X130432380Y-103294819D01*
X130432380Y-103294819D02*
X130575237Y-103247200D01*
X130575237Y-103247200D02*
X130670475Y-103151961D01*
X130670475Y-103151961D02*
X130718094Y-103056723D01*
X130718094Y-103056723D02*
X130765713Y-102866247D01*
X130765713Y-102866247D02*
X130765713Y-102723390D01*
X130765713Y-102723390D02*
X130718094Y-102532914D01*
X130718094Y-102532914D02*
X130670475Y-102437676D01*
X130670475Y-102437676D02*
X130575237Y-102342438D01*
X130575237Y-102342438D02*
X130432380Y-102294819D01*
X130432380Y-102294819D02*
X130337142Y-102294819D01*
X130337142Y-102294819D02*
X130194285Y-102342438D01*
X130194285Y-102342438D02*
X130146666Y-102390057D01*
X129289523Y-102628152D02*
X129289523Y-103294819D01*
X129527618Y-102247200D02*
X129765713Y-102961485D01*
X129765713Y-102961485D02*
X129146666Y-102961485D01*
X146359580Y-98607142D02*
X146407200Y-98559523D01*
X146407200Y-98559523D02*
X146454819Y-98416666D01*
X146454819Y-98416666D02*
X146454819Y-98321428D01*
X146454819Y-98321428D02*
X146407200Y-98178571D01*
X146407200Y-98178571D02*
X146311961Y-98083333D01*
X146311961Y-98083333D02*
X146216723Y-98035714D01*
X146216723Y-98035714D02*
X146026247Y-97988095D01*
X146026247Y-97988095D02*
X145883390Y-97988095D01*
X145883390Y-97988095D02*
X145692914Y-98035714D01*
X145692914Y-98035714D02*
X145597676Y-98083333D01*
X145597676Y-98083333D02*
X145502438Y-98178571D01*
X145502438Y-98178571D02*
X145454819Y-98321428D01*
X145454819Y-98321428D02*
X145454819Y-98416666D01*
X145454819Y-98416666D02*
X145502438Y-98559523D01*
X145502438Y-98559523D02*
X145550057Y-98607142D01*
X146454819Y-99559523D02*
X146454819Y-98988095D01*
X146454819Y-99273809D02*
X145454819Y-99273809D01*
X145454819Y-99273809D02*
X145597676Y-99178571D01*
X145597676Y-99178571D02*
X145692914Y-99083333D01*
X145692914Y-99083333D02*
X145740533Y-98988095D01*
X145550057Y-99940476D02*
X145502438Y-99988095D01*
X145502438Y-99988095D02*
X145454819Y-100083333D01*
X145454819Y-100083333D02*
X145454819Y-100321428D01*
X145454819Y-100321428D02*
X145502438Y-100416666D01*
X145502438Y-100416666D02*
X145550057Y-100464285D01*
X145550057Y-100464285D02*
X145645295Y-100511904D01*
X145645295Y-100511904D02*
X145740533Y-100511904D01*
X145740533Y-100511904D02*
X145883390Y-100464285D01*
X145883390Y-100464285D02*
X146454819Y-99892857D01*
X146454819Y-99892857D02*
X146454819Y-100511904D01*
X134642857Y-101019580D02*
X134690476Y-101067200D01*
X134690476Y-101067200D02*
X134833333Y-101114819D01*
X134833333Y-101114819D02*
X134928571Y-101114819D01*
X134928571Y-101114819D02*
X135071428Y-101067200D01*
X135071428Y-101067200D02*
X135166666Y-100971961D01*
X135166666Y-100971961D02*
X135214285Y-100876723D01*
X135214285Y-100876723D02*
X135261904Y-100686247D01*
X135261904Y-100686247D02*
X135261904Y-100543390D01*
X135261904Y-100543390D02*
X135214285Y-100352914D01*
X135214285Y-100352914D02*
X135166666Y-100257676D01*
X135166666Y-100257676D02*
X135071428Y-100162438D01*
X135071428Y-100162438D02*
X134928571Y-100114819D01*
X134928571Y-100114819D02*
X134833333Y-100114819D01*
X134833333Y-100114819D02*
X134690476Y-100162438D01*
X134690476Y-100162438D02*
X134642857Y-100210057D01*
X133690476Y-101114819D02*
X134261904Y-101114819D01*
X133976190Y-101114819D02*
X133976190Y-100114819D01*
X133976190Y-100114819D02*
X134071428Y-100257676D01*
X134071428Y-100257676D02*
X134166666Y-100352914D01*
X134166666Y-100352914D02*
X134261904Y-100400533D01*
X133071428Y-100114819D02*
X132976190Y-100114819D01*
X132976190Y-100114819D02*
X132880952Y-100162438D01*
X132880952Y-100162438D02*
X132833333Y-100210057D01*
X132833333Y-100210057D02*
X132785714Y-100305295D01*
X132785714Y-100305295D02*
X132738095Y-100495771D01*
X132738095Y-100495771D02*
X132738095Y-100733866D01*
X132738095Y-100733866D02*
X132785714Y-100924342D01*
X132785714Y-100924342D02*
X132833333Y-101019580D01*
X132833333Y-101019580D02*
X132880952Y-101067200D01*
X132880952Y-101067200D02*
X132976190Y-101114819D01*
X132976190Y-101114819D02*
X133071428Y-101114819D01*
X133071428Y-101114819D02*
X133166666Y-101067200D01*
X133166666Y-101067200D02*
X133214285Y-101019580D01*
X133214285Y-101019580D02*
X133261904Y-100924342D01*
X133261904Y-100924342D02*
X133309523Y-100733866D01*
X133309523Y-100733866D02*
X133309523Y-100495771D01*
X133309523Y-100495771D02*
X133261904Y-100305295D01*
X133261904Y-100305295D02*
X133214285Y-100210057D01*
X133214285Y-100210057D02*
X133166666Y-100162438D01*
X133166666Y-100162438D02*
X133071428Y-100114819D01*
X130186666Y-97349580D02*
X130234285Y-97397200D01*
X130234285Y-97397200D02*
X130377142Y-97444819D01*
X130377142Y-97444819D02*
X130472380Y-97444819D01*
X130472380Y-97444819D02*
X130615237Y-97397200D01*
X130615237Y-97397200D02*
X130710475Y-97301961D01*
X130710475Y-97301961D02*
X130758094Y-97206723D01*
X130758094Y-97206723D02*
X130805713Y-97016247D01*
X130805713Y-97016247D02*
X130805713Y-96873390D01*
X130805713Y-96873390D02*
X130758094Y-96682914D01*
X130758094Y-96682914D02*
X130710475Y-96587676D01*
X130710475Y-96587676D02*
X130615237Y-96492438D01*
X130615237Y-96492438D02*
X130472380Y-96444819D01*
X130472380Y-96444819D02*
X130377142Y-96444819D01*
X130377142Y-96444819D02*
X130234285Y-96492438D01*
X130234285Y-96492438D02*
X130186666Y-96540057D01*
X129234285Y-97444819D02*
X129805713Y-97444819D01*
X129519999Y-97444819D02*
X129519999Y-96444819D01*
X129519999Y-96444819D02*
X129615237Y-96587676D01*
X129615237Y-96587676D02*
X129710475Y-96682914D01*
X129710475Y-96682914D02*
X129805713Y-96730533D01*
X129646666Y-109199580D02*
X129694285Y-109247200D01*
X129694285Y-109247200D02*
X129837142Y-109294819D01*
X129837142Y-109294819D02*
X129932380Y-109294819D01*
X129932380Y-109294819D02*
X130075237Y-109247200D01*
X130075237Y-109247200D02*
X130170475Y-109151961D01*
X130170475Y-109151961D02*
X130218094Y-109056723D01*
X130218094Y-109056723D02*
X130265713Y-108866247D01*
X130265713Y-108866247D02*
X130265713Y-108723390D01*
X130265713Y-108723390D02*
X130218094Y-108532914D01*
X130218094Y-108532914D02*
X130170475Y-108437676D01*
X130170475Y-108437676D02*
X130075237Y-108342438D01*
X130075237Y-108342438D02*
X129932380Y-108294819D01*
X129932380Y-108294819D02*
X129837142Y-108294819D01*
X129837142Y-108294819D02*
X129694285Y-108342438D01*
X129694285Y-108342438D02*
X129646666Y-108390057D01*
X128789523Y-108294819D02*
X128979999Y-108294819D01*
X128979999Y-108294819D02*
X129075237Y-108342438D01*
X129075237Y-108342438D02*
X129122856Y-108390057D01*
X129122856Y-108390057D02*
X129218094Y-108532914D01*
X129218094Y-108532914D02*
X129265713Y-108723390D01*
X129265713Y-108723390D02*
X129265713Y-109104342D01*
X129265713Y-109104342D02*
X129218094Y-109199580D01*
X129218094Y-109199580D02*
X129170475Y-109247200D01*
X129170475Y-109247200D02*
X129075237Y-109294819D01*
X129075237Y-109294819D02*
X128884761Y-109294819D01*
X128884761Y-109294819D02*
X128789523Y-109247200D01*
X128789523Y-109247200D02*
X128741904Y-109199580D01*
X128741904Y-109199580D02*
X128694285Y-109104342D01*
X128694285Y-109104342D02*
X128694285Y-108866247D01*
X128694285Y-108866247D02*
X128741904Y-108771009D01*
X128741904Y-108771009D02*
X128789523Y-108723390D01*
X128789523Y-108723390D02*
X128884761Y-108675771D01*
X128884761Y-108675771D02*
X129075237Y-108675771D01*
X129075237Y-108675771D02*
X129170475Y-108723390D01*
X129170475Y-108723390D02*
X129218094Y-108771009D01*
X129218094Y-108771009D02*
X129265713Y-108866247D01*
D11*
%TO.C,P1*%
X136030000Y-124095000D02*
X146970000Y-124095000D01*
X136030000Y-129175000D02*
X136030000Y-124095000D01*
X146970000Y-124095000D02*
X146970000Y-129175000D01*
X146970000Y-129175000D02*
X136030000Y-129175000D01*
D12*
%TO.C,U3*%
X132875002Y-101775001D02*
X133500002Y-101775001D01*
X132875002Y-102400001D02*
X132875002Y-101775001D01*
X132875002Y-106224999D02*
X132875002Y-106000001D01*
X132875002Y-106224999D02*
X133100000Y-106224999D01*
X137100002Y-101775001D02*
X137325000Y-101775001D01*
X137100002Y-106224999D02*
X137325000Y-106224999D01*
X137325000Y-101999999D02*
X137325000Y-101775001D01*
X137325000Y-106224999D02*
X137325000Y-106000001D01*
D11*
%TO.C,C2*%
X131662164Y-100640000D02*
X131877836Y-100640000D01*
X131662164Y-101360000D02*
X131877836Y-101360000D01*
%TO.C,R5*%
X140620000Y-101893641D02*
X140620000Y-101586359D01*
X141380000Y-101893641D02*
X141380000Y-101586359D01*
%TO.C,C5*%
X138610000Y-98892164D02*
X138610000Y-99107836D01*
X137890000Y-98892164D02*
X137890000Y-99107836D01*
%TO.C,C9*%
X119372164Y-106640000D02*
X119587836Y-106640000D01*
X119372164Y-107360000D02*
X119587836Y-107360000D01*
%TO.C,R4*%
X139620000Y-101893641D02*
X139620000Y-101586359D01*
X140380000Y-101893641D02*
X140380000Y-101586359D01*
%TO.C,C7*%
X136357836Y-99860000D02*
X136142164Y-99860000D01*
X136357836Y-99140000D02*
X136142164Y-99140000D01*
%TO.C,C3*%
X129872164Y-101640000D02*
X130087836Y-101640000D01*
X129872164Y-102360000D02*
X130087836Y-102360000D01*
D12*
%TO.C,U1*%
X145578301Y-101720600D02*
X145578301Y-102182560D01*
X145578301Y-105602040D02*
X145578301Y-106064000D01*
X145578301Y-106064000D02*
X146040261Y-106064000D01*
X146040261Y-101720600D02*
X145578301Y-101720600D01*
X149459741Y-106064000D02*
X149921701Y-106064000D01*
X149921701Y-101720600D02*
X149459741Y-101720600D01*
X149921701Y-102182560D02*
X149921701Y-101720600D01*
X149921701Y-106064000D02*
X149921701Y-105602040D01*
D13*
G36*
X147190500Y-101390400D02*
G01*
X146809500Y-101390400D01*
X146809500Y-101136400D01*
X147190500Y-101136400D01*
X147190500Y-101390400D01*
G37*
G36*
X147690502Y-106648200D02*
G01*
X147309501Y-106648200D01*
X147309501Y-106394200D01*
X147690502Y-106394200D01*
X147690502Y-106648200D01*
G37*
D11*
%TO.C,C11*%
X147890000Y-99162164D02*
X147890000Y-99377836D01*
X148610000Y-99162164D02*
X148610000Y-99377836D01*
%TO.C,C8*%
X134107836Y-96890000D02*
X133892164Y-96890000D01*
X134107836Y-97610000D02*
X133892164Y-97610000D01*
%TO.C,R1*%
X141096359Y-108120000D02*
X141403641Y-108120000D01*
X141096359Y-108880000D02*
X141403641Y-108880000D01*
%TO.C,C4*%
X129872164Y-103640000D02*
X130087836Y-103640000D01*
X129872164Y-104360000D02*
X130087836Y-104360000D01*
%TO.C,C12*%
X146890000Y-99162164D02*
X146890000Y-99377836D01*
X147610000Y-99162164D02*
X147610000Y-99377836D01*
%TO.C,C10*%
X134107836Y-99140000D02*
X133892164Y-99140000D01*
X134107836Y-99860000D02*
X133892164Y-99860000D01*
%TO.C,C1*%
X129412164Y-98640000D02*
X129627836Y-98640000D01*
X129412164Y-99360000D02*
X129627836Y-99360000D01*
%TO.C,C6*%
X129372164Y-109640000D02*
X129587836Y-109640000D01*
X129372164Y-110360000D02*
X129587836Y-110360000D01*
%TD*%
M02*
