%TF.GenerationSoftware,KiCad,Pcbnew,8.0.5*%
%TF.CreationDate,2025-04-05T14:36:40-04:00*%
%TF.ProjectId,tcg_counter,7463675f-636f-4756-9e74-65722e6b6963,1*%
%TF.SameCoordinates,Original*%
%TF.FileFunction,Paste,Bot*%
%TF.FilePolarity,Positive*%
%FSLAX46Y46*%
G04 Gerber Fmt 4.6, Leading zero omitted, Abs format (unit mm)*
G04 Created by KiCad (PCBNEW 8.0.5) date 2025-04-05 14:36:40*
%MOMM*%
%LPD*%
G01*
G04 APERTURE LIST*
G04 Aperture macros list*
%AMRoundRect*
0 Rectangle with rounded corners*
0 $1 Rounding radius*
0 $2 $3 $4 $5 $6 $7 $8 $9 X,Y pos of 4 corners*
0 Add a 4 corners polygon primitive as box body*
4,1,4,$2,$3,$4,$5,$6,$7,$8,$9,$2,$3,0*
0 Add four circle primitives for the rounded corners*
1,1,$1+$1,$2,$3*
1,1,$1+$1,$4,$5*
1,1,$1+$1,$6,$7*
1,1,$1+$1,$8,$9*
0 Add four rect primitives between the rounded corners*
20,1,$1+$1,$2,$3,$4,$5,0*
20,1,$1+$1,$4,$5,$6,$7,0*
20,1,$1+$1,$6,$7,$8,$9,0*
20,1,$1+$1,$8,$9,$2,$3,0*%
G04 Aperture macros list end*
%ADD10R,0.025400X0.025400*%
%ADD11O,0.240000X0.599999*%
%ADD12O,0.599999X0.240000*%
%ADD13R,2.100001X2.100001*%
%ADD14RoundRect,0.140000X0.140000X0.170000X-0.140000X0.170000X-0.140000X-0.170000X0.140000X-0.170000X0*%
%ADD15RoundRect,0.135000X-0.185000X0.135000X-0.185000X-0.135000X0.185000X-0.135000X0.185000X0.135000X0*%
%ADD16RoundRect,0.147500X-0.172500X0.147500X-0.172500X-0.147500X0.172500X-0.147500X0.172500X0.147500X0*%
%ADD17RoundRect,0.140000X0.170000X-0.140000X0.170000X0.140000X-0.170000X0.140000X-0.170000X-0.140000X0*%
%ADD18RoundRect,0.140000X-0.140000X-0.170000X0.140000X-0.170000X0.140000X0.170000X-0.140000X0.170000X0*%
%ADD19R,0.711200X0.254000*%
%ADD20R,0.254000X0.711200*%
%ADD21R,2.311400X2.311400*%
%ADD22RoundRect,0.135000X0.135000X0.185000X-0.135000X0.185000X-0.135000X-0.185000X0.135000X-0.185000X0*%
G04 APERTURE END LIST*
D10*
%TO.C,U3*%
X135100001Y-104000000D03*
D11*
X133850001Y-102100001D03*
X134350000Y-102100001D03*
X134850001Y-102100001D03*
X135350001Y-102100001D03*
X135850002Y-102100001D03*
X136350001Y-102100001D03*
D12*
X137000000Y-102750000D03*
X137000000Y-103249999D03*
X137000000Y-103750000D03*
X137000000Y-104250000D03*
X137000000Y-104750001D03*
X137000000Y-105250000D03*
D11*
X136350001Y-105899999D03*
X135850002Y-105899999D03*
X135350001Y-105899999D03*
X134850001Y-105899999D03*
X134350000Y-105899999D03*
X133850001Y-105899999D03*
D12*
X133200002Y-105250000D03*
X133200002Y-104750001D03*
X133200002Y-104250000D03*
X133200002Y-103750000D03*
X133200002Y-103249999D03*
X133200002Y-102750000D03*
D13*
X135100001Y-104000000D03*
%TD*%
D14*
%TO.C,C2*%
X132250000Y-101000000D03*
X131290000Y-101000000D03*
%TD*%
D15*
%TO.C,R5*%
X141000000Y-101230000D03*
X141000000Y-102250000D03*
%TD*%
D16*
%TO.C,R2*%
X131750000Y-107500000D03*
X131750000Y-108470000D03*
%TD*%
D17*
%TO.C,C5*%
X138250000Y-99480000D03*
X138250000Y-98520000D03*
%TD*%
D14*
%TO.C,C9*%
X119960000Y-107000000D03*
X119000000Y-107000000D03*
%TD*%
D16*
%TO.C,R3*%
X162000000Y-101030000D03*
X162000000Y-102000000D03*
%TD*%
D15*
%TO.C,R4*%
X140000000Y-101230000D03*
X140000000Y-102250000D03*
%TD*%
D18*
%TO.C,C7*%
X135770000Y-99500000D03*
X136730000Y-99500000D03*
%TD*%
D14*
%TO.C,C3*%
X130460000Y-102000000D03*
X129500000Y-102000000D03*
%TD*%
D19*
%TO.C,U1*%
X149642301Y-102642300D03*
X149642301Y-103142299D03*
X149642301Y-103642300D03*
X149642301Y-104142300D03*
X149642301Y-104642301D03*
X149642301Y-105142300D03*
D20*
X149000001Y-105784600D03*
X148500002Y-105784600D03*
X148000001Y-105784600D03*
X147500001Y-105784600D03*
X147000000Y-105784600D03*
X146500001Y-105784600D03*
D19*
X145857701Y-105142300D03*
X145857701Y-104642301D03*
X145857701Y-104142300D03*
X145857701Y-103642300D03*
X145857701Y-103142299D03*
X145857701Y-102642300D03*
D20*
X146500001Y-102000000D03*
X147000000Y-102000000D03*
X147500001Y-102000000D03*
X148000001Y-102000000D03*
X148500002Y-102000000D03*
X149000001Y-102000000D03*
D21*
X147750001Y-103892300D03*
%TD*%
D17*
%TO.C,C11*%
X148250000Y-99750000D03*
X148250000Y-98790000D03*
%TD*%
D18*
%TO.C,C8*%
X133520000Y-97250000D03*
X134480000Y-97250000D03*
%TD*%
D22*
%TO.C,R1*%
X141760000Y-108500000D03*
X140740000Y-108500000D03*
%TD*%
D14*
%TO.C,C4*%
X130460000Y-104000000D03*
X129500000Y-104000000D03*
%TD*%
D17*
%TO.C,C12*%
X147250000Y-99750000D03*
X147250000Y-98790000D03*
%TD*%
D18*
%TO.C,C10*%
X133520000Y-99500000D03*
X134480000Y-99500000D03*
%TD*%
D14*
%TO.C,C1*%
X130000000Y-99000000D03*
X129040000Y-99000000D03*
%TD*%
%TO.C,C6*%
X129960000Y-110000000D03*
X129000000Y-110000000D03*
%TD*%
M02*
