%TF.GenerationSoftware,KiCad,Pcbnew,8.0.5*%
%TF.CreationDate,2025-04-05T14:36:40-04:00*%
%TF.ProjectId,tcg_counter,7463675f-636f-4756-9e74-65722e6b6963,1*%
%TF.SameCoordinates,Original*%
%TF.FileFunction,Copper,L1,Top*%
%TF.FilePolarity,Positive*%
%FSLAX46Y46*%
G04 Gerber Fmt 4.6, Leading zero omitted, Abs format (unit mm)*
G04 Created by KiCad (PCBNEW 8.0.5) date 2025-04-05 14:36:40*
%MOMM*%
%LPD*%
G01*
G04 APERTURE LIST*
%TA.AperFunction,EtchedComponent*%
%ADD10C,1.000000*%
%TD*%
%TA.AperFunction,ConnectorPad*%
%ADD11C,0.787400*%
%TD*%
%TA.AperFunction,SMDPad,CuDef*%
%ADD12R,0.500000X5.000000*%
%TD*%
%TA.AperFunction,SMDPad,CuDef*%
%ADD13R,1.524000X1.524000*%
%TD*%
%TA.AperFunction,ViaPad*%
%ADD14C,0.600000*%
%TD*%
%TA.AperFunction,Conductor*%
%ADD15C,0.200000*%
%TD*%
G04 APERTURE END LIST*
D10*
%TO.C,L1*%
X123000000Y-50000000D02*
X123000000Y-80000000D01*
X123000000Y-80000000D02*
X158000000Y-80000000D01*
X125000000Y-52000000D02*
X125000000Y-78000000D01*
X125000000Y-78000000D02*
X156000000Y-78000000D01*
X127000000Y-54000000D02*
X127000000Y-76000000D01*
X127000000Y-76000000D02*
X154000000Y-76000000D01*
X129000000Y-56000000D02*
X129000000Y-74000000D01*
X129000000Y-74000000D02*
X152000000Y-74000000D01*
X131000000Y-58000000D02*
X131000000Y-72000000D01*
X131000000Y-72000000D02*
X144000000Y-72000000D01*
X147000000Y-82000000D02*
X160000000Y-82000000D01*
X147000000Y-84000000D02*
X147000000Y-82000000D01*
X152000000Y-58000000D02*
X131000000Y-58000000D01*
X152000000Y-74000000D02*
X152000000Y-58000000D01*
X154000000Y-56000000D02*
X129000000Y-56000000D01*
X154000000Y-76000000D02*
X154000000Y-56000000D01*
X156000000Y-54000000D02*
X127000000Y-54000000D01*
X156000000Y-78000000D02*
X156000000Y-54000000D01*
X158000000Y-52000000D02*
X125000000Y-52000000D01*
X158000000Y-80000000D02*
X158000000Y-52000000D01*
X160000000Y-50000000D02*
X123000000Y-50000000D01*
X160000000Y-82000000D02*
X160000000Y-50000000D01*
%TD*%
D11*
%TO.P,P1,1,TDO/TDI*%
%TO.N,TDO*%
X138960000Y-127270000D03*
%TO.P,P1,2,VCC_Tool*%
%TO.N,unconnected-(P1-VCC_Tool-Pad2)*%
X140230000Y-127270000D03*
%TO.P,P1,3,TDI/VPP*%
%TO.N,TDI*%
X141500000Y-127270000D03*
%TO.P,P1,4,VCC_Target*%
%TO.N,unconnected-(P1-VCC_Target-Pad4)*%
X142770000Y-127270000D03*
%TO.P,P1,5,TMS*%
%TO.N,TMS*%
X144040000Y-127270000D03*
%TO.P,P1,6,NC*%
%TO.N,unconnected-(P1-NC-Pad6)*%
X144040000Y-126000000D03*
%TO.P,P1,7,TCK*%
%TO.N,TCK*%
X142770000Y-126000000D03*
%TO.P,P1,8,TEST/VPP*%
%TO.N,unconnected-(P1-TEST{slash}VPP-Pad8)*%
X141500000Y-126000000D03*
%TO.P,P1,9,GND*%
%TO.N,GND*%
X140230000Y-126000000D03*
%TO.P,P1,10,~{RST}*%
%TO.N,Net-(P1-~{RST})*%
X138960000Y-126000000D03*
%TD*%
D12*
%TO.P,U2,1,COM*%
%TO.N,Net-(U2-COM)*%
X134000000Y-115700000D03*
%TO.P,U2,2,1B*%
%TO.N,Net-(U1-P01)*%
X135000000Y-115700000D03*
%TO.P,U2,3,1A*%
%TO.N,Net-(U1-P00)*%
X136000000Y-115700000D03*
%TO.P,U2,4,1F*%
%TO.N,Net-(U1-P05)*%
X137000000Y-115700000D03*
%TO.P,U2,5,3*%
%TO.N,Net-(U1-P17)*%
X138000000Y-115700000D03*
%TO.P,U2,6,1G*%
%TO.N,Net-(U1-P06)*%
X139000000Y-115700000D03*
%TO.P,U2,7,1E*%
%TO.N,Net-(U1-P04)*%
X140000000Y-115700000D03*
%TO.P,U2,8,1D*%
%TO.N,Net-(U1-P03)*%
X141000000Y-115700000D03*
%TO.P,U2,9,1C*%
%TO.N,Net-(U1-P02)*%
X142000000Y-115700000D03*
%TO.P,U2,10,2E*%
%TO.N,Net-(U1-P14)*%
X143000000Y-115700000D03*
%TO.P,U2,11,2D*%
%TO.N,Net-(U1-P13)*%
X144000000Y-115700000D03*
%TO.P,U2,12,2C*%
%TO.N,Net-(U1-P12)*%
X145000000Y-115700000D03*
%TO.P,U2,13,2G*%
%TO.N,Net-(U1-P16)*%
X146000000Y-115700000D03*
%TO.P,U2,14,2B*%
%TO.N,Net-(U1-P11)*%
X147000000Y-115700000D03*
%TO.P,U2,15,2A*%
%TO.N,Net-(U1-P10)*%
X148000000Y-115700000D03*
%TO.P,U2,16,2F*%
%TO.N,Net-(U1-P15)*%
X149000000Y-115700000D03*
%TD*%
D13*
%TO.P,L1,1,1*%
%TO.N,Net-(U3-ANT1)*%
X146500000Y-84000000D03*
%TO.P,L1,2,2*%
%TO.N,Net-(U3-ANT2)*%
X145000000Y-72000000D03*
%TD*%
D14*
%TO.N,GND*%
X135100001Y-104000000D03*
X147250000Y-97500000D03*
X147750001Y-103892300D03*
X148500000Y-101000000D03*
X144750000Y-102250000D03*
X147750001Y-103892300D03*
X140250000Y-122750000D03*
X148250000Y-97500000D03*
X147750001Y-104500000D03*
%TO.N,TMS*%
X132000000Y-127000000D03*
%TO.N,Net-(U2-COM)*%
X134000000Y-110750000D03*
%TO.N,Net-(U1-P05)*%
X137000000Y-111500000D03*
%TO.N,Net-(U1-P06)*%
X139000000Y-109250000D03*
%TO.N,Net-(U1-P04)*%
X140000000Y-111500000D03*
%TO.N,Net-(U1-P16)*%
X143750000Y-105500000D03*
%TO.N,Net-(U1-P10)*%
X147900002Y-107750000D03*
%TO.N,Net-(U1-P03)*%
X141000000Y-111500000D03*
%TO.N,Net-(U1-P11)*%
X147000000Y-107750000D03*
%TO.N,Net-(U1-P13)*%
X144000000Y-107500000D03*
%TO.N,Net-(U1-P14)*%
X143000000Y-107250000D03*
%TO.N,Net-(U1-P01)*%
X135000000Y-112750000D03*
%TO.N,Net-(U1-P15)*%
X144350000Y-104500000D03*
%TO.N,Net-(U1-P02)*%
X142000000Y-111500000D03*
%TO.N,Net-(U1-P00)*%
X136000000Y-112750000D03*
%TO.N,Net-(U1-P12)*%
X145000000Y-107650000D03*
%TO.N,Net-(U1-P17)*%
X138000000Y-107250000D03*
%TD*%
D15*
%TO.N,TMS*%
X132000000Y-127000000D02*
X134000000Y-129000000D01*
X144040000Y-127960000D02*
X144040000Y-127270000D01*
X134000000Y-129000000D02*
X143000000Y-129000000D01*
X143000000Y-129000000D02*
X144040000Y-127960000D01*
%TO.N,Net-(U2-COM)*%
X134000000Y-115700000D02*
X134000000Y-111000000D01*
X134000000Y-115700000D02*
X134000000Y-113450000D01*
X134000000Y-111000000D02*
X134000000Y-110750000D01*
%TO.N,Net-(U1-P05)*%
X137000000Y-115700000D02*
X137000000Y-111500000D01*
%TO.N,Net-(U1-P06)*%
X139000000Y-109250000D02*
X139000000Y-115700000D01*
%TO.N,Net-(U1-P04)*%
X140000000Y-111500000D02*
X140000000Y-115700000D01*
%TO.N,Net-(U1-P16)*%
X146000000Y-115700000D02*
X146000000Y-107750000D01*
X146000000Y-107750000D02*
X143750000Y-105500000D01*
%TO.N,Net-(U1-P10)*%
X147900002Y-107750000D02*
X148000000Y-107849998D01*
X148000000Y-107849998D02*
X148000000Y-115700000D01*
%TO.N,Net-(U1-P03)*%
X141000000Y-111500000D02*
X141000000Y-115700000D01*
%TO.N,Net-(U1-P11)*%
X147000000Y-107750000D02*
X147000000Y-115700000D01*
%TO.N,Net-(U1-P13)*%
X144000000Y-107500000D02*
X144000000Y-115700000D01*
%TO.N,Net-(U1-P14)*%
X143000000Y-107250000D02*
X143000000Y-115700000D01*
%TO.N,Net-(U1-P01)*%
X135000000Y-115700000D02*
X135000000Y-112750000D01*
%TO.N,Net-(U1-P15)*%
X149000000Y-108001469D02*
X148048531Y-107050000D01*
X149000000Y-115700000D02*
X149000000Y-108001469D01*
X144350000Y-105534314D02*
X144350000Y-104500000D01*
X145865686Y-107050000D02*
X144350000Y-105534314D01*
X148048531Y-107050000D02*
X145865686Y-107050000D01*
%TO.N,Net-(U1-P02)*%
X142000000Y-111500000D02*
X142000000Y-115700000D01*
%TO.N,Net-(U1-P00)*%
X136000000Y-115700000D02*
X136000000Y-112750000D01*
%TO.N,Net-(U1-P12)*%
X145000000Y-115700000D02*
X145000000Y-107650000D01*
%TO.N,Net-(U1-P17)*%
X138000000Y-115700000D02*
X138000000Y-107250000D01*
%TD*%
%TA.AperFunction,Conductor*%
%TO.N,GND*%
G36*
X172442539Y-96019685D02*
G01*
X172488294Y-96072489D01*
X172499500Y-96124000D01*
X172499500Y-130995572D01*
X172499184Y-131004419D01*
X172484869Y-131204557D01*
X172482351Y-131222068D01*
X172440646Y-131413787D01*
X172435662Y-131430763D01*
X172367090Y-131614609D01*
X172359740Y-131630701D01*
X172265711Y-131802904D01*
X172256146Y-131817789D01*
X172138558Y-131974867D01*
X172126972Y-131988237D01*
X171988237Y-132126972D01*
X171974867Y-132138558D01*
X171817789Y-132256146D01*
X171802904Y-132265711D01*
X171630701Y-132359740D01*
X171614609Y-132367090D01*
X171430763Y-132435662D01*
X171413787Y-132440646D01*
X171222068Y-132482351D01*
X171204557Y-132484869D01*
X171023779Y-132497799D01*
X171004417Y-132499184D01*
X170995572Y-132499500D01*
X112004428Y-132499500D01*
X111995582Y-132499184D01*
X111973622Y-132497613D01*
X111795442Y-132484869D01*
X111777931Y-132482351D01*
X111586212Y-132440646D01*
X111569236Y-132435662D01*
X111385390Y-132367090D01*
X111369298Y-132359740D01*
X111197095Y-132265711D01*
X111182210Y-132256146D01*
X111025132Y-132138558D01*
X111011762Y-132126972D01*
X110873027Y-131988237D01*
X110861441Y-131974867D01*
X110743849Y-131817784D01*
X110734288Y-131802904D01*
X110640259Y-131630701D01*
X110632909Y-131614609D01*
X110572091Y-131451551D01*
X110564334Y-131430755D01*
X110559355Y-131413797D01*
X110517647Y-131222063D01*
X110515130Y-131204556D01*
X110500816Y-131004418D01*
X110500500Y-130995572D01*
X110500500Y-126999998D01*
X131440715Y-126999998D01*
X131440715Y-127000001D01*
X131459771Y-127144752D01*
X131459773Y-127144757D01*
X131515642Y-127279638D01*
X131515645Y-127279644D01*
X131604525Y-127395473D01*
X131604526Y-127395474D01*
X131720355Y-127484354D01*
X131720361Y-127484357D01*
X131787801Y-127512291D01*
X131855246Y-127540228D01*
X131927623Y-127549756D01*
X131999999Y-127559285D01*
X132006584Y-127559285D01*
X132073623Y-127578970D01*
X132094265Y-127595604D01*
X133716329Y-129217668D01*
X133782332Y-129283671D01*
X133863168Y-129330341D01*
X133953329Y-129354500D01*
X133953331Y-129354500D01*
X143046669Y-129354500D01*
X143046671Y-129354500D01*
X143136832Y-129330341D01*
X143217668Y-129283671D01*
X144323671Y-128177668D01*
X144370341Y-128096832D01*
X144394500Y-128006671D01*
X144394500Y-128006668D01*
X144395561Y-127998612D01*
X144398620Y-127999014D01*
X144414185Y-127946009D01*
X144466989Y-127900254D01*
X144536147Y-127890310D01*
X144599703Y-127919335D01*
X144633059Y-127965593D01*
X144649079Y-128004266D01*
X144649081Y-128004271D01*
X144649083Y-128004275D01*
X144730698Y-128126419D01*
X144730701Y-128126423D01*
X144834576Y-128230298D01*
X144834580Y-128230301D01*
X144956724Y-128311916D01*
X144956730Y-128311919D01*
X144956731Y-128311920D01*
X145092458Y-128368140D01*
X145236540Y-128396799D01*
X145236544Y-128396800D01*
X145236545Y-128396800D01*
X145383456Y-128396800D01*
X145383457Y-128396799D01*
X145527542Y-128368140D01*
X145663269Y-128311920D01*
X145785420Y-128230301D01*
X145889301Y-128126420D01*
X145970920Y-128004269D01*
X146027140Y-127868542D01*
X146055800Y-127724455D01*
X146055800Y-127577545D01*
X146027140Y-127433458D01*
X145970920Y-127297731D01*
X145970919Y-127297730D01*
X145970916Y-127297724D01*
X145889301Y-127175580D01*
X145889298Y-127175576D01*
X145785423Y-127071701D01*
X145785419Y-127071698D01*
X145663275Y-126990083D01*
X145663266Y-126990078D01*
X145527544Y-126933861D01*
X145527545Y-126933861D01*
X145527542Y-126933860D01*
X145527538Y-126933859D01*
X145527534Y-126933858D01*
X145383459Y-126905200D01*
X145383455Y-126905200D01*
X145236545Y-126905200D01*
X145236540Y-126905200D01*
X145092465Y-126933858D01*
X145092455Y-126933861D01*
X144956733Y-126990078D01*
X144956724Y-126990083D01*
X144834572Y-127071703D01*
X144833346Y-127072710D01*
X144832579Y-127073035D01*
X144829515Y-127075083D01*
X144829126Y-127074501D01*
X144769034Y-127100018D01*
X144700167Y-127088220D01*
X144648611Y-127041063D01*
X144638748Y-127020820D01*
X144630852Y-127000001D01*
X144618168Y-126966554D01*
X144528748Y-126837007D01*
X144410924Y-126732624D01*
X144405496Y-126727815D01*
X144368369Y-126668626D01*
X144369137Y-126598761D01*
X144405496Y-126542185D01*
X144435457Y-126515642D01*
X144528748Y-126432993D01*
X144618168Y-126303446D01*
X144638750Y-126249174D01*
X144680925Y-126193476D01*
X144746522Y-126169418D01*
X144814712Y-126184644D01*
X144833356Y-126197296D01*
X144834573Y-126198294D01*
X144834580Y-126198301D01*
X144875479Y-126225629D01*
X144956724Y-126279916D01*
X144956730Y-126279919D01*
X144956731Y-126279920D01*
X145092458Y-126336140D01*
X145236540Y-126364799D01*
X145236544Y-126364800D01*
X145236545Y-126364800D01*
X145383456Y-126364800D01*
X145383457Y-126364799D01*
X145527542Y-126336140D01*
X145663269Y-126279920D01*
X145785420Y-126198301D01*
X145889301Y-126094420D01*
X145970920Y-125972269D01*
X146027140Y-125836542D01*
X146055800Y-125692455D01*
X146055800Y-125545545D01*
X146027140Y-125401458D01*
X145970920Y-125265731D01*
X145970919Y-125265730D01*
X145970916Y-125265724D01*
X145889301Y-125143580D01*
X145889298Y-125143576D01*
X145785423Y-125039701D01*
X145785419Y-125039698D01*
X145663275Y-124958083D01*
X145663266Y-124958078D01*
X145527544Y-124901861D01*
X145527545Y-124901861D01*
X145527542Y-124901860D01*
X145527538Y-124901859D01*
X145527534Y-124901858D01*
X145383459Y-124873200D01*
X145383455Y-124873200D01*
X145236545Y-124873200D01*
X145236540Y-124873200D01*
X145092465Y-124901858D01*
X145092455Y-124901861D01*
X144956733Y-124958078D01*
X144956724Y-124958083D01*
X144834580Y-125039698D01*
X144834576Y-125039701D01*
X144730701Y-125143576D01*
X144730698Y-125143580D01*
X144649083Y-125265724D01*
X144649078Y-125265734D01*
X144591425Y-125404921D01*
X144547584Y-125459324D01*
X144481290Y-125481389D01*
X144418021Y-125465240D01*
X144417565Y-125466110D01*
X144413909Y-125464191D01*
X144413590Y-125464110D01*
X144412846Y-125463633D01*
X144294395Y-125401465D01*
X144271543Y-125389471D01*
X144271542Y-125389470D01*
X144271539Y-125389469D01*
X144118707Y-125351800D01*
X144118706Y-125351800D01*
X143961294Y-125351800D01*
X143961293Y-125351800D01*
X143808460Y-125389469D01*
X143669073Y-125462625D01*
X143551254Y-125567003D01*
X143507050Y-125631045D01*
X143452767Y-125675035D01*
X143383318Y-125682694D01*
X143320753Y-125651590D01*
X143302950Y-125631045D01*
X143264143Y-125574824D01*
X143258748Y-125567007D01*
X143258746Y-125567005D01*
X143258745Y-125567003D01*
X143140926Y-125462625D01*
X143030980Y-125404921D01*
X143001543Y-125389471D01*
X143001542Y-125389470D01*
X143001539Y-125389469D01*
X142848707Y-125351800D01*
X142848706Y-125351800D01*
X142691294Y-125351800D01*
X142691293Y-125351800D01*
X142538460Y-125389469D01*
X142399073Y-125462625D01*
X142281254Y-125567003D01*
X142237050Y-125631045D01*
X142182767Y-125675035D01*
X142113318Y-125682694D01*
X142050753Y-125651590D01*
X142032950Y-125631045D01*
X141994143Y-125574824D01*
X141988748Y-125567007D01*
X141988746Y-125567005D01*
X141988745Y-125567003D01*
X141870926Y-125462625D01*
X141760980Y-125404921D01*
X141731543Y-125389471D01*
X141731542Y-125389470D01*
X141731539Y-125389469D01*
X141578707Y-125351800D01*
X141578706Y-125351800D01*
X141421294Y-125351800D01*
X141421293Y-125351800D01*
X141268460Y-125389469D01*
X141129073Y-125462625D01*
X141011253Y-125567005D01*
X141011249Y-125567009D01*
X141005844Y-125574839D01*
X140991483Y-125592069D01*
X140619872Y-125963681D01*
X140558549Y-125997166D01*
X140532191Y-126000000D01*
X139927809Y-126000000D01*
X139860770Y-125980315D01*
X139840128Y-125963681D01*
X139468514Y-125592068D01*
X139454147Y-125574828D01*
X139448748Y-125567007D01*
X139448746Y-125567005D01*
X139448743Y-125567002D01*
X139330926Y-125462625D01*
X139220980Y-125404921D01*
X139191543Y-125389471D01*
X139191542Y-125389470D01*
X139191539Y-125389469D01*
X139038707Y-125351800D01*
X139038706Y-125351800D01*
X138881294Y-125351800D01*
X138881293Y-125351800D01*
X138728460Y-125389469D01*
X138589073Y-125462625D01*
X138471253Y-125567005D01*
X138381833Y-125696551D01*
X138326013Y-125843735D01*
X138326012Y-125843737D01*
X138314464Y-125938849D01*
X138286842Y-126003027D01*
X138228908Y-126042083D01*
X138159055Y-126043618D01*
X138122478Y-126027004D01*
X138043280Y-125974086D01*
X138043266Y-125974078D01*
X137907544Y-125917861D01*
X137907545Y-125917861D01*
X137907542Y-125917860D01*
X137907538Y-125917859D01*
X137907534Y-125917858D01*
X137763459Y-125889200D01*
X137763455Y-125889200D01*
X137616545Y-125889200D01*
X137616540Y-125889200D01*
X137472465Y-125917858D01*
X137472455Y-125917861D01*
X137336733Y-125974078D01*
X137336724Y-125974083D01*
X137214580Y-126055698D01*
X137214576Y-126055701D01*
X137110701Y-126159576D01*
X137110698Y-126159580D01*
X137029083Y-126281724D01*
X137029078Y-126281733D01*
X136972861Y-126417455D01*
X136972858Y-126417465D01*
X136944200Y-126561540D01*
X136944200Y-126708459D01*
X136969770Y-126837007D01*
X136972860Y-126852542D01*
X136983244Y-126877611D01*
X137029078Y-126988266D01*
X137029083Y-126988275D01*
X137110698Y-127110419D01*
X137110701Y-127110423D01*
X137214576Y-127214298D01*
X137214580Y-127214301D01*
X137336724Y-127295916D01*
X137336730Y-127295919D01*
X137336731Y-127295920D01*
X137472458Y-127352140D01*
X137616540Y-127380799D01*
X137616544Y-127380800D01*
X137616545Y-127380800D01*
X137763456Y-127380800D01*
X137763457Y-127380799D01*
X137907542Y-127352140D01*
X138043269Y-127295920D01*
X138122477Y-127242995D01*
X138189154Y-127222117D01*
X138256534Y-127240601D01*
X138303225Y-127292580D01*
X138314464Y-127331150D01*
X138326012Y-127426262D01*
X138326013Y-127426264D01*
X138376461Y-127559285D01*
X138381833Y-127573448D01*
X138412867Y-127618408D01*
X138471251Y-127702992D01*
X138471253Y-127702994D01*
X138589073Y-127807374D01*
X138589074Y-127807374D01*
X138589076Y-127807376D01*
X138728457Y-127880529D01*
X138728459Y-127880529D01*
X138728460Y-127880530D01*
X138881293Y-127918200D01*
X138881294Y-127918200D01*
X139038707Y-127918200D01*
X139191539Y-127880530D01*
X139191539Y-127880529D01*
X139191543Y-127880529D01*
X139330924Y-127807376D01*
X139448748Y-127702993D01*
X139492950Y-127638954D01*
X139547233Y-127594965D01*
X139616681Y-127587305D01*
X139679246Y-127618408D01*
X139697048Y-127638953D01*
X139741252Y-127702993D01*
X139741253Y-127702994D01*
X139859073Y-127807374D01*
X139859074Y-127807374D01*
X139859076Y-127807376D01*
X139998457Y-127880529D01*
X139998459Y-127880529D01*
X139998460Y-127880530D01*
X140151293Y-127918200D01*
X140151294Y-127918200D01*
X140308707Y-127918200D01*
X140461539Y-127880530D01*
X140461539Y-127880529D01*
X140461543Y-127880529D01*
X140600924Y-127807376D01*
X140718748Y-127702993D01*
X140762950Y-127638954D01*
X140817233Y-127594965D01*
X140886681Y-127587305D01*
X140949246Y-127618408D01*
X140967048Y-127638953D01*
X141011252Y-127702993D01*
X141011253Y-127702994D01*
X141129073Y-127807374D01*
X141129074Y-127807374D01*
X141129076Y-127807376D01*
X141268457Y-127880529D01*
X141268459Y-127880529D01*
X141268460Y-127880530D01*
X141421293Y-127918200D01*
X141421294Y-127918200D01*
X141578707Y-127918200D01*
X141731539Y-127880530D01*
X141731539Y-127880529D01*
X141731543Y-127880529D01*
X141870924Y-127807376D01*
X141988748Y-127702993D01*
X142032950Y-127638954D01*
X142087233Y-127594965D01*
X142156681Y-127587305D01*
X142219246Y-127618408D01*
X142237048Y-127638953D01*
X142281252Y-127702993D01*
X142281253Y-127702994D01*
X142399073Y-127807374D01*
X142399074Y-127807374D01*
X142399076Y-127807376D01*
X142538457Y-127880529D01*
X142538459Y-127880529D01*
X142538460Y-127880530D01*
X142691293Y-127918200D01*
X142691294Y-127918200D01*
X142848707Y-127918200D01*
X143001539Y-127880530D01*
X143001539Y-127880529D01*
X143001543Y-127880529D01*
X143140924Y-127807376D01*
X143258748Y-127702993D01*
X143302950Y-127638954D01*
X143357233Y-127594965D01*
X143426681Y-127587305D01*
X143489246Y-127618408D01*
X143507048Y-127638953D01*
X143551252Y-127702993D01*
X143582252Y-127730457D01*
X143619379Y-127789646D01*
X143618611Y-127859511D01*
X143587706Y-127910953D01*
X142889480Y-128609181D01*
X142828157Y-128642666D01*
X142801799Y-128645500D01*
X134198201Y-128645500D01*
X134131162Y-128625815D01*
X134110520Y-128609181D01*
X132595604Y-127094265D01*
X132562119Y-127032942D01*
X132559285Y-127006584D01*
X132559285Y-126999998D01*
X132540228Y-126855247D01*
X132540228Y-126855246D01*
X132484355Y-126720358D01*
X132395474Y-126604526D01*
X132279643Y-126515645D01*
X132279640Y-126515644D01*
X132279638Y-126515642D01*
X132144757Y-126459773D01*
X132144752Y-126459771D01*
X132000001Y-126440715D01*
X131999999Y-126440715D01*
X131855247Y-126459771D01*
X131855245Y-126459772D01*
X131720361Y-126515643D01*
X131720358Y-126515644D01*
X131720358Y-126515645D01*
X131604526Y-126604526D01*
X131524776Y-126708459D01*
X131515643Y-126720361D01*
X131459772Y-126855245D01*
X131459771Y-126855247D01*
X131440715Y-126999998D01*
X110500500Y-126999998D01*
X110500500Y-125214180D01*
X139797733Y-125214180D01*
X140230000Y-125646446D01*
X140230001Y-125646446D01*
X140662265Y-125214180D01*
X140507689Y-125145358D01*
X140323932Y-125106300D01*
X140136068Y-125106300D01*
X139952312Y-125145358D01*
X139797733Y-125214180D01*
X110500500Y-125214180D01*
X110500500Y-110749998D01*
X133440715Y-110749998D01*
X133440715Y-110750001D01*
X133459771Y-110894752D01*
X133459773Y-110894757D01*
X133515642Y-111029638D01*
X133515642Y-111029639D01*
X133604530Y-111145479D01*
X133609181Y-111150130D01*
X133642666Y-111211453D01*
X133645500Y-111237811D01*
X133645500Y-112897461D01*
X133625815Y-112964500D01*
X133590394Y-113000560D01*
X133566516Y-113016516D01*
X133566515Y-113016517D01*
X133510265Y-113100699D01*
X133510264Y-113100703D01*
X133495500Y-113174928D01*
X133495500Y-118225063D01*
X133510266Y-118299301D01*
X133566515Y-118383484D01*
X133600234Y-118406014D01*
X133650699Y-118439734D01*
X133650702Y-118439734D01*
X133650703Y-118439735D01*
X133675666Y-118444700D01*
X133724933Y-118454500D01*
X134275066Y-118454499D01*
X134349301Y-118439734D01*
X134431109Y-118385071D01*
X134497786Y-118364193D01*
X134565167Y-118382677D01*
X134568891Y-118385071D01*
X134650699Y-118439734D01*
X134650702Y-118439734D01*
X134650703Y-118439735D01*
X134675666Y-118444700D01*
X134724933Y-118454500D01*
X135275066Y-118454499D01*
X135349301Y-118439734D01*
X135431109Y-118385071D01*
X135497786Y-118364193D01*
X135565167Y-118382677D01*
X135568891Y-118385071D01*
X135650699Y-118439734D01*
X135650702Y-118439734D01*
X135650703Y-118439735D01*
X135675666Y-118444700D01*
X135724933Y-118454500D01*
X136275066Y-118454499D01*
X136349301Y-118439734D01*
X136431109Y-118385071D01*
X136497786Y-118364193D01*
X136565167Y-118382677D01*
X136568891Y-118385071D01*
X136650699Y-118439734D01*
X136650702Y-118439734D01*
X136650703Y-118439735D01*
X136675666Y-118444700D01*
X136724933Y-118454500D01*
X137275066Y-118454499D01*
X137349301Y-118439734D01*
X137431109Y-118385071D01*
X137497786Y-118364193D01*
X137565167Y-118382677D01*
X137568891Y-118385071D01*
X137650699Y-118439734D01*
X137650702Y-118439734D01*
X137650703Y-118439735D01*
X137675666Y-118444700D01*
X137724933Y-118454500D01*
X138275066Y-118454499D01*
X138349301Y-118439734D01*
X138431109Y-118385071D01*
X138497786Y-118364193D01*
X138565167Y-118382677D01*
X138568891Y-118385071D01*
X138650699Y-118439734D01*
X138650702Y-118439734D01*
X138650703Y-118439735D01*
X138675666Y-118444700D01*
X138724933Y-118454500D01*
X139275066Y-118454499D01*
X139349301Y-118439734D01*
X139431109Y-118385071D01*
X139497786Y-118364193D01*
X139565167Y-118382677D01*
X139568891Y-118385071D01*
X139650699Y-118439734D01*
X139650702Y-118439734D01*
X139650703Y-118439735D01*
X139675666Y-118444700D01*
X139724933Y-118454500D01*
X140275066Y-118454499D01*
X140349301Y-118439734D01*
X140431109Y-118385071D01*
X140497786Y-118364193D01*
X140565167Y-118382677D01*
X140568891Y-118385071D01*
X140650699Y-118439734D01*
X140650702Y-118439734D01*
X140650703Y-118439735D01*
X140675666Y-118444700D01*
X140724933Y-118454500D01*
X141275066Y-118454499D01*
X141349301Y-118439734D01*
X141431109Y-118385071D01*
X141497786Y-118364193D01*
X141565167Y-118382677D01*
X141568891Y-118385071D01*
X141650699Y-118439734D01*
X141650702Y-118439734D01*
X141650703Y-118439735D01*
X141675666Y-118444700D01*
X141724933Y-118454500D01*
X142275066Y-118454499D01*
X142349301Y-118439734D01*
X142431109Y-118385071D01*
X142497786Y-118364193D01*
X142565167Y-118382677D01*
X142568891Y-118385071D01*
X142650699Y-118439734D01*
X142650702Y-118439734D01*
X142650703Y-118439735D01*
X142675666Y-118444700D01*
X142724933Y-118454500D01*
X143275066Y-118454499D01*
X143349301Y-118439734D01*
X143431109Y-118385071D01*
X143497786Y-118364193D01*
X143565167Y-118382677D01*
X143568891Y-118385071D01*
X143650699Y-118439734D01*
X143650702Y-118439734D01*
X143650703Y-118439735D01*
X143675666Y-118444700D01*
X143724933Y-118454500D01*
X144275066Y-118454499D01*
X144349301Y-118439734D01*
X144431109Y-118385071D01*
X144497786Y-118364193D01*
X144565167Y-118382677D01*
X144568891Y-118385071D01*
X144650699Y-118439734D01*
X144650702Y-118439734D01*
X144650703Y-118439735D01*
X144675666Y-118444700D01*
X144724933Y-118454500D01*
X145275066Y-118454499D01*
X145349301Y-118439734D01*
X145431109Y-118385071D01*
X145497786Y-118364193D01*
X145565167Y-118382677D01*
X145568891Y-118385071D01*
X145650699Y-118439734D01*
X145650702Y-118439734D01*
X145650703Y-118439735D01*
X145675666Y-118444700D01*
X145724933Y-118454500D01*
X146275066Y-118454499D01*
X146349301Y-118439734D01*
X146431109Y-118385071D01*
X146497786Y-118364193D01*
X146565167Y-118382677D01*
X146568891Y-118385071D01*
X146650699Y-118439734D01*
X146650702Y-118439734D01*
X146650703Y-118439735D01*
X146675666Y-118444700D01*
X146724933Y-118454500D01*
X147275066Y-118454499D01*
X147349301Y-118439734D01*
X147431109Y-118385071D01*
X147497786Y-118364193D01*
X147565167Y-118382677D01*
X147568891Y-118385071D01*
X147650699Y-118439734D01*
X147650702Y-118439734D01*
X147650703Y-118439735D01*
X147675666Y-118444700D01*
X147724933Y-118454500D01*
X148275066Y-118454499D01*
X148349301Y-118439734D01*
X148431109Y-118385071D01*
X148497786Y-118364193D01*
X148565167Y-118382677D01*
X148568891Y-118385071D01*
X148650699Y-118439734D01*
X148650702Y-118439734D01*
X148650703Y-118439735D01*
X148675666Y-118444700D01*
X148724933Y-118454500D01*
X149275066Y-118454499D01*
X149349301Y-118439734D01*
X149433484Y-118383484D01*
X149489734Y-118299301D01*
X149504500Y-118225067D01*
X149504499Y-113174934D01*
X149489734Y-113100699D01*
X149433484Y-113016516D01*
X149409605Y-113000560D01*
X149364803Y-112946949D01*
X149354500Y-112897461D01*
X149354500Y-107954799D01*
X149349175Y-107934926D01*
X149330341Y-107864637D01*
X149289995Y-107794754D01*
X149283672Y-107783802D01*
X149213337Y-107713467D01*
X149213326Y-107713457D01*
X148266200Y-106766330D01*
X148266199Y-106766329D01*
X148185363Y-106719659D01*
X148185364Y-106719659D01*
X148155309Y-106711606D01*
X148095202Y-106695500D01*
X148095200Y-106695500D01*
X146063887Y-106695500D01*
X145996848Y-106675815D01*
X145976206Y-106659181D01*
X144740819Y-105423794D01*
X144707334Y-105362471D01*
X144704500Y-105336113D01*
X144704500Y-104987811D01*
X144724185Y-104920772D01*
X144740819Y-104900130D01*
X144745469Y-104895479D01*
X144745471Y-104895476D01*
X144745474Y-104895474D01*
X144834355Y-104779643D01*
X144890228Y-104644754D01*
X144909285Y-104500000D01*
X144890228Y-104355246D01*
X144834355Y-104220358D01*
X144745474Y-104104526D01*
X144629643Y-104015645D01*
X144629640Y-104015644D01*
X144629638Y-104015642D01*
X144494757Y-103959773D01*
X144494752Y-103959771D01*
X144350001Y-103940715D01*
X144349999Y-103940715D01*
X144205247Y-103959771D01*
X144205245Y-103959772D01*
X144070361Y-104015643D01*
X143954526Y-104104526D01*
X143865643Y-104220361D01*
X143809772Y-104355245D01*
X143809771Y-104355247D01*
X143790715Y-104499998D01*
X143790715Y-104500001D01*
X143809771Y-104644752D01*
X143809772Y-104644754D01*
X143861345Y-104769262D01*
X143868814Y-104838732D01*
X143837539Y-104901211D01*
X143777450Y-104936863D01*
X143758012Y-104939304D01*
X143758058Y-104939654D01*
X143605247Y-104959771D01*
X143605245Y-104959772D01*
X143470361Y-105015643D01*
X143354526Y-105104526D01*
X143265643Y-105220361D01*
X143209772Y-105355245D01*
X143209771Y-105355247D01*
X143190715Y-105499998D01*
X143190715Y-105500001D01*
X143209771Y-105644752D01*
X143209773Y-105644757D01*
X143265642Y-105779638D01*
X143265645Y-105779644D01*
X143354525Y-105895473D01*
X143354526Y-105895474D01*
X143470355Y-105984354D01*
X143470361Y-105984357D01*
X143537801Y-106012291D01*
X143605246Y-106040228D01*
X143677623Y-106049756D01*
X143749999Y-106059285D01*
X143756584Y-106059285D01*
X143823623Y-106078970D01*
X143844265Y-106095604D01*
X144730117Y-106981456D01*
X144763602Y-107042779D01*
X144758618Y-107112471D01*
X144717923Y-107167513D01*
X144643767Y-107224415D01*
X144578597Y-107249609D01*
X144510152Y-107235571D01*
X144469905Y-107201527D01*
X144395474Y-107104526D01*
X144279643Y-107015645D01*
X144279640Y-107015644D01*
X144279638Y-107015642D01*
X144144757Y-106959773D01*
X144144752Y-106959771D01*
X144000001Y-106940715D01*
X143999999Y-106940715D01*
X143855247Y-106959771D01*
X143855245Y-106959772D01*
X143720360Y-107015643D01*
X143720358Y-107015644D01*
X143683713Y-107043763D01*
X143618544Y-107068956D01*
X143550099Y-107054917D01*
X143500110Y-107006102D01*
X143493667Y-106992838D01*
X143484357Y-106970362D01*
X143484357Y-106970361D01*
X143484355Y-106970358D01*
X143395474Y-106854526D01*
X143279643Y-106765645D01*
X143279640Y-106765644D01*
X143279638Y-106765642D01*
X143144757Y-106709773D01*
X143144752Y-106709771D01*
X143000001Y-106690715D01*
X142999999Y-106690715D01*
X142855247Y-106709771D01*
X142855245Y-106709772D01*
X142720361Y-106765643D01*
X142720358Y-106765644D01*
X142720358Y-106765645D01*
X142604529Y-106854524D01*
X142604526Y-106854526D01*
X142515643Y-106970361D01*
X142459772Y-107105245D01*
X142459771Y-107105247D01*
X142440715Y-107249998D01*
X142440715Y-107250001D01*
X142459771Y-107394752D01*
X142459773Y-107394757D01*
X142515642Y-107529638D01*
X142515642Y-107529639D01*
X142604530Y-107645479D01*
X142609181Y-107650130D01*
X142642666Y-107711453D01*
X142645500Y-107737811D01*
X142645500Y-111065074D01*
X142625815Y-111132113D01*
X142573011Y-111177868D01*
X142503853Y-111187812D01*
X142440297Y-111158787D01*
X142423125Y-111140561D01*
X142395474Y-111104526D01*
X142376528Y-111089988D01*
X142279643Y-111015645D01*
X142279640Y-111015644D01*
X142279638Y-111015642D01*
X142144757Y-110959773D01*
X142144752Y-110959771D01*
X142000001Y-110940715D01*
X141999999Y-110940715D01*
X141855247Y-110959771D01*
X141855245Y-110959772D01*
X141720361Y-111015643D01*
X141720358Y-111015644D01*
X141720358Y-111015645D01*
X141604526Y-111104526D01*
X141604525Y-111104527D01*
X141604524Y-111104528D01*
X141598375Y-111112542D01*
X141541947Y-111153744D01*
X141472201Y-111157899D01*
X141411281Y-111123686D01*
X141401625Y-111112542D01*
X141395474Y-111104526D01*
X141376528Y-111089988D01*
X141279643Y-111015645D01*
X141279640Y-111015644D01*
X141279638Y-111015642D01*
X141144757Y-110959773D01*
X141144752Y-110959771D01*
X141000001Y-110940715D01*
X140999999Y-110940715D01*
X140855247Y-110959771D01*
X140855245Y-110959772D01*
X140720361Y-111015643D01*
X140720358Y-111015644D01*
X140720358Y-111015645D01*
X140604526Y-111104526D01*
X140604525Y-111104527D01*
X140604524Y-111104528D01*
X140598375Y-111112542D01*
X140541947Y-111153744D01*
X140472201Y-111157899D01*
X140411281Y-111123686D01*
X140401625Y-111112542D01*
X140395474Y-111104526D01*
X140376528Y-111089988D01*
X140279643Y-111015645D01*
X140279640Y-111015644D01*
X140279638Y-111015642D01*
X140144757Y-110959773D01*
X140144752Y-110959771D01*
X140000001Y-110940715D01*
X139999999Y-110940715D01*
X139855247Y-110959771D01*
X139855245Y-110959772D01*
X139720361Y-111015643D01*
X139720358Y-111015644D01*
X139720358Y-111015645D01*
X139604526Y-111104526D01*
X139604525Y-111104527D01*
X139604524Y-111104528D01*
X139576875Y-111140561D01*
X139520447Y-111181763D01*
X139450701Y-111185918D01*
X139389781Y-111151705D01*
X139357029Y-111089988D01*
X139354500Y-111065074D01*
X139354500Y-109737811D01*
X139374185Y-109670772D01*
X139390819Y-109650130D01*
X139395469Y-109645479D01*
X139395471Y-109645476D01*
X139395474Y-109645474D01*
X139484355Y-109529643D01*
X139540228Y-109394754D01*
X139559285Y-109250000D01*
X139540228Y-109105246D01*
X139484355Y-108970358D01*
X139395474Y-108854526D01*
X139279643Y-108765645D01*
X139279640Y-108765644D01*
X139279638Y-108765642D01*
X139144757Y-108709773D01*
X139144752Y-108709771D01*
X139000001Y-108690715D01*
X138999999Y-108690715D01*
X138855247Y-108709771D01*
X138855245Y-108709772D01*
X138720361Y-108765643D01*
X138720358Y-108765644D01*
X138720358Y-108765645D01*
X138604526Y-108854526D01*
X138604525Y-108854527D01*
X138604524Y-108854528D01*
X138576875Y-108890561D01*
X138520447Y-108931763D01*
X138450701Y-108935918D01*
X138389781Y-108901705D01*
X138357029Y-108839988D01*
X138354500Y-108815074D01*
X138354500Y-107737811D01*
X138374185Y-107670772D01*
X138390819Y-107650130D01*
X138395469Y-107645479D01*
X138395471Y-107645476D01*
X138395474Y-107645474D01*
X138484355Y-107529643D01*
X138540228Y-107394754D01*
X138559285Y-107250000D01*
X138557385Y-107235571D01*
X138540228Y-107105247D01*
X138540228Y-107105246D01*
X138484355Y-106970358D01*
X138395474Y-106854526D01*
X138279643Y-106765645D01*
X138279640Y-106765644D01*
X138279638Y-106765642D01*
X138144757Y-106709773D01*
X138144752Y-106709771D01*
X138000001Y-106690715D01*
X137999999Y-106690715D01*
X137855247Y-106709771D01*
X137855245Y-106709772D01*
X137720361Y-106765643D01*
X137720358Y-106765644D01*
X137720358Y-106765645D01*
X137604529Y-106854524D01*
X137604526Y-106854526D01*
X137515643Y-106970361D01*
X137459772Y-107105245D01*
X137459771Y-107105247D01*
X137440715Y-107249998D01*
X137440715Y-107250001D01*
X137459771Y-107394752D01*
X137459773Y-107394757D01*
X137515642Y-107529638D01*
X137515642Y-107529639D01*
X137604530Y-107645479D01*
X137609181Y-107650130D01*
X137642666Y-107711453D01*
X137645500Y-107737811D01*
X137645500Y-111065074D01*
X137625815Y-111132113D01*
X137573011Y-111177868D01*
X137503853Y-111187812D01*
X137440297Y-111158787D01*
X137423125Y-111140561D01*
X137395474Y-111104526D01*
X137376528Y-111089988D01*
X137279643Y-111015645D01*
X137279640Y-111015644D01*
X137279638Y-111015642D01*
X137144757Y-110959773D01*
X137144752Y-110959771D01*
X137000001Y-110940715D01*
X136999999Y-110940715D01*
X136855247Y-110959771D01*
X136855245Y-110959772D01*
X136720361Y-111015643D01*
X136720358Y-111015644D01*
X136720358Y-111015645D01*
X136604526Y-111104526D01*
X136540619Y-111187812D01*
X136515643Y-111220361D01*
X136459772Y-111355245D01*
X136459771Y-111355247D01*
X136440715Y-111499998D01*
X136440715Y-111500001D01*
X136459771Y-111644752D01*
X136459773Y-111644757D01*
X136515642Y-111779638D01*
X136515642Y-111779639D01*
X136515644Y-111779642D01*
X136515645Y-111779643D01*
X136598377Y-111887461D01*
X136604530Y-111895479D01*
X136609181Y-111900130D01*
X136642666Y-111961453D01*
X136645500Y-111987811D01*
X136645500Y-112315074D01*
X136625815Y-112382113D01*
X136573011Y-112427868D01*
X136503853Y-112437812D01*
X136440297Y-112408787D01*
X136423125Y-112390561D01*
X136395474Y-112354526D01*
X136376528Y-112339988D01*
X136279643Y-112265645D01*
X136279640Y-112265644D01*
X136279638Y-112265642D01*
X136144757Y-112209773D01*
X136144752Y-112209771D01*
X136000001Y-112190715D01*
X135999999Y-112190715D01*
X135855247Y-112209771D01*
X135855245Y-112209772D01*
X135720361Y-112265643D01*
X135720358Y-112265644D01*
X135720358Y-112265645D01*
X135604526Y-112354526D01*
X135604525Y-112354527D01*
X135604524Y-112354528D01*
X135598375Y-112362542D01*
X135541947Y-112403744D01*
X135472201Y-112407899D01*
X135411281Y-112373686D01*
X135401625Y-112362542D01*
X135395474Y-112354526D01*
X135376528Y-112339988D01*
X135279643Y-112265645D01*
X135279640Y-112265644D01*
X135279638Y-112265642D01*
X135144757Y-112209773D01*
X135144752Y-112209771D01*
X135000001Y-112190715D01*
X134999999Y-112190715D01*
X134855247Y-112209771D01*
X134855245Y-112209772D01*
X134720361Y-112265643D01*
X134720358Y-112265644D01*
X134720358Y-112265645D01*
X134604526Y-112354526D01*
X134604525Y-112354527D01*
X134604524Y-112354528D01*
X134576875Y-112390561D01*
X134520447Y-112431763D01*
X134450701Y-112435918D01*
X134389781Y-112401705D01*
X134357029Y-112339988D01*
X134354500Y-112315074D01*
X134354500Y-111237811D01*
X134374185Y-111170772D01*
X134390819Y-111150130D01*
X134395469Y-111145479D01*
X134395471Y-111145476D01*
X134395474Y-111145474D01*
X134484355Y-111029643D01*
X134540228Y-110894754D01*
X134559285Y-110750000D01*
X134540228Y-110605246D01*
X134484355Y-110470358D01*
X134395474Y-110354526D01*
X134279643Y-110265645D01*
X134279640Y-110265644D01*
X134279638Y-110265642D01*
X134144757Y-110209773D01*
X134144752Y-110209771D01*
X134000001Y-110190715D01*
X133999999Y-110190715D01*
X133855247Y-110209771D01*
X133855245Y-110209772D01*
X133720361Y-110265643D01*
X133604526Y-110354526D01*
X133515643Y-110470361D01*
X133459772Y-110605245D01*
X133459771Y-110605247D01*
X133440715Y-110749998D01*
X110500500Y-110749998D01*
X110500500Y-96124000D01*
X110520185Y-96056961D01*
X110572989Y-96011206D01*
X110624500Y-96000000D01*
X172375500Y-96000000D01*
X172442539Y-96019685D01*
G37*
%TD.AperFunction*%
%TD*%
M02*
