%TF.GenerationSoftware,KiCad,Pcbnew,8.0.5*%
%TF.CreationDate,2025-05-26T10:54:04-04:00*%
%TF.ProjectId,tcg_counter,7463675f-636f-4756-9e74-65722e6b6963,1*%
%TF.SameCoordinates,Original*%
%TF.FileFunction,Drillmap*%
%TF.FilePolarity,Positive*%
%FSLAX45Y45*%
G04 Gerber Fmt 4.5, Leading zero omitted, Abs format (unit mm)*
G04 Created by KiCad (PCBNEW 8.0.5) date 2025-05-26 10:54:04*
%MOMM*%
%LPD*%
G01*
G04 APERTURE LIST*
%ADD10C,0.050000*%
%ADD11C,0.200000*%
%ADD12C,0.100000*%
G04 APERTURE END LIST*
D10*
X17300000Y-13100000D02*
G75*
G02*
X17100000Y-13300000I-200000J0D01*
G01*
X11000000Y-4700000D02*
G75*
G02*
X11200000Y-4500000I200000J0D01*
G01*
X11000000Y-13100000D02*
X11000000Y-4700000D01*
X11200000Y-13300000D02*
G75*
G02*
X11000000Y-13100000I0J200000D01*
G01*
X17100000Y-4500000D02*
G75*
G02*
X17300000Y-4700000I0J-200000D01*
G01*
X17100000Y-13300000D02*
X11200000Y-13300000D01*
X17300000Y-4700000D02*
X17300000Y-13100000D01*
X11200000Y-4500000D02*
X17100000Y-4500000D01*
D11*
D12*
X13420000Y-10390000D02*
X13440000Y-10410000D01*
X13440000Y-10390000D02*
X13420000Y-10410000D01*
X13500000Y-10310000D02*
X13520000Y-10330000D01*
X13520000Y-10310000D02*
X13500000Y-10330000D01*
X13500000Y-10390000D02*
X13520000Y-10410000D01*
X13520000Y-10390000D02*
X13500000Y-10410000D01*
X13500000Y-10470000D02*
X13520000Y-10490000D01*
X13520000Y-10470000D02*
X13500000Y-10490000D01*
X13580000Y-10390000D02*
X13600000Y-10410000D01*
X13600000Y-10390000D02*
X13580000Y-10410000D01*
X14680000Y-10379230D02*
X14700000Y-10399230D01*
X14700000Y-10379230D02*
X14680000Y-10399230D01*
X14765000Y-10294230D02*
X14785000Y-10314230D01*
X14785000Y-10294230D02*
X14765000Y-10314230D01*
X14765000Y-10379230D02*
X14785000Y-10399230D01*
X14785000Y-10379230D02*
X14765000Y-10399230D01*
X14765000Y-10464230D02*
X14785000Y-10484230D01*
X14785000Y-10464230D02*
X14765000Y-10484230D01*
X14850000Y-10379230D02*
X14870000Y-10399230D01*
X14870000Y-10379230D02*
X14850000Y-10399230D01*
X12965000Y-10075000D02*
G75*
G02*
X12935000Y-10075000I-15000J0D01*
G01*
X12935000Y-10075000D02*
G75*
G02*
X12965000Y-10075000I15000J0D01*
G01*
X12965000Y-10500000D02*
G75*
G02*
X12935000Y-10500000I-15000J0D01*
G01*
X12935000Y-10500000D02*
G75*
G02*
X12965000Y-10500000I15000J0D01*
G01*
X12965000Y-10925000D02*
G75*
G02*
X12935000Y-10925000I-15000J0D01*
G01*
X12935000Y-10925000D02*
G75*
G02*
X12965000Y-10925000I15000J0D01*
G01*
X13060000Y-12150000D02*
G75*
G02*
X13030000Y-12150000I-15000J0D01*
G01*
X13030000Y-12150000D02*
G75*
G02*
X13060000Y-12150000I15000J0D01*
G01*
X13180000Y-12533431D02*
G75*
G02*
X13150000Y-12533431I-15000J0D01*
G01*
X13150000Y-12533431D02*
G75*
G02*
X13180000Y-12533431I15000J0D01*
G01*
X13240000Y-9725000D02*
G75*
G02*
X13210000Y-9725000I-15000J0D01*
G01*
X13210000Y-9725000D02*
G75*
G02*
X13240000Y-9725000I15000J0D01*
G01*
X13240000Y-12925000D02*
G75*
G02*
X13210000Y-12925000I-15000J0D01*
G01*
X13210000Y-12925000D02*
G75*
G02*
X13240000Y-12925000I15000J0D01*
G01*
X13315000Y-12325000D02*
G75*
G02*
X13285000Y-12325000I-15000J0D01*
G01*
X13285000Y-12325000D02*
G75*
G02*
X13315000Y-12325000I15000J0D01*
G01*
X13365000Y-9425000D02*
G75*
G02*
X13335000Y-9425000I-15000J0D01*
G01*
X13335000Y-9425000D02*
G75*
G02*
X13365000Y-9425000I15000J0D01*
G01*
X13415000Y-10850000D02*
G75*
G02*
X13385000Y-10850000I-15000J0D01*
G01*
X13385000Y-10850000D02*
G75*
G02*
X13415000Y-10850000I15000J0D01*
G01*
X13415000Y-11075000D02*
G75*
G02*
X13385000Y-11075000I-15000J0D01*
G01*
X13385000Y-11075000D02*
G75*
G02*
X13415000Y-11075000I15000J0D01*
G01*
X13465000Y-12300000D02*
G75*
G02*
X13435000Y-12300000I-15000J0D01*
G01*
X13435000Y-12300000D02*
G75*
G02*
X13465000Y-12300000I15000J0D01*
G01*
X13490000Y-13000000D02*
G75*
G02*
X13460000Y-13000000I-15000J0D01*
G01*
X13460000Y-13000000D02*
G75*
G02*
X13490000Y-13000000I15000J0D01*
G01*
X13515000Y-11275000D02*
G75*
G02*
X13485000Y-11275000I-15000J0D01*
G01*
X13485000Y-11275000D02*
G75*
G02*
X13515000Y-11275000I15000J0D01*
G01*
X13612678Y-10093405D02*
G75*
G02*
X13582678Y-10093405I-15000J0D01*
G01*
X13582678Y-10093405D02*
G75*
G02*
X13612678Y-10093405I15000J0D01*
G01*
X13615000Y-10700000D02*
G75*
G02*
X13585000Y-10700000I-15000J0D01*
G01*
X13585000Y-10700000D02*
G75*
G02*
X13615000Y-10700000I15000J0D01*
G01*
X13615000Y-11275000D02*
G75*
G02*
X13585000Y-11275000I-15000J0D01*
G01*
X13585000Y-11275000D02*
G75*
G02*
X13615000Y-11275000I15000J0D01*
G01*
X13665000Y-12300000D02*
G75*
G02*
X13635000Y-12300000I-15000J0D01*
G01*
X13635000Y-12300000D02*
G75*
G02*
X13665000Y-12300000I15000J0D01*
G01*
X13715000Y-9675000D02*
G75*
G02*
X13685000Y-9675000I-15000J0D01*
G01*
X13685000Y-9675000D02*
G75*
G02*
X13715000Y-9675000I15000J0D01*
G01*
X13715000Y-11150000D02*
G75*
G02*
X13685000Y-11150000I-15000J0D01*
G01*
X13685000Y-11150000D02*
G75*
G02*
X13715000Y-11150000I15000J0D01*
G01*
X13790000Y-10475000D02*
G75*
G02*
X13760000Y-10475000I-15000J0D01*
G01*
X13760000Y-10475000D02*
G75*
G02*
X13790000Y-10475000I15000J0D01*
G01*
X13790000Y-10555000D02*
G75*
G02*
X13760000Y-10555000I-15000J0D01*
G01*
X13760000Y-10555000D02*
G75*
G02*
X13790000Y-10555000I15000J0D01*
G01*
X13815000Y-10725000D02*
G75*
G02*
X13785000Y-10725000I-15000J0D01*
G01*
X13785000Y-10725000D02*
G75*
G02*
X13815000Y-10725000I15000J0D01*
G01*
X13915000Y-10925000D02*
G75*
G02*
X13885000Y-10925000I-15000J0D01*
G01*
X13885000Y-10925000D02*
G75*
G02*
X13915000Y-10925000I15000J0D01*
G01*
X13940000Y-9925000D02*
G75*
G02*
X13910000Y-9925000I-15000J0D01*
G01*
X13910000Y-9925000D02*
G75*
G02*
X13940000Y-9925000I15000J0D01*
G01*
X13965000Y-10125000D02*
G75*
G02*
X13935000Y-10125000I-15000J0D01*
G01*
X13935000Y-10125000D02*
G75*
G02*
X13965000Y-10125000I15000J0D01*
G01*
X14015000Y-11150000D02*
G75*
G02*
X13985000Y-11150000I-15000J0D01*
G01*
X13985000Y-11150000D02*
G75*
G02*
X14015000Y-11150000I15000J0D01*
G01*
X14089230Y-10250000D02*
G75*
G02*
X14059230Y-10250000I-15000J0D01*
G01*
X14059230Y-10250000D02*
G75*
G02*
X14089230Y-10250000I15000J0D01*
G01*
X14115000Y-11150000D02*
G75*
G02*
X14085000Y-11150000I-15000J0D01*
G01*
X14085000Y-11150000D02*
G75*
G02*
X14115000Y-11150000I15000J0D01*
G01*
X14215000Y-11150000D02*
G75*
G02*
X14185000Y-11150000I-15000J0D01*
G01*
X14185000Y-11150000D02*
G75*
G02*
X14215000Y-11150000I15000J0D01*
G01*
X14290000Y-10151000D02*
G75*
G02*
X14260000Y-10151000I-15000J0D01*
G01*
X14260000Y-10151000D02*
G75*
G02*
X14290000Y-10151000I15000J0D01*
G01*
X14315000Y-10725000D02*
G75*
G02*
X14285000Y-10725000I-15000J0D01*
G01*
X14285000Y-10725000D02*
G75*
G02*
X14315000Y-10725000I15000J0D01*
G01*
X14340000Y-10025000D02*
G75*
G02*
X14310000Y-10025000I-15000J0D01*
G01*
X14310000Y-10025000D02*
G75*
G02*
X14340000Y-10025000I15000J0D01*
G01*
X14390000Y-10550000D02*
G75*
G02*
X14360000Y-10550000I-15000J0D01*
G01*
X14360000Y-10550000D02*
G75*
G02*
X14390000Y-10550000I15000J0D01*
G01*
X14415000Y-10750000D02*
G75*
G02*
X14385000Y-10750000I-15000J0D01*
G01*
X14385000Y-10750000D02*
G75*
G02*
X14415000Y-10750000I15000J0D01*
G01*
X14450000Y-10450000D02*
G75*
G02*
X14420000Y-10450000I-15000J0D01*
G01*
X14420000Y-10450000D02*
G75*
G02*
X14450000Y-10450000I15000J0D01*
G01*
X14490000Y-10250000D02*
G75*
G02*
X14460000Y-10250000I-15000J0D01*
G01*
X14460000Y-10250000D02*
G75*
G02*
X14490000Y-10250000I15000J0D01*
G01*
X14515000Y-7200000D02*
G75*
G02*
X14485000Y-7200000I-15000J0D01*
G01*
X14485000Y-7200000D02*
G75*
G02*
X14515000Y-7200000I15000J0D01*
G01*
X14515000Y-10765000D02*
G75*
G02*
X14485000Y-10765000I-15000J0D01*
G01*
X14485000Y-10765000D02*
G75*
G02*
X14515000Y-10765000I15000J0D01*
G01*
X14715000Y-10775000D02*
G75*
G02*
X14685000Y-10775000I-15000J0D01*
G01*
X14685000Y-10775000D02*
G75*
G02*
X14715000Y-10775000I15000J0D01*
G01*
X14740000Y-9750000D02*
G75*
G02*
X14710000Y-9750000I-15000J0D01*
G01*
X14710000Y-9750000D02*
G75*
G02*
X14740000Y-9750000I15000J0D01*
G01*
X14805000Y-10775000D02*
G75*
G02*
X14775000Y-10775000I-15000J0D01*
G01*
X14775000Y-10775000D02*
G75*
G02*
X14805000Y-10775000I15000J0D01*
G01*
X14840000Y-9750000D02*
G75*
G02*
X14810000Y-9750000I-15000J0D01*
G01*
X14810000Y-9750000D02*
G75*
G02*
X14840000Y-9750000I15000J0D01*
G01*
X14965000Y-10100000D02*
G75*
G02*
X14935000Y-10100000I-15000J0D01*
G01*
X14935000Y-10100000D02*
G75*
G02*
X14965000Y-10100000I15000J0D01*
G01*
D11*
X11258277Y-13613984D02*
X11258277Y-13413984D01*
X11258277Y-13413984D02*
X11305896Y-13413984D01*
X11305896Y-13413984D02*
X11334467Y-13423508D01*
X11334467Y-13423508D02*
X11353515Y-13442555D01*
X11353515Y-13442555D02*
X11363039Y-13461603D01*
X11363039Y-13461603D02*
X11372562Y-13499698D01*
X11372562Y-13499698D02*
X11372562Y-13528269D01*
X11372562Y-13528269D02*
X11363039Y-13566365D01*
X11363039Y-13566365D02*
X11353515Y-13585412D01*
X11353515Y-13585412D02*
X11334467Y-13604460D01*
X11334467Y-13604460D02*
X11305896Y-13613984D01*
X11305896Y-13613984D02*
X11258277Y-13613984D01*
X11458277Y-13613984D02*
X11458277Y-13480650D01*
X11458277Y-13518746D02*
X11467801Y-13499698D01*
X11467801Y-13499698D02*
X11477324Y-13490174D01*
X11477324Y-13490174D02*
X11496372Y-13480650D01*
X11496372Y-13480650D02*
X11515420Y-13480650D01*
X11582086Y-13613984D02*
X11582086Y-13480650D01*
X11582086Y-13413984D02*
X11572562Y-13423508D01*
X11572562Y-13423508D02*
X11582086Y-13433031D01*
X11582086Y-13433031D02*
X11591610Y-13423508D01*
X11591610Y-13423508D02*
X11582086Y-13413984D01*
X11582086Y-13413984D02*
X11582086Y-13433031D01*
X11705896Y-13613984D02*
X11686848Y-13604460D01*
X11686848Y-13604460D02*
X11677324Y-13585412D01*
X11677324Y-13585412D02*
X11677324Y-13413984D01*
X11810658Y-13613984D02*
X11791610Y-13604460D01*
X11791610Y-13604460D02*
X11782086Y-13585412D01*
X11782086Y-13585412D02*
X11782086Y-13413984D01*
X12039229Y-13613984D02*
X12039229Y-13413984D01*
X12039229Y-13413984D02*
X12105896Y-13556841D01*
X12105896Y-13556841D02*
X12172562Y-13413984D01*
X12172562Y-13413984D02*
X12172562Y-13613984D01*
X12353515Y-13613984D02*
X12353515Y-13509222D01*
X12353515Y-13509222D02*
X12343991Y-13490174D01*
X12343991Y-13490174D02*
X12324943Y-13480650D01*
X12324943Y-13480650D02*
X12286848Y-13480650D01*
X12286848Y-13480650D02*
X12267801Y-13490174D01*
X12353515Y-13604460D02*
X12334467Y-13613984D01*
X12334467Y-13613984D02*
X12286848Y-13613984D01*
X12286848Y-13613984D02*
X12267801Y-13604460D01*
X12267801Y-13604460D02*
X12258277Y-13585412D01*
X12258277Y-13585412D02*
X12258277Y-13566365D01*
X12258277Y-13566365D02*
X12267801Y-13547317D01*
X12267801Y-13547317D02*
X12286848Y-13537793D01*
X12286848Y-13537793D02*
X12334467Y-13537793D01*
X12334467Y-13537793D02*
X12353515Y-13528269D01*
X12448753Y-13480650D02*
X12448753Y-13680650D01*
X12448753Y-13490174D02*
X12467801Y-13480650D01*
X12467801Y-13480650D02*
X12505896Y-13480650D01*
X12505896Y-13480650D02*
X12524943Y-13490174D01*
X12524943Y-13490174D02*
X12534467Y-13499698D01*
X12534467Y-13499698D02*
X12543991Y-13518746D01*
X12543991Y-13518746D02*
X12543991Y-13575888D01*
X12543991Y-13575888D02*
X12534467Y-13594936D01*
X12534467Y-13594936D02*
X12524943Y-13604460D01*
X12524943Y-13604460D02*
X12505896Y-13613984D01*
X12505896Y-13613984D02*
X12467801Y-13613984D01*
X12467801Y-13613984D02*
X12448753Y-13604460D01*
X12629705Y-13594936D02*
X12639229Y-13604460D01*
X12639229Y-13604460D02*
X12629705Y-13613984D01*
X12629705Y-13613984D02*
X12620182Y-13604460D01*
X12620182Y-13604460D02*
X12629705Y-13594936D01*
X12629705Y-13594936D02*
X12629705Y-13613984D01*
X12629705Y-13490174D02*
X12639229Y-13499698D01*
X12639229Y-13499698D02*
X12629705Y-13509222D01*
X12629705Y-13509222D02*
X12620182Y-13499698D01*
X12620182Y-13499698D02*
X12629705Y-13490174D01*
X12629705Y-13490174D02*
X12629705Y-13509222D01*
D12*
X10977500Y-13932500D02*
X10997500Y-13952500D01*
X10997500Y-13932500D02*
X10977500Y-13952500D01*
D11*
X11296372Y-13833984D02*
X11315420Y-13833984D01*
X11315420Y-13833984D02*
X11334467Y-13843508D01*
X11334467Y-13843508D02*
X11343991Y-13853031D01*
X11343991Y-13853031D02*
X11353515Y-13872079D01*
X11353515Y-13872079D02*
X11363039Y-13910174D01*
X11363039Y-13910174D02*
X11363039Y-13957793D01*
X11363039Y-13957793D02*
X11353515Y-13995888D01*
X11353515Y-13995888D02*
X11343991Y-14014936D01*
X11343991Y-14014936D02*
X11334467Y-14024460D01*
X11334467Y-14024460D02*
X11315420Y-14033984D01*
X11315420Y-14033984D02*
X11296372Y-14033984D01*
X11296372Y-14033984D02*
X11277324Y-14024460D01*
X11277324Y-14024460D02*
X11267801Y-14014936D01*
X11267801Y-14014936D02*
X11258277Y-13995888D01*
X11258277Y-13995888D02*
X11248753Y-13957793D01*
X11248753Y-13957793D02*
X11248753Y-13910174D01*
X11248753Y-13910174D02*
X11258277Y-13872079D01*
X11258277Y-13872079D02*
X11267801Y-13853031D01*
X11267801Y-13853031D02*
X11277324Y-13843508D01*
X11277324Y-13843508D02*
X11296372Y-13833984D01*
X11448753Y-14014936D02*
X11458277Y-14024460D01*
X11458277Y-14024460D02*
X11448753Y-14033984D01*
X11448753Y-14033984D02*
X11439229Y-14024460D01*
X11439229Y-14024460D02*
X11448753Y-14014936D01*
X11448753Y-14014936D02*
X11448753Y-14033984D01*
X11534467Y-13853031D02*
X11543991Y-13843508D01*
X11543991Y-13843508D02*
X11563039Y-13833984D01*
X11563039Y-13833984D02*
X11610658Y-13833984D01*
X11610658Y-13833984D02*
X11629705Y-13843508D01*
X11629705Y-13843508D02*
X11639229Y-13853031D01*
X11639229Y-13853031D02*
X11648753Y-13872079D01*
X11648753Y-13872079D02*
X11648753Y-13891127D01*
X11648753Y-13891127D02*
X11639229Y-13919698D01*
X11639229Y-13919698D02*
X11524943Y-14033984D01*
X11524943Y-14033984D02*
X11648753Y-14033984D01*
X11772562Y-13833984D02*
X11791610Y-13833984D01*
X11791610Y-13833984D02*
X11810658Y-13843508D01*
X11810658Y-13843508D02*
X11820182Y-13853031D01*
X11820182Y-13853031D02*
X11829705Y-13872079D01*
X11829705Y-13872079D02*
X11839229Y-13910174D01*
X11839229Y-13910174D02*
X11839229Y-13957793D01*
X11839229Y-13957793D02*
X11829705Y-13995888D01*
X11829705Y-13995888D02*
X11820182Y-14014936D01*
X11820182Y-14014936D02*
X11810658Y-14024460D01*
X11810658Y-14024460D02*
X11791610Y-14033984D01*
X11791610Y-14033984D02*
X11772562Y-14033984D01*
X11772562Y-14033984D02*
X11753515Y-14024460D01*
X11753515Y-14024460D02*
X11743991Y-14014936D01*
X11743991Y-14014936D02*
X11734467Y-13995888D01*
X11734467Y-13995888D02*
X11724943Y-13957793D01*
X11724943Y-13957793D02*
X11724943Y-13910174D01*
X11724943Y-13910174D02*
X11734467Y-13872079D01*
X11734467Y-13872079D02*
X11743991Y-13853031D01*
X11743991Y-13853031D02*
X11753515Y-13843508D01*
X11753515Y-13843508D02*
X11772562Y-13833984D01*
X11963039Y-13833984D02*
X11982086Y-13833984D01*
X11982086Y-13833984D02*
X12001134Y-13843508D01*
X12001134Y-13843508D02*
X12010658Y-13853031D01*
X12010658Y-13853031D02*
X12020182Y-13872079D01*
X12020182Y-13872079D02*
X12029705Y-13910174D01*
X12029705Y-13910174D02*
X12029705Y-13957793D01*
X12029705Y-13957793D02*
X12020182Y-13995888D01*
X12020182Y-13995888D02*
X12010658Y-14014936D01*
X12010658Y-14014936D02*
X12001134Y-14024460D01*
X12001134Y-14024460D02*
X11982086Y-14033984D01*
X11982086Y-14033984D02*
X11963039Y-14033984D01*
X11963039Y-14033984D02*
X11943991Y-14024460D01*
X11943991Y-14024460D02*
X11934467Y-14014936D01*
X11934467Y-14014936D02*
X11924943Y-13995888D01*
X11924943Y-13995888D02*
X11915420Y-13957793D01*
X11915420Y-13957793D02*
X11915420Y-13910174D01*
X11915420Y-13910174D02*
X11924943Y-13872079D01*
X11924943Y-13872079D02*
X11934467Y-13853031D01*
X11934467Y-13853031D02*
X11943991Y-13843508D01*
X11943991Y-13843508D02*
X11963039Y-13833984D01*
X12115420Y-14033984D02*
X12115420Y-13900650D01*
X12115420Y-13919698D02*
X12124943Y-13910174D01*
X12124943Y-13910174D02*
X12143991Y-13900650D01*
X12143991Y-13900650D02*
X12172563Y-13900650D01*
X12172563Y-13900650D02*
X12191610Y-13910174D01*
X12191610Y-13910174D02*
X12201134Y-13929222D01*
X12201134Y-13929222D02*
X12201134Y-14033984D01*
X12201134Y-13929222D02*
X12210658Y-13910174D01*
X12210658Y-13910174D02*
X12229705Y-13900650D01*
X12229705Y-13900650D02*
X12258277Y-13900650D01*
X12258277Y-13900650D02*
X12277324Y-13910174D01*
X12277324Y-13910174D02*
X12286848Y-13929222D01*
X12286848Y-13929222D02*
X12286848Y-14033984D01*
X12382086Y-14033984D02*
X12382086Y-13900650D01*
X12382086Y-13919698D02*
X12391610Y-13910174D01*
X12391610Y-13910174D02*
X12410658Y-13900650D01*
X12410658Y-13900650D02*
X12439229Y-13900650D01*
X12439229Y-13900650D02*
X12458277Y-13910174D01*
X12458277Y-13910174D02*
X12467801Y-13929222D01*
X12467801Y-13929222D02*
X12467801Y-14033984D01*
X12467801Y-13929222D02*
X12477324Y-13910174D01*
X12477324Y-13910174D02*
X12496372Y-13900650D01*
X12496372Y-13900650D02*
X12524943Y-13900650D01*
X12524943Y-13900650D02*
X12543991Y-13910174D01*
X12543991Y-13910174D02*
X12553515Y-13929222D01*
X12553515Y-13929222D02*
X12553515Y-14033984D01*
X12943991Y-13824460D02*
X12772563Y-14081603D01*
X13201134Y-13833984D02*
X13220182Y-13833984D01*
X13220182Y-13833984D02*
X13239229Y-13843508D01*
X13239229Y-13843508D02*
X13248753Y-13853031D01*
X13248753Y-13853031D02*
X13258277Y-13872079D01*
X13258277Y-13872079D02*
X13267801Y-13910174D01*
X13267801Y-13910174D02*
X13267801Y-13957793D01*
X13267801Y-13957793D02*
X13258277Y-13995888D01*
X13258277Y-13995888D02*
X13248753Y-14014936D01*
X13248753Y-14014936D02*
X13239229Y-14024460D01*
X13239229Y-14024460D02*
X13220182Y-14033984D01*
X13220182Y-14033984D02*
X13201134Y-14033984D01*
X13201134Y-14033984D02*
X13182086Y-14024460D01*
X13182086Y-14024460D02*
X13172563Y-14014936D01*
X13172563Y-14014936D02*
X13163039Y-13995888D01*
X13163039Y-13995888D02*
X13153515Y-13957793D01*
X13153515Y-13957793D02*
X13153515Y-13910174D01*
X13153515Y-13910174D02*
X13163039Y-13872079D01*
X13163039Y-13872079D02*
X13172563Y-13853031D01*
X13172563Y-13853031D02*
X13182086Y-13843508D01*
X13182086Y-13843508D02*
X13201134Y-13833984D01*
X13353515Y-14014936D02*
X13363039Y-14024460D01*
X13363039Y-14024460D02*
X13353515Y-14033984D01*
X13353515Y-14033984D02*
X13343991Y-14024460D01*
X13343991Y-14024460D02*
X13353515Y-14014936D01*
X13353515Y-14014936D02*
X13353515Y-14033984D01*
X13486848Y-13833984D02*
X13505896Y-13833984D01*
X13505896Y-13833984D02*
X13524944Y-13843508D01*
X13524944Y-13843508D02*
X13534467Y-13853031D01*
X13534467Y-13853031D02*
X13543991Y-13872079D01*
X13543991Y-13872079D02*
X13553515Y-13910174D01*
X13553515Y-13910174D02*
X13553515Y-13957793D01*
X13553515Y-13957793D02*
X13543991Y-13995888D01*
X13543991Y-13995888D02*
X13534467Y-14014936D01*
X13534467Y-14014936D02*
X13524944Y-14024460D01*
X13524944Y-14024460D02*
X13505896Y-14033984D01*
X13505896Y-14033984D02*
X13486848Y-14033984D01*
X13486848Y-14033984D02*
X13467801Y-14024460D01*
X13467801Y-14024460D02*
X13458277Y-14014936D01*
X13458277Y-14014936D02*
X13448753Y-13995888D01*
X13448753Y-13995888D02*
X13439229Y-13957793D01*
X13439229Y-13957793D02*
X13439229Y-13910174D01*
X13439229Y-13910174D02*
X13448753Y-13872079D01*
X13448753Y-13872079D02*
X13458277Y-13853031D01*
X13458277Y-13853031D02*
X13467801Y-13843508D01*
X13467801Y-13843508D02*
X13486848Y-13833984D01*
X13677325Y-13833984D02*
X13696372Y-13833984D01*
X13696372Y-13833984D02*
X13715420Y-13843508D01*
X13715420Y-13843508D02*
X13724944Y-13853031D01*
X13724944Y-13853031D02*
X13734467Y-13872079D01*
X13734467Y-13872079D02*
X13743991Y-13910174D01*
X13743991Y-13910174D02*
X13743991Y-13957793D01*
X13743991Y-13957793D02*
X13734467Y-13995888D01*
X13734467Y-13995888D02*
X13724944Y-14014936D01*
X13724944Y-14014936D02*
X13715420Y-14024460D01*
X13715420Y-14024460D02*
X13696372Y-14033984D01*
X13696372Y-14033984D02*
X13677325Y-14033984D01*
X13677325Y-14033984D02*
X13658277Y-14024460D01*
X13658277Y-14024460D02*
X13648753Y-14014936D01*
X13648753Y-14014936D02*
X13639229Y-13995888D01*
X13639229Y-13995888D02*
X13629706Y-13957793D01*
X13629706Y-13957793D02*
X13629706Y-13910174D01*
X13629706Y-13910174D02*
X13639229Y-13872079D01*
X13639229Y-13872079D02*
X13648753Y-13853031D01*
X13648753Y-13853031D02*
X13658277Y-13843508D01*
X13658277Y-13843508D02*
X13677325Y-13833984D01*
X13810658Y-13833984D02*
X13943991Y-13833984D01*
X13943991Y-13833984D02*
X13858277Y-14033984D01*
X14029706Y-14033984D02*
X14067801Y-14033984D01*
X14067801Y-14033984D02*
X14086848Y-14024460D01*
X14086848Y-14024460D02*
X14096372Y-14014936D01*
X14096372Y-14014936D02*
X14115420Y-13986365D01*
X14115420Y-13986365D02*
X14124944Y-13948269D01*
X14124944Y-13948269D02*
X14124944Y-13872079D01*
X14124944Y-13872079D02*
X14115420Y-13853031D01*
X14115420Y-13853031D02*
X14105896Y-13843508D01*
X14105896Y-13843508D02*
X14086848Y-13833984D01*
X14086848Y-13833984D02*
X14048753Y-13833984D01*
X14048753Y-13833984D02*
X14029706Y-13843508D01*
X14029706Y-13843508D02*
X14020182Y-13853031D01*
X14020182Y-13853031D02*
X14010658Y-13872079D01*
X14010658Y-13872079D02*
X14010658Y-13919698D01*
X14010658Y-13919698D02*
X14020182Y-13938746D01*
X14020182Y-13938746D02*
X14029706Y-13948269D01*
X14029706Y-13948269D02*
X14048753Y-13957793D01*
X14048753Y-13957793D02*
X14086848Y-13957793D01*
X14086848Y-13957793D02*
X14105896Y-13948269D01*
X14105896Y-13948269D02*
X14115420Y-13938746D01*
X14115420Y-13938746D02*
X14124944Y-13919698D01*
X14201134Y-13833984D02*
X14201134Y-13872079D01*
X14277325Y-13833984D02*
X14277325Y-13872079D01*
X14572563Y-14110174D02*
X14563039Y-14100650D01*
X14563039Y-14100650D02*
X14543991Y-14072079D01*
X14543991Y-14072079D02*
X14534468Y-14053031D01*
X14534468Y-14053031D02*
X14524944Y-14024460D01*
X14524944Y-14024460D02*
X14515420Y-13976841D01*
X14515420Y-13976841D02*
X14515420Y-13938746D01*
X14515420Y-13938746D02*
X14524944Y-13891127D01*
X14524944Y-13891127D02*
X14534468Y-13862555D01*
X14534468Y-13862555D02*
X14543991Y-13843508D01*
X14543991Y-13843508D02*
X14563039Y-13814936D01*
X14563039Y-13814936D02*
X14572563Y-13805412D01*
X14753515Y-14033984D02*
X14639229Y-14033984D01*
X14696372Y-14033984D02*
X14696372Y-13833984D01*
X14696372Y-13833984D02*
X14677325Y-13862555D01*
X14677325Y-13862555D02*
X14658277Y-13881603D01*
X14658277Y-13881603D02*
X14639229Y-13891127D01*
X14877325Y-13833984D02*
X14896372Y-13833984D01*
X14896372Y-13833984D02*
X14915420Y-13843508D01*
X14915420Y-13843508D02*
X14924944Y-13853031D01*
X14924944Y-13853031D02*
X14934468Y-13872079D01*
X14934468Y-13872079D02*
X14943991Y-13910174D01*
X14943991Y-13910174D02*
X14943991Y-13957793D01*
X14943991Y-13957793D02*
X14934468Y-13995888D01*
X14934468Y-13995888D02*
X14924944Y-14014936D01*
X14924944Y-14014936D02*
X14915420Y-14024460D01*
X14915420Y-14024460D02*
X14896372Y-14033984D01*
X14896372Y-14033984D02*
X14877325Y-14033984D01*
X14877325Y-14033984D02*
X14858277Y-14024460D01*
X14858277Y-14024460D02*
X14848753Y-14014936D01*
X14848753Y-14014936D02*
X14839229Y-13995888D01*
X14839229Y-13995888D02*
X14829706Y-13957793D01*
X14829706Y-13957793D02*
X14829706Y-13910174D01*
X14829706Y-13910174D02*
X14839229Y-13872079D01*
X14839229Y-13872079D02*
X14848753Y-13853031D01*
X14848753Y-13853031D02*
X14858277Y-13843508D01*
X14858277Y-13843508D02*
X14877325Y-13833984D01*
X15182087Y-14033984D02*
X15182087Y-13833984D01*
X15267801Y-14033984D02*
X15267801Y-13929222D01*
X15267801Y-13929222D02*
X15258277Y-13910174D01*
X15258277Y-13910174D02*
X15239230Y-13900650D01*
X15239230Y-13900650D02*
X15210658Y-13900650D01*
X15210658Y-13900650D02*
X15191610Y-13910174D01*
X15191610Y-13910174D02*
X15182087Y-13919698D01*
X15391610Y-14033984D02*
X15372563Y-14024460D01*
X15372563Y-14024460D02*
X15363039Y-14014936D01*
X15363039Y-14014936D02*
X15353515Y-13995888D01*
X15353515Y-13995888D02*
X15353515Y-13938746D01*
X15353515Y-13938746D02*
X15363039Y-13919698D01*
X15363039Y-13919698D02*
X15372563Y-13910174D01*
X15372563Y-13910174D02*
X15391610Y-13900650D01*
X15391610Y-13900650D02*
X15420182Y-13900650D01*
X15420182Y-13900650D02*
X15439230Y-13910174D01*
X15439230Y-13910174D02*
X15448753Y-13919698D01*
X15448753Y-13919698D02*
X15458277Y-13938746D01*
X15458277Y-13938746D02*
X15458277Y-13995888D01*
X15458277Y-13995888D02*
X15448753Y-14014936D01*
X15448753Y-14014936D02*
X15439230Y-14024460D01*
X15439230Y-14024460D02*
X15420182Y-14033984D01*
X15420182Y-14033984D02*
X15391610Y-14033984D01*
X15572563Y-14033984D02*
X15553515Y-14024460D01*
X15553515Y-14024460D02*
X15543991Y-14005412D01*
X15543991Y-14005412D02*
X15543991Y-13833984D01*
X15724944Y-14024460D02*
X15705896Y-14033984D01*
X15705896Y-14033984D02*
X15667801Y-14033984D01*
X15667801Y-14033984D02*
X15648753Y-14024460D01*
X15648753Y-14024460D02*
X15639230Y-14005412D01*
X15639230Y-14005412D02*
X15639230Y-13929222D01*
X15639230Y-13929222D02*
X15648753Y-13910174D01*
X15648753Y-13910174D02*
X15667801Y-13900650D01*
X15667801Y-13900650D02*
X15705896Y-13900650D01*
X15705896Y-13900650D02*
X15724944Y-13910174D01*
X15724944Y-13910174D02*
X15734468Y-13929222D01*
X15734468Y-13929222D02*
X15734468Y-13948269D01*
X15734468Y-13948269D02*
X15639230Y-13967317D01*
X15810658Y-14024460D02*
X15829706Y-14033984D01*
X15829706Y-14033984D02*
X15867801Y-14033984D01*
X15867801Y-14033984D02*
X15886849Y-14024460D01*
X15886849Y-14024460D02*
X15896372Y-14005412D01*
X15896372Y-14005412D02*
X15896372Y-13995888D01*
X15896372Y-13995888D02*
X15886849Y-13976841D01*
X15886849Y-13976841D02*
X15867801Y-13967317D01*
X15867801Y-13967317D02*
X15839230Y-13967317D01*
X15839230Y-13967317D02*
X15820182Y-13957793D01*
X15820182Y-13957793D02*
X15810658Y-13938746D01*
X15810658Y-13938746D02*
X15810658Y-13929222D01*
X15810658Y-13929222D02*
X15820182Y-13910174D01*
X15820182Y-13910174D02*
X15839230Y-13900650D01*
X15839230Y-13900650D02*
X15867801Y-13900650D01*
X15867801Y-13900650D02*
X15886849Y-13910174D01*
X15963039Y-14110174D02*
X15972563Y-14100650D01*
X15972563Y-14100650D02*
X15991611Y-14072079D01*
X15991611Y-14072079D02*
X16001134Y-14053031D01*
X16001134Y-14053031D02*
X16010658Y-14024460D01*
X16010658Y-14024460D02*
X16020182Y-13976841D01*
X16020182Y-13976841D02*
X16020182Y-13938746D01*
X16020182Y-13938746D02*
X16010658Y-13891127D01*
X16010658Y-13891127D02*
X16001134Y-13862555D01*
X16001134Y-13862555D02*
X15991611Y-13843508D01*
X15991611Y-13843508D02*
X15972563Y-13814936D01*
X15972563Y-13814936D02*
X15963039Y-13805412D01*
D12*
X10997500Y-14206500D02*
G75*
G02*
X10967500Y-14206500I-15000J0D01*
G01*
X10967500Y-14206500D02*
G75*
G02*
X10997500Y-14206500I15000J0D01*
G01*
D11*
X11296372Y-14097984D02*
X11315420Y-14097984D01*
X11315420Y-14097984D02*
X11334467Y-14107508D01*
X11334467Y-14107508D02*
X11343991Y-14117031D01*
X11343991Y-14117031D02*
X11353515Y-14136079D01*
X11353515Y-14136079D02*
X11363039Y-14174174D01*
X11363039Y-14174174D02*
X11363039Y-14221793D01*
X11363039Y-14221793D02*
X11353515Y-14259888D01*
X11353515Y-14259888D02*
X11343991Y-14278936D01*
X11343991Y-14278936D02*
X11334467Y-14288460D01*
X11334467Y-14288460D02*
X11315420Y-14297984D01*
X11315420Y-14297984D02*
X11296372Y-14297984D01*
X11296372Y-14297984D02*
X11277324Y-14288460D01*
X11277324Y-14288460D02*
X11267801Y-14278936D01*
X11267801Y-14278936D02*
X11258277Y-14259888D01*
X11258277Y-14259888D02*
X11248753Y-14221793D01*
X11248753Y-14221793D02*
X11248753Y-14174174D01*
X11248753Y-14174174D02*
X11258277Y-14136079D01*
X11258277Y-14136079D02*
X11267801Y-14117031D01*
X11267801Y-14117031D02*
X11277324Y-14107508D01*
X11277324Y-14107508D02*
X11296372Y-14097984D01*
X11448753Y-14278936D02*
X11458277Y-14288460D01*
X11458277Y-14288460D02*
X11448753Y-14297984D01*
X11448753Y-14297984D02*
X11439229Y-14288460D01*
X11439229Y-14288460D02*
X11448753Y-14278936D01*
X11448753Y-14278936D02*
X11448753Y-14297984D01*
X11524943Y-14097984D02*
X11648753Y-14097984D01*
X11648753Y-14097984D02*
X11582086Y-14174174D01*
X11582086Y-14174174D02*
X11610658Y-14174174D01*
X11610658Y-14174174D02*
X11629705Y-14183698D01*
X11629705Y-14183698D02*
X11639229Y-14193222D01*
X11639229Y-14193222D02*
X11648753Y-14212269D01*
X11648753Y-14212269D02*
X11648753Y-14259888D01*
X11648753Y-14259888D02*
X11639229Y-14278936D01*
X11639229Y-14278936D02*
X11629705Y-14288460D01*
X11629705Y-14288460D02*
X11610658Y-14297984D01*
X11610658Y-14297984D02*
X11553515Y-14297984D01*
X11553515Y-14297984D02*
X11534467Y-14288460D01*
X11534467Y-14288460D02*
X11524943Y-14278936D01*
X11772562Y-14097984D02*
X11791610Y-14097984D01*
X11791610Y-14097984D02*
X11810658Y-14107508D01*
X11810658Y-14107508D02*
X11820182Y-14117031D01*
X11820182Y-14117031D02*
X11829705Y-14136079D01*
X11829705Y-14136079D02*
X11839229Y-14174174D01*
X11839229Y-14174174D02*
X11839229Y-14221793D01*
X11839229Y-14221793D02*
X11829705Y-14259888D01*
X11829705Y-14259888D02*
X11820182Y-14278936D01*
X11820182Y-14278936D02*
X11810658Y-14288460D01*
X11810658Y-14288460D02*
X11791610Y-14297984D01*
X11791610Y-14297984D02*
X11772562Y-14297984D01*
X11772562Y-14297984D02*
X11753515Y-14288460D01*
X11753515Y-14288460D02*
X11743991Y-14278936D01*
X11743991Y-14278936D02*
X11734467Y-14259888D01*
X11734467Y-14259888D02*
X11724943Y-14221793D01*
X11724943Y-14221793D02*
X11724943Y-14174174D01*
X11724943Y-14174174D02*
X11734467Y-14136079D01*
X11734467Y-14136079D02*
X11743991Y-14117031D01*
X11743991Y-14117031D02*
X11753515Y-14107508D01*
X11753515Y-14107508D02*
X11772562Y-14097984D01*
X11963039Y-14097984D02*
X11982086Y-14097984D01*
X11982086Y-14097984D02*
X12001134Y-14107508D01*
X12001134Y-14107508D02*
X12010658Y-14117031D01*
X12010658Y-14117031D02*
X12020182Y-14136079D01*
X12020182Y-14136079D02*
X12029705Y-14174174D01*
X12029705Y-14174174D02*
X12029705Y-14221793D01*
X12029705Y-14221793D02*
X12020182Y-14259888D01*
X12020182Y-14259888D02*
X12010658Y-14278936D01*
X12010658Y-14278936D02*
X12001134Y-14288460D01*
X12001134Y-14288460D02*
X11982086Y-14297984D01*
X11982086Y-14297984D02*
X11963039Y-14297984D01*
X11963039Y-14297984D02*
X11943991Y-14288460D01*
X11943991Y-14288460D02*
X11934467Y-14278936D01*
X11934467Y-14278936D02*
X11924943Y-14259888D01*
X11924943Y-14259888D02*
X11915420Y-14221793D01*
X11915420Y-14221793D02*
X11915420Y-14174174D01*
X11915420Y-14174174D02*
X11924943Y-14136079D01*
X11924943Y-14136079D02*
X11934467Y-14117031D01*
X11934467Y-14117031D02*
X11943991Y-14107508D01*
X11943991Y-14107508D02*
X11963039Y-14097984D01*
X12115420Y-14297984D02*
X12115420Y-14164650D01*
X12115420Y-14183698D02*
X12124943Y-14174174D01*
X12124943Y-14174174D02*
X12143991Y-14164650D01*
X12143991Y-14164650D02*
X12172563Y-14164650D01*
X12172563Y-14164650D02*
X12191610Y-14174174D01*
X12191610Y-14174174D02*
X12201134Y-14193222D01*
X12201134Y-14193222D02*
X12201134Y-14297984D01*
X12201134Y-14193222D02*
X12210658Y-14174174D01*
X12210658Y-14174174D02*
X12229705Y-14164650D01*
X12229705Y-14164650D02*
X12258277Y-14164650D01*
X12258277Y-14164650D02*
X12277324Y-14174174D01*
X12277324Y-14174174D02*
X12286848Y-14193222D01*
X12286848Y-14193222D02*
X12286848Y-14297984D01*
X12382086Y-14297984D02*
X12382086Y-14164650D01*
X12382086Y-14183698D02*
X12391610Y-14174174D01*
X12391610Y-14174174D02*
X12410658Y-14164650D01*
X12410658Y-14164650D02*
X12439229Y-14164650D01*
X12439229Y-14164650D02*
X12458277Y-14174174D01*
X12458277Y-14174174D02*
X12467801Y-14193222D01*
X12467801Y-14193222D02*
X12467801Y-14297984D01*
X12467801Y-14193222D02*
X12477324Y-14174174D01*
X12477324Y-14174174D02*
X12496372Y-14164650D01*
X12496372Y-14164650D02*
X12524943Y-14164650D01*
X12524943Y-14164650D02*
X12543991Y-14174174D01*
X12543991Y-14174174D02*
X12553515Y-14193222D01*
X12553515Y-14193222D02*
X12553515Y-14297984D01*
X12943991Y-14088460D02*
X12772563Y-14345603D01*
X13201134Y-14097984D02*
X13220182Y-14097984D01*
X13220182Y-14097984D02*
X13239229Y-14107508D01*
X13239229Y-14107508D02*
X13248753Y-14117031D01*
X13248753Y-14117031D02*
X13258277Y-14136079D01*
X13258277Y-14136079D02*
X13267801Y-14174174D01*
X13267801Y-14174174D02*
X13267801Y-14221793D01*
X13267801Y-14221793D02*
X13258277Y-14259888D01*
X13258277Y-14259888D02*
X13248753Y-14278936D01*
X13248753Y-14278936D02*
X13239229Y-14288460D01*
X13239229Y-14288460D02*
X13220182Y-14297984D01*
X13220182Y-14297984D02*
X13201134Y-14297984D01*
X13201134Y-14297984D02*
X13182086Y-14288460D01*
X13182086Y-14288460D02*
X13172563Y-14278936D01*
X13172563Y-14278936D02*
X13163039Y-14259888D01*
X13163039Y-14259888D02*
X13153515Y-14221793D01*
X13153515Y-14221793D02*
X13153515Y-14174174D01*
X13153515Y-14174174D02*
X13163039Y-14136079D01*
X13163039Y-14136079D02*
X13172563Y-14117031D01*
X13172563Y-14117031D02*
X13182086Y-14107508D01*
X13182086Y-14107508D02*
X13201134Y-14097984D01*
X13353515Y-14278936D02*
X13363039Y-14288460D01*
X13363039Y-14288460D02*
X13353515Y-14297984D01*
X13353515Y-14297984D02*
X13343991Y-14288460D01*
X13343991Y-14288460D02*
X13353515Y-14278936D01*
X13353515Y-14278936D02*
X13353515Y-14297984D01*
X13486848Y-14097984D02*
X13505896Y-14097984D01*
X13505896Y-14097984D02*
X13524944Y-14107508D01*
X13524944Y-14107508D02*
X13534467Y-14117031D01*
X13534467Y-14117031D02*
X13543991Y-14136079D01*
X13543991Y-14136079D02*
X13553515Y-14174174D01*
X13553515Y-14174174D02*
X13553515Y-14221793D01*
X13553515Y-14221793D02*
X13543991Y-14259888D01*
X13543991Y-14259888D02*
X13534467Y-14278936D01*
X13534467Y-14278936D02*
X13524944Y-14288460D01*
X13524944Y-14288460D02*
X13505896Y-14297984D01*
X13505896Y-14297984D02*
X13486848Y-14297984D01*
X13486848Y-14297984D02*
X13467801Y-14288460D01*
X13467801Y-14288460D02*
X13458277Y-14278936D01*
X13458277Y-14278936D02*
X13448753Y-14259888D01*
X13448753Y-14259888D02*
X13439229Y-14221793D01*
X13439229Y-14221793D02*
X13439229Y-14174174D01*
X13439229Y-14174174D02*
X13448753Y-14136079D01*
X13448753Y-14136079D02*
X13458277Y-14117031D01*
X13458277Y-14117031D02*
X13467801Y-14107508D01*
X13467801Y-14107508D02*
X13486848Y-14097984D01*
X13743991Y-14297984D02*
X13629706Y-14297984D01*
X13686848Y-14297984D02*
X13686848Y-14097984D01*
X13686848Y-14097984D02*
X13667801Y-14126555D01*
X13667801Y-14126555D02*
X13648753Y-14145603D01*
X13648753Y-14145603D02*
X13629706Y-14155127D01*
X13934467Y-14297984D02*
X13820182Y-14297984D01*
X13877325Y-14297984D02*
X13877325Y-14097984D01*
X13877325Y-14097984D02*
X13858277Y-14126555D01*
X13858277Y-14126555D02*
X13839229Y-14145603D01*
X13839229Y-14145603D02*
X13820182Y-14155127D01*
X14048753Y-14183698D02*
X14029706Y-14174174D01*
X14029706Y-14174174D02*
X14020182Y-14164650D01*
X14020182Y-14164650D02*
X14010658Y-14145603D01*
X14010658Y-14145603D02*
X14010658Y-14136079D01*
X14010658Y-14136079D02*
X14020182Y-14117031D01*
X14020182Y-14117031D02*
X14029706Y-14107508D01*
X14029706Y-14107508D02*
X14048753Y-14097984D01*
X14048753Y-14097984D02*
X14086848Y-14097984D01*
X14086848Y-14097984D02*
X14105896Y-14107508D01*
X14105896Y-14107508D02*
X14115420Y-14117031D01*
X14115420Y-14117031D02*
X14124944Y-14136079D01*
X14124944Y-14136079D02*
X14124944Y-14145603D01*
X14124944Y-14145603D02*
X14115420Y-14164650D01*
X14115420Y-14164650D02*
X14105896Y-14174174D01*
X14105896Y-14174174D02*
X14086848Y-14183698D01*
X14086848Y-14183698D02*
X14048753Y-14183698D01*
X14048753Y-14183698D02*
X14029706Y-14193222D01*
X14029706Y-14193222D02*
X14020182Y-14202746D01*
X14020182Y-14202746D02*
X14010658Y-14221793D01*
X14010658Y-14221793D02*
X14010658Y-14259888D01*
X14010658Y-14259888D02*
X14020182Y-14278936D01*
X14020182Y-14278936D02*
X14029706Y-14288460D01*
X14029706Y-14288460D02*
X14048753Y-14297984D01*
X14048753Y-14297984D02*
X14086848Y-14297984D01*
X14086848Y-14297984D02*
X14105896Y-14288460D01*
X14105896Y-14288460D02*
X14115420Y-14278936D01*
X14115420Y-14278936D02*
X14124944Y-14259888D01*
X14124944Y-14259888D02*
X14124944Y-14221793D01*
X14124944Y-14221793D02*
X14115420Y-14202746D01*
X14115420Y-14202746D02*
X14105896Y-14193222D01*
X14105896Y-14193222D02*
X14086848Y-14183698D01*
X14201134Y-14097984D02*
X14201134Y-14136079D01*
X14277325Y-14097984D02*
X14277325Y-14136079D01*
X14572563Y-14374174D02*
X14563039Y-14364650D01*
X14563039Y-14364650D02*
X14543991Y-14336079D01*
X14543991Y-14336079D02*
X14534468Y-14317031D01*
X14534468Y-14317031D02*
X14524944Y-14288460D01*
X14524944Y-14288460D02*
X14515420Y-14240841D01*
X14515420Y-14240841D02*
X14515420Y-14202746D01*
X14515420Y-14202746D02*
X14524944Y-14155127D01*
X14524944Y-14155127D02*
X14534468Y-14126555D01*
X14534468Y-14126555D02*
X14543991Y-14107508D01*
X14543991Y-14107508D02*
X14563039Y-14078936D01*
X14563039Y-14078936D02*
X14572563Y-14069412D01*
X14734468Y-14164650D02*
X14734468Y-14297984D01*
X14686848Y-14088460D02*
X14639229Y-14231317D01*
X14639229Y-14231317D02*
X14763039Y-14231317D01*
X14924944Y-14164650D02*
X14924944Y-14297984D01*
X14877325Y-14088460D02*
X14829706Y-14231317D01*
X14829706Y-14231317D02*
X14953515Y-14231317D01*
X15182087Y-14297984D02*
X15182087Y-14097984D01*
X15267801Y-14297984D02*
X15267801Y-14193222D01*
X15267801Y-14193222D02*
X15258277Y-14174174D01*
X15258277Y-14174174D02*
X15239230Y-14164650D01*
X15239230Y-14164650D02*
X15210658Y-14164650D01*
X15210658Y-14164650D02*
X15191610Y-14174174D01*
X15191610Y-14174174D02*
X15182087Y-14183698D01*
X15391610Y-14297984D02*
X15372563Y-14288460D01*
X15372563Y-14288460D02*
X15363039Y-14278936D01*
X15363039Y-14278936D02*
X15353515Y-14259888D01*
X15353515Y-14259888D02*
X15353515Y-14202746D01*
X15353515Y-14202746D02*
X15363039Y-14183698D01*
X15363039Y-14183698D02*
X15372563Y-14174174D01*
X15372563Y-14174174D02*
X15391610Y-14164650D01*
X15391610Y-14164650D02*
X15420182Y-14164650D01*
X15420182Y-14164650D02*
X15439230Y-14174174D01*
X15439230Y-14174174D02*
X15448753Y-14183698D01*
X15448753Y-14183698D02*
X15458277Y-14202746D01*
X15458277Y-14202746D02*
X15458277Y-14259888D01*
X15458277Y-14259888D02*
X15448753Y-14278936D01*
X15448753Y-14278936D02*
X15439230Y-14288460D01*
X15439230Y-14288460D02*
X15420182Y-14297984D01*
X15420182Y-14297984D02*
X15391610Y-14297984D01*
X15572563Y-14297984D02*
X15553515Y-14288460D01*
X15553515Y-14288460D02*
X15543991Y-14269412D01*
X15543991Y-14269412D02*
X15543991Y-14097984D01*
X15724944Y-14288460D02*
X15705896Y-14297984D01*
X15705896Y-14297984D02*
X15667801Y-14297984D01*
X15667801Y-14297984D02*
X15648753Y-14288460D01*
X15648753Y-14288460D02*
X15639230Y-14269412D01*
X15639230Y-14269412D02*
X15639230Y-14193222D01*
X15639230Y-14193222D02*
X15648753Y-14174174D01*
X15648753Y-14174174D02*
X15667801Y-14164650D01*
X15667801Y-14164650D02*
X15705896Y-14164650D01*
X15705896Y-14164650D02*
X15724944Y-14174174D01*
X15724944Y-14174174D02*
X15734468Y-14193222D01*
X15734468Y-14193222D02*
X15734468Y-14212269D01*
X15734468Y-14212269D02*
X15639230Y-14231317D01*
X15810658Y-14288460D02*
X15829706Y-14297984D01*
X15829706Y-14297984D02*
X15867801Y-14297984D01*
X15867801Y-14297984D02*
X15886849Y-14288460D01*
X15886849Y-14288460D02*
X15896372Y-14269412D01*
X15896372Y-14269412D02*
X15896372Y-14259888D01*
X15896372Y-14259888D02*
X15886849Y-14240841D01*
X15886849Y-14240841D02*
X15867801Y-14231317D01*
X15867801Y-14231317D02*
X15839230Y-14231317D01*
X15839230Y-14231317D02*
X15820182Y-14221793D01*
X15820182Y-14221793D02*
X15810658Y-14202746D01*
X15810658Y-14202746D02*
X15810658Y-14193222D01*
X15810658Y-14193222D02*
X15820182Y-14174174D01*
X15820182Y-14174174D02*
X15839230Y-14164650D01*
X15839230Y-14164650D02*
X15867801Y-14164650D01*
X15867801Y-14164650D02*
X15886849Y-14174174D01*
X15963039Y-14374174D02*
X15972563Y-14364650D01*
X15972563Y-14364650D02*
X15991611Y-14336079D01*
X15991611Y-14336079D02*
X16001134Y-14317031D01*
X16001134Y-14317031D02*
X16010658Y-14288460D01*
X16010658Y-14288460D02*
X16020182Y-14240841D01*
X16020182Y-14240841D02*
X16020182Y-14202746D01*
X16020182Y-14202746D02*
X16010658Y-14155127D01*
X16010658Y-14155127D02*
X16001134Y-14126555D01*
X16001134Y-14126555D02*
X15991611Y-14107508D01*
X15991611Y-14107508D02*
X15972563Y-14078936D01*
X15972563Y-14078936D02*
X15963039Y-14069412D01*
M02*
