G04 #@! TF.GenerationSoftware,KiCad,Pcbnew,8.0.5*
G04 #@! TF.CreationDate,2025-05-26T10:54:01-04:00*
G04 #@! TF.ProjectId,tcg_counter,7463675f-636f-4756-9e74-65722e6b6963,1*
G04 #@! TF.SameCoordinates,Original*
G04 #@! TF.FileFunction,Copper,L2,Bot*
G04 #@! TF.FilePolarity,Positive*
%FSLAX46Y46*%
G04 Gerber Fmt 4.6, Leading zero omitted, Abs format (unit mm)*
G04 Created by KiCad (PCBNEW 8.0.5) date 2025-05-26 10:54:01*
%MOMM*%
%LPD*%
G01*
G04 APERTURE LIST*
G04 Aperture macros list*
%AMRoundRect*
0 Rectangle with rounded corners*
0 $1 Rounding radius*
0 $2 $3 $4 $5 $6 $7 $8 $9 X,Y pos of 4 corners*
0 Add a 4 corners polygon primitive as box body*
4,1,4,$2,$3,$4,$5,$6,$7,$8,$9,$2,$3,0*
0 Add four circle primitives for the rounded corners*
1,1,$1+$1,$2,$3*
1,1,$1+$1,$4,$5*
1,1,$1+$1,$6,$7*
1,1,$1+$1,$8,$9*
0 Add four rect primitives between the rounded corners*
20,1,$1+$1,$2,$3,$4,$5,0*
20,1,$1+$1,$4,$5,$6,$7,0*
20,1,$1+$1,$6,$7,$8,$9,0*
20,1,$1+$1,$8,$9,$2,$3,0*%
G04 Aperture macros list end*
G04 #@! TA.AperFunction,ComponentPad*
%ADD10C,0.400000*%
G04 #@! TD*
G04 #@! TA.AperFunction,SMDPad,CuDef*
%ADD11O,0.240000X0.599999*%
G04 #@! TD*
G04 #@! TA.AperFunction,SMDPad,CuDef*
%ADD12O,0.599999X0.240000*%
G04 #@! TD*
G04 #@! TA.AperFunction,SMDPad,CuDef*
%ADD13R,2.100001X2.100001*%
G04 #@! TD*
G04 #@! TA.AperFunction,SMDPad,CuDef*
%ADD14RoundRect,0.140000X0.170000X-0.140000X0.170000X0.140000X-0.170000X0.140000X-0.170000X-0.140000X0*%
G04 #@! TD*
G04 #@! TA.AperFunction,SMDPad,CuDef*
%ADD15RoundRect,0.135000X-0.185000X0.135000X-0.185000X-0.135000X0.185000X-0.135000X0.185000X0.135000X0*%
G04 #@! TD*
G04 #@! TA.AperFunction,SMDPad,CuDef*
%ADD16RoundRect,0.140000X-0.140000X-0.170000X0.140000X-0.170000X0.140000X0.170000X-0.140000X0.170000X0*%
G04 #@! TD*
G04 #@! TA.AperFunction,SMDPad,CuDef*
%ADD17RoundRect,0.140000X-0.170000X0.140000X-0.170000X-0.140000X0.170000X-0.140000X0.170000X0.140000X0*%
G04 #@! TD*
G04 #@! TA.AperFunction,SMDPad,CuDef*
%ADD18RoundRect,0.140000X0.140000X0.170000X-0.140000X0.170000X-0.140000X-0.170000X0.140000X-0.170000X0*%
G04 #@! TD*
G04 #@! TA.AperFunction,SMDPad,CuDef*
%ADD19R,0.600000X0.250000*%
G04 #@! TD*
G04 #@! TA.AperFunction,SMDPad,CuDef*
%ADD20R,0.250000X0.600000*%
G04 #@! TD*
G04 #@! TA.AperFunction,SMDPad,CuDef*
%ADD21R,2.200000X2.200000*%
G04 #@! TD*
G04 #@! TA.AperFunction,SMDPad,CuDef*
%ADD22RoundRect,0.135000X0.135000X0.185000X-0.135000X0.185000X-0.135000X-0.185000X0.135000X-0.185000X0*%
G04 #@! TD*
G04 #@! TA.AperFunction,ViaPad*
%ADD23C,0.600000*%
G04 #@! TD*
G04 #@! TA.AperFunction,Conductor*
%ADD24C,0.200000*%
G04 #@! TD*
G04 #@! TA.AperFunction,Conductor*
%ADD25C,0.300000*%
G04 #@! TD*
G04 APERTURE END LIST*
D10*
X135100001Y-103200000D03*
X135900001Y-104000000D03*
X135100001Y-104000000D03*
X134300001Y-104000000D03*
X135100001Y-104800000D03*
D11*
X133850001Y-102100001D03*
X134350000Y-102100001D03*
X134850001Y-102100001D03*
X135350001Y-102100001D03*
X135850002Y-102100001D03*
X136350001Y-102100001D03*
D12*
X137000000Y-102750000D03*
X137000000Y-103249999D03*
X137000000Y-103750000D03*
X137000000Y-104250000D03*
X137000000Y-104750001D03*
X137000000Y-105250000D03*
D11*
X136350001Y-105899999D03*
X135850002Y-105899999D03*
X135350001Y-105899999D03*
X134850001Y-105899999D03*
X134350000Y-105899999D03*
X133850001Y-105899999D03*
D12*
X133200002Y-105250000D03*
X133200002Y-104750001D03*
X133200002Y-104250000D03*
X133200002Y-103750000D03*
X133200002Y-103249999D03*
X133200002Y-102750000D03*
D13*
X135100001Y-104000000D03*
D14*
X135750000Y-98230000D03*
X135750000Y-97270000D03*
D15*
X141750000Y-100490000D03*
X141750000Y-101510000D03*
D16*
X138020000Y-102250000D03*
X138980000Y-102250000D03*
X133500000Y-107250000D03*
X134460000Y-107250000D03*
D15*
X140500000Y-100490000D03*
X140500000Y-101510000D03*
D17*
X138250000Y-99540000D03*
X138250000Y-100500000D03*
D18*
X130750000Y-102750000D03*
X129790000Y-102750000D03*
D10*
X147750001Y-103042300D03*
X148600001Y-103892300D03*
X147750001Y-103892300D03*
X146900001Y-103892300D03*
X147750001Y-104742300D03*
D19*
X149650001Y-102642300D03*
X149650001Y-103142300D03*
X149650001Y-103642300D03*
X149650001Y-104142300D03*
X149650001Y-104642300D03*
X149650001Y-105142300D03*
D20*
X149000001Y-105792300D03*
X148500001Y-105792300D03*
X148000001Y-105792300D03*
X147500001Y-105792300D03*
X147000001Y-105792300D03*
X146500001Y-105792300D03*
D19*
X145850001Y-105142300D03*
X145850001Y-104642300D03*
X145850001Y-104142300D03*
X145850001Y-103642300D03*
X145850001Y-103142300D03*
X145850001Y-102642300D03*
D20*
X146500001Y-101992300D03*
X147000001Y-101992300D03*
X147500001Y-101992300D03*
X148000001Y-101992300D03*
X148500001Y-101992300D03*
X149000001Y-101992300D03*
D21*
X147750001Y-103892300D03*
D14*
X148250000Y-99750000D03*
X148250000Y-98790000D03*
D16*
X133520000Y-97250000D03*
X134480000Y-97250000D03*
D22*
X141760000Y-108500000D03*
X140740000Y-108500000D03*
D18*
X130750000Y-103750000D03*
X129790000Y-103750000D03*
D14*
X147250000Y-99750000D03*
X147250000Y-98790000D03*
D16*
X133520000Y-99500000D03*
X134480000Y-99500000D03*
D14*
X136500000Y-100500000D03*
X136500000Y-99540000D03*
D16*
X138000000Y-103250000D03*
X138960000Y-103250000D03*
D23*
X147250000Y-97500000D03*
X137000000Y-96750000D03*
X134000000Y-108500000D03*
X149500000Y-101000000D03*
X139500000Y-101250000D03*
X144750000Y-102500000D03*
X136000000Y-107000000D03*
X136500000Y-123000000D03*
X134500000Y-123000000D03*
X148250000Y-97500000D03*
X139250000Y-99250000D03*
X129500000Y-105000000D03*
X132250000Y-97250000D03*
X129500000Y-109250000D03*
X129500000Y-100750000D03*
X135976781Y-100934050D03*
X143250000Y-100250000D03*
X133000000Y-123250000D03*
X132250000Y-129250000D03*
X131650000Y-125334314D03*
X134750000Y-130000000D03*
X130450000Y-121500000D03*
X133500000Y-94250000D03*
X140742299Y-102500000D03*
X137750000Y-104750000D03*
X142750000Y-101510000D03*
X137750000Y-105550003D03*
X145000000Y-72000000D03*
X144000000Y-107500000D03*
X141000000Y-111500000D03*
X136000000Y-112750000D03*
X134000000Y-110750000D03*
X137000000Y-111500000D03*
X139000000Y-109250000D03*
X145000000Y-107650000D03*
X142000000Y-111500000D03*
X135000000Y-112750000D03*
X147900002Y-107750000D03*
X147000000Y-107750000D03*
X143000000Y-107250000D03*
X140000000Y-111500000D03*
X143750000Y-105500000D03*
X138000000Y-107250000D03*
X144350000Y-104500000D03*
D24*
X148000001Y-105784600D02*
X148000001Y-104500000D01*
X136065950Y-100934050D02*
X136500000Y-100500000D01*
X135976781Y-100934050D02*
X136065950Y-100934050D01*
X135350001Y-102100001D02*
X135350001Y-101560830D01*
X135350001Y-101560830D02*
X135976781Y-100934050D01*
X135750000Y-100250000D02*
X135750000Y-98460000D01*
X141230000Y-98230000D02*
X143250000Y-100250000D01*
X147500001Y-102000000D02*
X147500001Y-100750001D01*
X134850001Y-102100001D02*
X134850001Y-101149999D01*
X141230000Y-98230000D02*
X135750000Y-98230000D01*
X134850001Y-101149999D02*
X135750000Y-100250000D01*
X133200002Y-102750000D02*
X130750000Y-102750000D01*
X131500000Y-103750000D02*
X130750000Y-103750000D01*
X132000001Y-103249999D02*
X131500000Y-103750000D01*
X133200002Y-103249999D02*
X132000001Y-103249999D01*
X137000000Y-102750000D02*
X137520000Y-102750000D01*
X137520000Y-102750000D02*
X138020000Y-102250000D01*
X138000000Y-104151471D02*
X138000000Y-103250000D01*
X138000000Y-103651471D02*
X138000000Y-103250000D01*
X138500000Y-105901471D02*
X138500000Y-104651471D01*
X138500000Y-104651471D02*
X138000000Y-104151471D01*
X137998529Y-104150000D02*
X138000000Y-104151471D01*
X137075735Y-106825736D02*
X137575735Y-106825736D01*
X137000000Y-104250000D02*
X137401471Y-104250000D01*
X132750000Y-123000000D02*
X132750000Y-111151471D01*
X133000000Y-123250000D02*
X132750000Y-123000000D01*
X132750000Y-111151471D02*
X137075735Y-106825736D01*
X137401471Y-104250000D02*
X138000000Y-103651471D01*
X137575735Y-106825736D02*
X138500000Y-105901471D01*
X135850002Y-102100001D02*
X135850002Y-101826030D01*
X135850002Y-101826030D02*
X136176032Y-101500000D01*
X136176032Y-101500000D02*
X136934314Y-101500000D01*
X137500000Y-99750000D02*
X137710000Y-99540000D01*
X137500000Y-100934314D02*
X137500000Y-99750000D01*
X136934314Y-101500000D02*
X137500000Y-100934314D01*
X137710000Y-99540000D02*
X138250000Y-99540000D01*
X136899999Y-102100001D02*
X138250000Y-100750000D01*
X138250000Y-100750000D02*
X138250000Y-100500000D01*
X136350001Y-102100001D02*
X136899999Y-102100001D01*
X135000000Y-107250000D02*
X134460000Y-107250000D01*
X135350001Y-105899999D02*
X135350001Y-106899999D01*
X135350001Y-106899999D02*
X135000000Y-107250000D01*
X132750000Y-105250000D02*
X133200002Y-105250000D01*
X132250000Y-129250000D02*
X132250000Y-105750000D01*
X132250000Y-105750000D02*
X132750000Y-105250000D01*
X132684313Y-104750001D02*
X133200002Y-104750001D01*
X131650000Y-105784314D02*
X132684313Y-104750001D01*
X131650000Y-125334314D02*
X131650000Y-105784314D01*
X132618628Y-104250000D02*
X133200002Y-104250000D01*
X131050000Y-105818628D02*
X132618628Y-104250000D01*
X132000000Y-130000000D02*
X131050000Y-129050000D01*
X134750000Y-130000000D02*
X132000000Y-130000000D01*
X131050000Y-129050000D02*
X131050000Y-105818628D01*
X133200002Y-103750000D02*
X132552942Y-103750000D01*
X132552942Y-103750000D02*
X130450000Y-105852942D01*
X130450000Y-105852942D02*
X130450000Y-121500000D01*
X141760000Y-108500000D02*
X148250000Y-108500000D01*
X148250000Y-108500000D02*
X148500001Y-108249999D01*
X148500001Y-108249999D02*
X148500001Y-105792300D01*
X133500000Y-99520000D02*
X133520000Y-99500000D01*
D25*
X133520000Y-97250000D02*
X133520000Y-94270000D01*
D24*
X133520000Y-94270000D02*
X133500000Y-94250000D01*
X133500000Y-100500000D02*
X133500000Y-99520000D01*
X133850001Y-102100001D02*
X133850001Y-100850001D01*
X133850001Y-100850001D02*
X133500000Y-100500000D01*
X133520000Y-99500000D02*
X133520000Y-97250000D01*
X143065686Y-102500000D02*
X140742299Y-102500000D01*
X137000000Y-104750001D02*
X137749999Y-104750001D01*
X140500000Y-102257701D02*
X140500000Y-101510000D01*
X146500001Y-102000000D02*
X146244401Y-101744400D01*
X143821286Y-101744400D02*
X143065686Y-102500000D01*
X137749999Y-104750001D02*
X137750000Y-104750000D01*
X146244401Y-101744400D02*
X143821286Y-101744400D01*
X140742299Y-102500000D02*
X140500000Y-102257701D01*
X141730000Y-101770000D02*
X141500000Y-101770000D01*
X146877101Y-101344400D02*
X142915600Y-101344400D01*
X147000000Y-102000000D02*
X147000000Y-101467299D01*
X137000000Y-105250000D02*
X137300003Y-105550003D01*
X147000000Y-101467299D02*
X146877101Y-101344400D01*
X142915600Y-101344400D02*
X142750000Y-101510000D01*
X137300003Y-105550003D02*
X137750000Y-105550003D01*
X142750000Y-101510000D02*
X141750000Y-101510000D01*
D25*
X145000000Y-72000000D02*
X145000000Y-81750000D01*
X134480000Y-92270000D02*
X134480000Y-97250000D01*
D24*
X134480000Y-99500000D02*
X134350000Y-99630000D01*
X134350000Y-99630000D02*
X134350000Y-102100001D01*
X134480000Y-99500000D02*
X134480000Y-97250000D01*
D25*
X145000000Y-81750000D02*
X134480000Y-92270000D01*
D24*
X145857701Y-105642299D02*
X145857701Y-105142300D01*
X144000000Y-107500000D02*
X145857701Y-105642299D01*
X149642301Y-104142300D02*
X150892300Y-104142300D01*
X151700000Y-104950000D02*
X151700000Y-108852942D01*
X149650000Y-110900000D02*
X141600000Y-110900000D01*
X150892300Y-104142300D02*
X151700000Y-104950000D01*
X151700000Y-108852942D02*
X149651471Y-110901471D01*
X149651471Y-110901471D02*
X149650000Y-110900000D01*
X141600000Y-110900000D02*
X141000000Y-111500000D01*
X152900000Y-109350000D02*
X149750000Y-112500000D01*
X151707986Y-102642300D02*
X152900000Y-103834314D01*
X149750000Y-112500000D02*
X136250000Y-112500000D01*
X152900000Y-103834314D02*
X152900000Y-109350000D01*
X149642301Y-102642300D02*
X151707986Y-102642300D01*
X136250000Y-112500000D02*
X136000000Y-112750000D01*
X134000000Y-110750000D02*
X136250000Y-108500000D01*
X136250000Y-108500000D02*
X140740000Y-108500000D01*
X149281372Y-109968628D02*
X150900000Y-108350000D01*
X150900000Y-108350000D02*
X150900000Y-105650000D01*
X137000000Y-111500000D02*
X138531372Y-109968628D01*
X150900000Y-105650000D02*
X150392300Y-105142300D01*
X138531372Y-109968628D02*
X149281372Y-109968628D01*
X150392300Y-105142300D02*
X149642301Y-105142300D01*
X149000001Y-108499999D02*
X149000001Y-105784600D01*
X148250000Y-109250000D02*
X149000001Y-108499999D01*
X139000000Y-109250000D02*
X148250000Y-109250000D01*
X146500001Y-106749999D02*
X146500001Y-105784600D01*
X145600000Y-107650000D02*
X146500001Y-106749999D01*
X145000000Y-107650000D02*
X145600000Y-107650000D01*
X151392300Y-103642300D02*
X149642301Y-103642300D01*
X149618628Y-111500000D02*
X152100000Y-109018628D01*
X142000000Y-111500000D02*
X149618628Y-111500000D01*
X152100000Y-104350000D02*
X151392300Y-103642300D01*
X152100000Y-109018628D02*
X152100000Y-104350000D01*
X152500000Y-104000000D02*
X151642299Y-103142299D01*
X149584314Y-112100000D02*
X152500000Y-109184314D01*
X151642299Y-103142299D02*
X149642301Y-103142299D01*
X152500000Y-109184314D02*
X152500000Y-104000000D01*
X135000000Y-112750000D02*
X135650000Y-112100000D01*
X135650000Y-112100000D02*
X149584314Y-112100000D01*
X147500001Y-107349999D02*
X147500001Y-105784600D01*
X147900002Y-107750000D02*
X147500001Y-107349999D01*
X147000000Y-107750000D02*
X147000000Y-105784600D01*
X145275100Y-104642301D02*
X145857701Y-104642301D01*
X144350000Y-105900000D02*
X144350000Y-105567401D01*
X144350000Y-105567401D02*
X145275100Y-104642301D01*
X143000000Y-107250000D02*
X144350000Y-105900000D01*
X141131372Y-110368628D02*
X140000000Y-111500000D01*
X149618628Y-110368628D02*
X141131372Y-110368628D01*
X150584602Y-104642301D02*
X151300000Y-105357699D01*
X149642301Y-104642301D02*
X150584602Y-104642301D01*
X151300000Y-108687256D02*
X149618628Y-110368628D01*
X151300000Y-105357699D02*
X151300000Y-108687256D01*
X143750000Y-104000000D02*
X144107700Y-103642300D01*
X144107700Y-103642300D02*
X145857701Y-103642300D01*
X143750000Y-105500000D02*
X143750000Y-104000000D01*
X138000000Y-107250000D02*
X142107701Y-103142299D01*
X142107701Y-103142299D02*
X145857701Y-103142299D01*
X144707700Y-104142300D02*
X145857701Y-104142300D01*
X144350000Y-104500000D02*
X144707700Y-104142300D01*
G04 #@! TA.AperFunction,Conductor*
G36*
X133155148Y-96014352D02*
G01*
X133169500Y-96049000D01*
X133169500Y-96788663D01*
X133155148Y-96823311D01*
X133096777Y-96881681D01*
X133096776Y-96881683D01*
X133046029Y-96990510D01*
X133046028Y-96990511D01*
X133046028Y-96990512D01*
X133046028Y-96990513D01*
X133039501Y-97040098D01*
X133039500Y-97040102D01*
X133039500Y-97459896D01*
X133039501Y-97459901D01*
X133046027Y-97509487D01*
X133096776Y-97618316D01*
X133096777Y-97618318D01*
X133181682Y-97703223D01*
X133191206Y-97707664D01*
X133216544Y-97735313D01*
X133219500Y-97752074D01*
X133219500Y-98997925D01*
X133205148Y-99032573D01*
X133191211Y-99042333D01*
X133181682Y-99046776D01*
X133096777Y-99131681D01*
X133096776Y-99131683D01*
X133046029Y-99240510D01*
X133046028Y-99240511D01*
X133039500Y-99290099D01*
X133039500Y-99709896D01*
X133039501Y-99709901D01*
X133046027Y-99759487D01*
X133096776Y-99868316D01*
X133096777Y-99868318D01*
X133184715Y-99956256D01*
X133182999Y-99957971D01*
X133198753Y-99982684D01*
X133199500Y-99991207D01*
X133199500Y-100539562D01*
X133219979Y-100615989D01*
X133247878Y-100664312D01*
X133248558Y-100665490D01*
X133259536Y-100684505D01*
X133259538Y-100684507D01*
X133259540Y-100684511D01*
X133259543Y-100684514D01*
X133535149Y-100960120D01*
X133549501Y-100994768D01*
X133549501Y-101796713D01*
X133547831Y-101809395D01*
X133529501Y-101877803D01*
X133529501Y-102322198D01*
X133546810Y-102386797D01*
X133541915Y-102423979D01*
X133512162Y-102446809D01*
X133486798Y-102446809D01*
X133422199Y-102429500D01*
X133422196Y-102429500D01*
X132977808Y-102429500D01*
X132977805Y-102429500D01*
X132909397Y-102447830D01*
X132896715Y-102449500D01*
X131236063Y-102449500D01*
X131201415Y-102435148D01*
X131191654Y-102421208D01*
X131184102Y-102405012D01*
X131173224Y-102381684D01*
X131173223Y-102381683D01*
X131173222Y-102381681D01*
X131088318Y-102296777D01*
X131088316Y-102296776D01*
X130979489Y-102246029D01*
X130979488Y-102246028D01*
X130969569Y-102244722D01*
X130929901Y-102239500D01*
X130929897Y-102239500D01*
X130570103Y-102239500D01*
X130570098Y-102239501D01*
X130520512Y-102246027D01*
X130411683Y-102296776D01*
X130411681Y-102296777D01*
X130326777Y-102381681D01*
X130315898Y-102405012D01*
X130288247Y-102430348D01*
X130250780Y-102428712D01*
X130227080Y-102405011D01*
X130215468Y-102380110D01*
X130215467Y-102380108D01*
X130129891Y-102294532D01*
X130129889Y-102294531D01*
X130020198Y-102243381D01*
X129970208Y-102236800D01*
X129891650Y-102236800D01*
X129891650Y-104263199D01*
X129970206Y-104263199D01*
X129970211Y-104263198D01*
X130020197Y-104256619D01*
X130129889Y-104205468D01*
X130129891Y-104205467D01*
X130215467Y-104119891D01*
X130215469Y-104119888D01*
X130227080Y-104094989D01*
X130254729Y-104069651D01*
X130292196Y-104071287D01*
X130315898Y-104094988D01*
X130326776Y-104118316D01*
X130326777Y-104118318D01*
X130411681Y-104203222D01*
X130411683Y-104203223D01*
X130411684Y-104203224D01*
X130520513Y-104253972D01*
X130570099Y-104260500D01*
X130929900Y-104260499D01*
X130979487Y-104253972D01*
X131088316Y-104203224D01*
X131173224Y-104118316D01*
X131191654Y-104078791D01*
X131219304Y-104053455D01*
X131236063Y-104050500D01*
X131539564Y-104050500D01*
X131566230Y-104043354D01*
X131615989Y-104030021D01*
X131684511Y-103990460D01*
X131740460Y-103934511D01*
X132110120Y-103564851D01*
X132144768Y-103550499D01*
X132209176Y-103550499D01*
X132243824Y-103564851D01*
X132258176Y-103599499D01*
X132243824Y-103634147D01*
X130209541Y-105668430D01*
X130209540Y-105668430D01*
X130169979Y-105736950D01*
X130169979Y-105736952D01*
X130149500Y-105813378D01*
X130149500Y-121071417D01*
X130135148Y-121106065D01*
X130126994Y-121112637D01*
X130118872Y-121117857D01*
X130118868Y-121117860D01*
X130024625Y-121226623D01*
X130024624Y-121226625D01*
X129964833Y-121357545D01*
X129944353Y-121499997D01*
X129944353Y-121500002D01*
X129964833Y-121642454D01*
X129996935Y-121712746D01*
X130024623Y-121773373D01*
X130024624Y-121773374D01*
X130024625Y-121773376D01*
X130118871Y-121882142D01*
X130118872Y-121882143D01*
X130239947Y-121959953D01*
X130316785Y-121982514D01*
X130378034Y-122000499D01*
X130378037Y-122000499D01*
X130378039Y-122000500D01*
X130378040Y-122000500D01*
X130521960Y-122000500D01*
X130521961Y-122000500D01*
X130521963Y-122000499D01*
X130521965Y-122000499D01*
X130553596Y-121991211D01*
X130660053Y-121959953D01*
X130674009Y-121950983D01*
X130710915Y-121944325D01*
X130741721Y-121965713D01*
X130749500Y-121992205D01*
X130749500Y-129089563D01*
X130769979Y-129165989D01*
X130769979Y-129165991D01*
X130809540Y-129234511D01*
X131759540Y-130184511D01*
X131815489Y-130240460D01*
X131884011Y-130280021D01*
X131919478Y-130289524D01*
X131960436Y-130300500D01*
X131960438Y-130300500D01*
X134325750Y-130300500D01*
X134360398Y-130314852D01*
X134362782Y-130317412D01*
X134418872Y-130382143D01*
X134539947Y-130459953D01*
X134616785Y-130482514D01*
X134678034Y-130500499D01*
X134678037Y-130500499D01*
X134678039Y-130500500D01*
X134678040Y-130500500D01*
X134821960Y-130500500D01*
X134821961Y-130500500D01*
X134821963Y-130500499D01*
X134821965Y-130500499D01*
X134844795Y-130493795D01*
X134960053Y-130459953D01*
X135081128Y-130382143D01*
X135175377Y-130273373D01*
X135235165Y-130142457D01*
X135235165Y-130142455D01*
X135235166Y-130142454D01*
X135255647Y-130000002D01*
X135255647Y-129999997D01*
X135235166Y-129857545D01*
X135230751Y-129847879D01*
X135175377Y-129726627D01*
X135151763Y-129699375D01*
X135081128Y-129617857D01*
X134960053Y-129540047D01*
X134960050Y-129540046D01*
X134821965Y-129499500D01*
X134821961Y-129499500D01*
X134678039Y-129499500D01*
X134678034Y-129499500D01*
X134539949Y-129540046D01*
X134418871Y-129617857D01*
X134362782Y-129682588D01*
X134329246Y-129699375D01*
X134325750Y-129699500D01*
X132630058Y-129699500D01*
X132595410Y-129685148D01*
X132581058Y-129650500D01*
X132593026Y-129618412D01*
X132675374Y-129523376D01*
X132675377Y-129523373D01*
X132735165Y-129392457D01*
X132735165Y-129392455D01*
X132735166Y-129392454D01*
X132755647Y-129250002D01*
X132755647Y-129249997D01*
X132735166Y-129107545D01*
X132726953Y-129089562D01*
X132675377Y-128976627D01*
X132613514Y-128905233D01*
X132581131Y-128867860D01*
X132581129Y-128867859D01*
X132581128Y-128867857D01*
X132573006Y-128862637D01*
X132551619Y-128831830D01*
X132550500Y-128821417D01*
X132550500Y-127577545D01*
X144564200Y-127577545D01*
X144564200Y-127724455D01*
X144592860Y-127868542D01*
X144649080Y-128004269D01*
X144681991Y-128053525D01*
X144730696Y-128126417D01*
X144834582Y-128230303D01*
X144883176Y-128262772D01*
X144956731Y-128311920D01*
X145092458Y-128368140D01*
X145236545Y-128396800D01*
X145236548Y-128396800D01*
X145383452Y-128396800D01*
X145383455Y-128396800D01*
X145527542Y-128368140D01*
X145663269Y-128311920D01*
X145785420Y-128230301D01*
X145889301Y-128126420D01*
X145970920Y-128004269D01*
X146027140Y-127868542D01*
X146055800Y-127724455D01*
X146055800Y-127577545D01*
X146027140Y-127433458D01*
X145970920Y-127297731D01*
X145915174Y-127214301D01*
X145889303Y-127175582D01*
X145785417Y-127071696D01*
X145712525Y-127022991D01*
X145663269Y-126990080D01*
X145663266Y-126990078D01*
X145663265Y-126990078D01*
X145527542Y-126933860D01*
X145383455Y-126905200D01*
X145236545Y-126905200D01*
X145128479Y-126926695D01*
X145092457Y-126933860D01*
X145092456Y-126933860D01*
X144956734Y-126990078D01*
X144834582Y-127071696D01*
X144730696Y-127175582D01*
X144649078Y-127297734D01*
X144592860Y-127433456D01*
X144592860Y-127433457D01*
X144592860Y-127433458D01*
X144564200Y-127577545D01*
X132550500Y-127577545D01*
X132550500Y-126561545D01*
X136944200Y-126561545D01*
X136944200Y-126708455D01*
X136972860Y-126852542D01*
X136972860Y-126852543D01*
X137006543Y-126933860D01*
X137029080Y-126988269D01*
X137061991Y-127037525D01*
X137110696Y-127110417D01*
X137214582Y-127214303D01*
X137263176Y-127246772D01*
X137336731Y-127295920D01*
X137472458Y-127352140D01*
X137616545Y-127380800D01*
X137616548Y-127380800D01*
X137763452Y-127380800D01*
X137763455Y-127380800D01*
X137907542Y-127352140D01*
X138043269Y-127295920D01*
X138165420Y-127214301D01*
X138269301Y-127110420D01*
X138350920Y-126988269D01*
X138407140Y-126852542D01*
X138435800Y-126708455D01*
X138435800Y-126561545D01*
X138407140Y-126417458D01*
X138350920Y-126281731D01*
X138295174Y-126198301D01*
X138269303Y-126159582D01*
X138165417Y-126055696D01*
X138092525Y-126006991D01*
X138043269Y-125974080D01*
X138043266Y-125974078D01*
X138043265Y-125974078D01*
X137907542Y-125917860D01*
X137763455Y-125889200D01*
X137616545Y-125889200D01*
X137508479Y-125910695D01*
X137472457Y-125917860D01*
X137472456Y-125917860D01*
X137336734Y-125974078D01*
X137214582Y-126055696D01*
X137110696Y-126159582D01*
X137029078Y-126281734D01*
X136972860Y-126417456D01*
X136972860Y-126417457D01*
X136972860Y-126417458D01*
X136944200Y-126561545D01*
X132550500Y-126561545D01*
X132550500Y-125545545D01*
X144564200Y-125545545D01*
X144564200Y-125692455D01*
X144581120Y-125777519D01*
X144592860Y-125836542D01*
X144592860Y-125836543D01*
X144626543Y-125917860D01*
X144649080Y-125972269D01*
X144681991Y-126021525D01*
X144730696Y-126094417D01*
X144834582Y-126198303D01*
X144883176Y-126230772D01*
X144956731Y-126279920D01*
X145092458Y-126336140D01*
X145236545Y-126364800D01*
X145236548Y-126364800D01*
X145383452Y-126364800D01*
X145383455Y-126364800D01*
X145527542Y-126336140D01*
X145663269Y-126279920D01*
X145785420Y-126198301D01*
X145889301Y-126094420D01*
X145970920Y-125972269D01*
X146027140Y-125836542D01*
X146055800Y-125692455D01*
X146055800Y-125545545D01*
X146027140Y-125401458D01*
X145970920Y-125265731D01*
X145921772Y-125192176D01*
X145889303Y-125143582D01*
X145785417Y-125039696D01*
X145712525Y-124990991D01*
X145663269Y-124958080D01*
X145663266Y-124958078D01*
X145663265Y-124958078D01*
X145527542Y-124901860D01*
X145383455Y-124873200D01*
X145236545Y-124873200D01*
X145128479Y-124894695D01*
X145092457Y-124901860D01*
X145092456Y-124901860D01*
X144956734Y-124958078D01*
X144834582Y-125039696D01*
X144730696Y-125143582D01*
X144649078Y-125265734D01*
X144592860Y-125401456D01*
X144592860Y-125401457D01*
X144592860Y-125401458D01*
X144564200Y-125545545D01*
X132550500Y-125545545D01*
X132550500Y-123626908D01*
X132564852Y-123592260D01*
X132599500Y-123577908D01*
X132634148Y-123592260D01*
X132636527Y-123594815D01*
X132668872Y-123632143D01*
X132789947Y-123709953D01*
X132866785Y-123732514D01*
X132928034Y-123750499D01*
X132928037Y-123750499D01*
X132928039Y-123750500D01*
X132928040Y-123750500D01*
X133071960Y-123750500D01*
X133071961Y-123750500D01*
X133071963Y-123750499D01*
X133071965Y-123750499D01*
X133094795Y-123743795D01*
X133210053Y-123709953D01*
X133331128Y-123632143D01*
X133425377Y-123523373D01*
X133485165Y-123392457D01*
X133485165Y-123392455D01*
X133485166Y-123392454D01*
X133505647Y-123250002D01*
X133505647Y-123249997D01*
X133485166Y-123107545D01*
X133480751Y-123097879D01*
X133425377Y-122976627D01*
X133331128Y-122867857D01*
X133210053Y-122790047D01*
X133210050Y-122790046D01*
X133085695Y-122753532D01*
X133056494Y-122730000D01*
X133050500Y-122706517D01*
X133050500Y-111296237D01*
X133064851Y-111261590D01*
X133439585Y-110886855D01*
X133474232Y-110872504D01*
X133508880Y-110886856D01*
X133518804Y-110901148D01*
X133574623Y-111023373D01*
X133574624Y-111023374D01*
X133574625Y-111023376D01*
X133656493Y-111117857D01*
X133668872Y-111132143D01*
X133789947Y-111209953D01*
X133866785Y-111232514D01*
X133928034Y-111250499D01*
X133928037Y-111250499D01*
X133928039Y-111250500D01*
X133928040Y-111250500D01*
X134071960Y-111250500D01*
X134071961Y-111250500D01*
X134071963Y-111250499D01*
X134071965Y-111250499D01*
X134094795Y-111243795D01*
X134210053Y-111209953D01*
X134331128Y-111132143D01*
X134425377Y-111023373D01*
X134485165Y-110892457D01*
X134485165Y-110892455D01*
X134485166Y-110892454D01*
X134505647Y-110750001D01*
X134505647Y-110750000D01*
X134501064Y-110718128D01*
X134498995Y-110703741D01*
X134508269Y-110667406D01*
X134512841Y-110662128D01*
X136360119Y-108814852D01*
X136394767Y-108800500D01*
X138619942Y-108800500D01*
X138654590Y-108814852D01*
X138668942Y-108849500D01*
X138656974Y-108881588D01*
X138574625Y-108976623D01*
X138574624Y-108976625D01*
X138514833Y-109107545D01*
X138494353Y-109249997D01*
X138494353Y-109250002D01*
X138514833Y-109392454D01*
X138546935Y-109462746D01*
X138574623Y-109523373D01*
X138574624Y-109523374D01*
X138574625Y-109523376D01*
X138629790Y-109587040D01*
X138641633Y-109622624D01*
X138624846Y-109656160D01*
X138592758Y-109668128D01*
X138491808Y-109668128D01*
X138415382Y-109688607D01*
X138415380Y-109688607D01*
X138346860Y-109728168D01*
X137089880Y-110985148D01*
X137055232Y-110999500D01*
X136928034Y-110999500D01*
X136789949Y-111040046D01*
X136668871Y-111117857D01*
X136574625Y-111226623D01*
X136574624Y-111226625D01*
X136514833Y-111357545D01*
X136494353Y-111499997D01*
X136494353Y-111500002D01*
X136514833Y-111642454D01*
X136554881Y-111730144D01*
X136556220Y-111767623D01*
X136530665Y-111795072D01*
X136510309Y-111799500D01*
X135610436Y-111799500D01*
X135534012Y-111819978D01*
X135534008Y-111819979D01*
X135520031Y-111828050D01*
X135465495Y-111859535D01*
X135465486Y-111859542D01*
X135089880Y-112235148D01*
X135055232Y-112249500D01*
X134928034Y-112249500D01*
X134789949Y-112290046D01*
X134668871Y-112367857D01*
X134574625Y-112476623D01*
X134574624Y-112476625D01*
X134514833Y-112607545D01*
X134494353Y-112749997D01*
X134494353Y-112750002D01*
X134514833Y-112892454D01*
X134533512Y-112933354D01*
X134574623Y-113023373D01*
X134574624Y-113023374D01*
X134574625Y-113023376D01*
X134668871Y-113132142D01*
X134668872Y-113132143D01*
X134789947Y-113209953D01*
X134866785Y-113232514D01*
X134928034Y-113250499D01*
X134928037Y-113250499D01*
X134928039Y-113250500D01*
X134928040Y-113250500D01*
X135071960Y-113250500D01*
X135071961Y-113250500D01*
X135071963Y-113250499D01*
X135071965Y-113250499D01*
X135094795Y-113243795D01*
X135210053Y-113209953D01*
X135331128Y-113132143D01*
X135425377Y-113023373D01*
X135455428Y-112957569D01*
X135482876Y-112932015D01*
X135520356Y-112933354D01*
X135544570Y-112957568D01*
X135574623Y-113023373D01*
X135574624Y-113023374D01*
X135574625Y-113023376D01*
X135668871Y-113132142D01*
X135668872Y-113132143D01*
X135789947Y-113209953D01*
X135866785Y-113232514D01*
X135928034Y-113250499D01*
X135928037Y-113250499D01*
X135928039Y-113250500D01*
X135928040Y-113250500D01*
X136071960Y-113250500D01*
X136071961Y-113250500D01*
X136071963Y-113250499D01*
X136071965Y-113250499D01*
X136094795Y-113243795D01*
X136210053Y-113209953D01*
X136331128Y-113132143D01*
X136425377Y-113023373D01*
X136485165Y-112892457D01*
X136485165Y-112892455D01*
X136485166Y-112892454D01*
X136492344Y-112842527D01*
X136511480Y-112810274D01*
X136540845Y-112800500D01*
X149789564Y-112800500D01*
X149816230Y-112793354D01*
X149865989Y-112780021D01*
X149934511Y-112740460D01*
X149990460Y-112684511D01*
X153140460Y-109534511D01*
X153180022Y-109465988D01*
X153200499Y-109389565D01*
X153200500Y-109389565D01*
X153200500Y-103794750D01*
X153189064Y-103752074D01*
X153180021Y-103718325D01*
X153180020Y-103718323D01*
X153180020Y-103718322D01*
X153140459Y-103649802D01*
X153084511Y-103593854D01*
X151892501Y-102401843D01*
X151892492Y-102401836D01*
X151890179Y-102400501D01*
X151823976Y-102362279D01*
X151747550Y-102341800D01*
X151747548Y-102341800D01*
X150063101Y-102341800D01*
X150035879Y-102333542D01*
X150028233Y-102328433D01*
X150013611Y-102325524D01*
X149969749Y-102316800D01*
X149374501Y-102316800D01*
X149339853Y-102302448D01*
X149325501Y-102267800D01*
X149325501Y-101672555D01*
X149325501Y-101672552D01*
X149313868Y-101614069D01*
X149287302Y-101574312D01*
X149269553Y-101547747D01*
X149220347Y-101514869D01*
X149203232Y-101503433D01*
X149144749Y-101491800D01*
X148855253Y-101491800D01*
X148820163Y-101498779D01*
X148796768Y-101503433D01*
X148779651Y-101514870D01*
X148742868Y-101522185D01*
X148725207Y-101514869D01*
X148704284Y-101500889D01*
X148645018Y-101489100D01*
X148601651Y-101489100D01*
X148601651Y-102044950D01*
X148587299Y-102079598D01*
X148552651Y-102093950D01*
X148447351Y-102093950D01*
X148412703Y-102079598D01*
X148398351Y-102044950D01*
X148398351Y-101489100D01*
X148354983Y-101489100D01*
X148295716Y-101500889D01*
X148274791Y-101514870D01*
X148238008Y-101522185D01*
X148220347Y-101514869D01*
X148203232Y-101503433D01*
X148144749Y-101491800D01*
X147855253Y-101491800D01*
X147854297Y-101491894D01*
X147853987Y-101491800D01*
X147852846Y-101491800D01*
X147852846Y-101491453D01*
X147818411Y-101481002D01*
X147800736Y-101447925D01*
X147800501Y-101443129D01*
X147800501Y-101254500D01*
X147814853Y-101219852D01*
X147849501Y-101205500D01*
X148625997Y-101205500D01*
X148626000Y-101205500D01*
X148669684Y-101200803D01*
X148721195Y-101189597D01*
X148731373Y-101187110D01*
X148812085Y-101144100D01*
X148864889Y-101098345D01*
X148882843Y-101080754D01*
X148927490Y-101000937D01*
X148947175Y-100933898D01*
X148955500Y-100876000D01*
X148955500Y-100522529D01*
X148954736Y-100509421D01*
X148954110Y-100498667D01*
X148953828Y-100496261D01*
X148950763Y-100470048D01*
X148925151Y-100392090D01*
X148923891Y-100389881D01*
X148890533Y-100331407D01*
X148883130Y-100320098D01*
X148876762Y-100310370D01*
X148807141Y-100251063D01*
X148807138Y-100251061D01*
X148807136Y-100251060D01*
X148745225Y-100218737D01*
X148745204Y-100218726D01*
X148722251Y-100208477D01*
X148722248Y-100208476D01*
X148697935Y-100205189D01*
X148665522Y-100186325D01*
X148655500Y-100156631D01*
X148655500Y-100156336D01*
X148669852Y-100121688D01*
X148703224Y-100088316D01*
X148753972Y-99979487D01*
X148760500Y-99929901D01*
X148760499Y-99570100D01*
X148753972Y-99520513D01*
X148748855Y-99509540D01*
X148730307Y-99469764D01*
X148703224Y-99411684D01*
X148703223Y-99411683D01*
X148703222Y-99411681D01*
X148618318Y-99326777D01*
X148618316Y-99326776D01*
X148594987Y-99315897D01*
X148569651Y-99288248D01*
X148571287Y-99250781D01*
X148594989Y-99227080D01*
X148619888Y-99215469D01*
X148619891Y-99215467D01*
X148705467Y-99129891D01*
X148705468Y-99129889D01*
X148756618Y-99020198D01*
X148763200Y-98970208D01*
X148763200Y-98891650D01*
X146736801Y-98891650D01*
X146736801Y-98970211D01*
X146743380Y-99020197D01*
X146783135Y-99105451D01*
X146784709Y-99141500D01*
X146796823Y-99140323D01*
X146817188Y-99152547D01*
X146880108Y-99215467D01*
X146880110Y-99215468D01*
X146905011Y-99227080D01*
X146930348Y-99254730D01*
X146928712Y-99292197D01*
X146905012Y-99315897D01*
X146901582Y-99317497D01*
X146881681Y-99326777D01*
X146878311Y-99330148D01*
X146843663Y-99344500D01*
X146825332Y-99344500D01*
X146790684Y-99330148D01*
X146776831Y-99302473D01*
X146775508Y-99293272D01*
X146775502Y-99293239D01*
X146775287Y-99292197D01*
X146770411Y-99268627D01*
X146770410Y-99268625D01*
X146770410Y-99268624D01*
X146739297Y-99210239D01*
X146735668Y-99172912D01*
X146736782Y-99171557D01*
X146721967Y-99172204D01*
X146701694Y-99158247D01*
X146681650Y-99135115D01*
X146664057Y-99117158D01*
X146664053Y-99117156D01*
X146663375Y-99116777D01*
X146643932Y-99105901D01*
X146584241Y-99072511D01*
X146584233Y-99072508D01*
X146517198Y-99052824D01*
X146459303Y-99044500D01*
X146459301Y-99044500D01*
X142489767Y-99044500D01*
X142455119Y-99030148D01*
X142034762Y-98609791D01*
X146736800Y-98609791D01*
X146736800Y-98688350D01*
X147148350Y-98688350D01*
X147351650Y-98688350D01*
X148148350Y-98688350D01*
X148351650Y-98688350D01*
X148763199Y-98688350D01*
X148763199Y-98609793D01*
X148763198Y-98609788D01*
X148756619Y-98559802D01*
X148705468Y-98450110D01*
X148705467Y-98450108D01*
X148619891Y-98364532D01*
X148619889Y-98364531D01*
X148510198Y-98313381D01*
X148460208Y-98306800D01*
X148351650Y-98306800D01*
X148351650Y-98688350D01*
X148148350Y-98688350D01*
X148148350Y-98306800D01*
X148039793Y-98306800D01*
X148039788Y-98306801D01*
X147989802Y-98313380D01*
X147880110Y-98364531D01*
X147880108Y-98364532D01*
X147794532Y-98450108D01*
X147794530Y-98450111D01*
X147794408Y-98450374D01*
X147794236Y-98450530D01*
X147792075Y-98453619D01*
X147791389Y-98453139D01*
X147766758Y-98475709D01*
X147729290Y-98474072D01*
X147708461Y-98453243D01*
X147707925Y-98453619D01*
X147705796Y-98450578D01*
X147705592Y-98450374D01*
X147705469Y-98450111D01*
X147705467Y-98450108D01*
X147619891Y-98364532D01*
X147619889Y-98364531D01*
X147510198Y-98313381D01*
X147460208Y-98306800D01*
X147351650Y-98306800D01*
X147351650Y-98688350D01*
X147148350Y-98688350D01*
X147148350Y-98306800D01*
X147039793Y-98306800D01*
X147039788Y-98306801D01*
X146989802Y-98313380D01*
X146880110Y-98364531D01*
X146880108Y-98364532D01*
X146794532Y-98450108D01*
X146794531Y-98450110D01*
X146743381Y-98559801D01*
X146736800Y-98609791D01*
X142034762Y-98609791D01*
X141414511Y-97989540D01*
X141345990Y-97949979D01*
X141269564Y-97929500D01*
X141269562Y-97929500D01*
X136252074Y-97929500D01*
X136217426Y-97915148D01*
X136207665Y-97901208D01*
X136203224Y-97891684D01*
X136203223Y-97891683D01*
X136203222Y-97891681D01*
X136118318Y-97806777D01*
X136118316Y-97806776D01*
X136094988Y-97795898D01*
X136069651Y-97768248D01*
X136071287Y-97730781D01*
X136094989Y-97707080D01*
X136119888Y-97695469D01*
X136119891Y-97695467D01*
X136205467Y-97609891D01*
X136205468Y-97609889D01*
X136256618Y-97500198D01*
X136263200Y-97450208D01*
X136263200Y-97371650D01*
X135236801Y-97371650D01*
X135236801Y-97450211D01*
X135243380Y-97500197D01*
X135294531Y-97609889D01*
X135294532Y-97609891D01*
X135380108Y-97695467D01*
X135380110Y-97695468D01*
X135405011Y-97707080D01*
X135430348Y-97734730D01*
X135428712Y-97772197D01*
X135405012Y-97795898D01*
X135381681Y-97806777D01*
X135296777Y-97891681D01*
X135296776Y-97891683D01*
X135246029Y-98000510D01*
X135246028Y-98000511D01*
X135239500Y-98050102D01*
X135239500Y-98409896D01*
X135239501Y-98409901D01*
X135246027Y-98459487D01*
X135296776Y-98568316D01*
X135296777Y-98568318D01*
X135381681Y-98653222D01*
X135381683Y-98653223D01*
X135381684Y-98653224D01*
X135421208Y-98671654D01*
X135446545Y-98699304D01*
X135449500Y-98716063D01*
X135449500Y-100105233D01*
X135435148Y-100139881D01*
X134734148Y-100840881D01*
X134699500Y-100855233D01*
X134664852Y-100840881D01*
X134650500Y-100806233D01*
X134650500Y-100054709D01*
X134664852Y-100020061D01*
X134693107Y-100006128D01*
X134709487Y-100003972D01*
X134719523Y-99999292D01*
X134818316Y-99953224D01*
X134903224Y-99868316D01*
X134953972Y-99759487D01*
X134960500Y-99709901D01*
X134960499Y-99290100D01*
X134953972Y-99240513D01*
X134953971Y-99240511D01*
X134927405Y-99183541D01*
X134903224Y-99131684D01*
X134903223Y-99131683D01*
X134903222Y-99131681D01*
X134818317Y-99046776D01*
X134808789Y-99042333D01*
X134783454Y-99014682D01*
X134780500Y-98997925D01*
X134780500Y-97752074D01*
X134794852Y-97717426D01*
X134808794Y-97707664D01*
X134810046Y-97707080D01*
X134818316Y-97703224D01*
X134903224Y-97618316D01*
X134953972Y-97509487D01*
X134960500Y-97459901D01*
X134960499Y-97089791D01*
X135236800Y-97089791D01*
X135236800Y-97168350D01*
X135648350Y-97168350D01*
X135851650Y-97168350D01*
X136263199Y-97168350D01*
X136263199Y-97089793D01*
X136263198Y-97089788D01*
X136256619Y-97039802D01*
X136205468Y-96930110D01*
X136205467Y-96930108D01*
X136119891Y-96844532D01*
X136119889Y-96844531D01*
X136010198Y-96793381D01*
X135960208Y-96786800D01*
X135851650Y-96786800D01*
X135851650Y-97168350D01*
X135648350Y-97168350D01*
X135648350Y-96786800D01*
X135539793Y-96786800D01*
X135539788Y-96786801D01*
X135489802Y-96793380D01*
X135380110Y-96844531D01*
X135380108Y-96844532D01*
X135294532Y-96930108D01*
X135294531Y-96930110D01*
X135243381Y-97039801D01*
X135236800Y-97089791D01*
X134960499Y-97089791D01*
X134960499Y-97040100D01*
X134953972Y-96990513D01*
X134953971Y-96990511D01*
X134927405Y-96933541D01*
X134903224Y-96881684D01*
X134903223Y-96881683D01*
X134903222Y-96881681D01*
X134844852Y-96823311D01*
X134830500Y-96788663D01*
X134830500Y-96049000D01*
X134844852Y-96014352D01*
X134879500Y-96000000D01*
X172450500Y-96000000D01*
X172485148Y-96014352D01*
X172499500Y-96049000D01*
X172499500Y-130998251D01*
X172499375Y-131001747D01*
X172484486Y-131209905D01*
X172483491Y-131216825D01*
X172439505Y-131419029D01*
X172437536Y-131425737D01*
X172365215Y-131619637D01*
X172362310Y-131625996D01*
X172263140Y-131807614D01*
X172259360Y-131813496D01*
X172135345Y-131979159D01*
X172130767Y-131984442D01*
X171984442Y-132130767D01*
X171979159Y-132135345D01*
X171813496Y-132259360D01*
X171807614Y-132263140D01*
X171625996Y-132362310D01*
X171619637Y-132365215D01*
X171425737Y-132437536D01*
X171419029Y-132439505D01*
X171216825Y-132483491D01*
X171209905Y-132484486D01*
X171001748Y-132499375D01*
X170998252Y-132499500D01*
X112001748Y-132499500D01*
X111998252Y-132499375D01*
X111790094Y-132484486D01*
X111783174Y-132483491D01*
X111580970Y-132439505D01*
X111574262Y-132437536D01*
X111380362Y-132365215D01*
X111374003Y-132362310D01*
X111252504Y-132295967D01*
X111192381Y-132263137D01*
X111186508Y-132259363D01*
X111020840Y-132135345D01*
X111015557Y-132130767D01*
X110869232Y-131984442D01*
X110864654Y-131979159D01*
X110740634Y-131813488D01*
X110736864Y-131807622D01*
X110637687Y-131625992D01*
X110634784Y-131619637D01*
X110562463Y-131425737D01*
X110560494Y-131419029D01*
X110516508Y-131216825D01*
X110515513Y-131209905D01*
X110500625Y-131001747D01*
X110500500Y-130998251D01*
X110500500Y-103960211D01*
X129306801Y-103960211D01*
X129313380Y-104010197D01*
X129364531Y-104119889D01*
X129364532Y-104119891D01*
X129450108Y-104205467D01*
X129450110Y-104205468D01*
X129559801Y-104256618D01*
X129609792Y-104263199D01*
X129688349Y-104263199D01*
X129688350Y-104263198D01*
X129688350Y-103851650D01*
X129306801Y-103851650D01*
X129306801Y-103960211D01*
X110500500Y-103960211D01*
X110500500Y-103539791D01*
X129306800Y-103539791D01*
X129306800Y-103648350D01*
X129688350Y-103648350D01*
X129688350Y-102851650D01*
X129306801Y-102851650D01*
X129306801Y-102960211D01*
X129313380Y-103010197D01*
X129364531Y-103119889D01*
X129364532Y-103119891D01*
X129450108Y-103205467D01*
X129450111Y-103205469D01*
X129450374Y-103205592D01*
X129450530Y-103205763D01*
X129453619Y-103207925D01*
X129453139Y-103208610D01*
X129475709Y-103233242D01*
X129474072Y-103270710D01*
X129453243Y-103291538D01*
X129453619Y-103292075D01*
X129450578Y-103294203D01*
X129450374Y-103294408D01*
X129450111Y-103294530D01*
X129450108Y-103294532D01*
X129364532Y-103380108D01*
X129364531Y-103380110D01*
X129313381Y-103489801D01*
X129306800Y-103539791D01*
X110500500Y-103539791D01*
X110500500Y-102539791D01*
X129306800Y-102539791D01*
X129306800Y-102648350D01*
X129688350Y-102648350D01*
X129688350Y-102236800D01*
X129609793Y-102236800D01*
X129609788Y-102236801D01*
X129559802Y-102243380D01*
X129450110Y-102294531D01*
X129450108Y-102294532D01*
X129364532Y-102380108D01*
X129364531Y-102380110D01*
X129313381Y-102489801D01*
X129306800Y-102539791D01*
X110500500Y-102539791D01*
X110500500Y-96049000D01*
X110514852Y-96014352D01*
X110549500Y-96000000D01*
X133120500Y-96000000D01*
X133155148Y-96014352D01*
G37*
G04 #@! TD.AperFunction*
G04 #@! TA.AperFunction,Conductor*
G36*
X132909397Y-105552170D02*
G01*
X132977804Y-105570499D01*
X132977805Y-105570500D01*
X132977808Y-105570500D01*
X133422198Y-105570500D01*
X133450253Y-105562982D01*
X133486798Y-105553190D01*
X133523980Y-105558084D01*
X133546810Y-105587837D01*
X133546810Y-105613202D01*
X133529501Y-105677801D01*
X133529501Y-106122196D01*
X133551341Y-106203706D01*
X133551342Y-106203709D01*
X133593533Y-106276784D01*
X133593535Y-106276786D01*
X133593537Y-106276790D01*
X133653209Y-106336462D01*
X133653213Y-106336464D01*
X133653214Y-106336465D01*
X133726289Y-106378656D01*
X133726292Y-106378657D01*
X133807802Y-106400497D01*
X133807803Y-106400498D01*
X133807806Y-106400498D01*
X133892199Y-106400498D01*
X133892199Y-106400497D01*
X133973710Y-106378657D01*
X134046793Y-106336462D01*
X134065352Y-106317901D01*
X134099998Y-106303550D01*
X134134645Y-106317899D01*
X134153208Y-106336462D01*
X134153212Y-106336464D01*
X134153213Y-106336465D01*
X134226288Y-106378656D01*
X134226291Y-106378657D01*
X134307801Y-106400497D01*
X134307802Y-106400498D01*
X134307805Y-106400498D01*
X134392198Y-106400498D01*
X134392198Y-106400497D01*
X134473709Y-106378657D01*
X134546792Y-106336462D01*
X134563442Y-106319811D01*
X134598088Y-106305458D01*
X134632737Y-106319808D01*
X134651547Y-106338618D01*
X134651557Y-106338625D01*
X134725249Y-106381173D01*
X134748350Y-106387362D01*
X134748351Y-106387362D01*
X134748351Y-105847349D01*
X134762703Y-105812701D01*
X134797351Y-105798349D01*
X134902651Y-105798349D01*
X134937299Y-105812701D01*
X134951651Y-105847349D01*
X134951651Y-106387362D01*
X134974751Y-106381173D01*
X134975999Y-106380453D01*
X134976721Y-106380357D01*
X134977718Y-106379945D01*
X134977828Y-106380212D01*
X135013181Y-106375556D01*
X135042935Y-106398385D01*
X135049501Y-106422887D01*
X135049501Y-106755231D01*
X135035149Y-106789879D01*
X134947932Y-106877095D01*
X134913284Y-106891447D01*
X134878636Y-106877095D01*
X134798318Y-106796777D01*
X134798316Y-106796776D01*
X134709223Y-106755231D01*
X134689488Y-106746028D01*
X134679569Y-106744722D01*
X134639901Y-106739500D01*
X134639897Y-106739500D01*
X134280103Y-106739500D01*
X134280098Y-106739501D01*
X134230512Y-106746027D01*
X134121683Y-106796776D01*
X134121681Y-106796777D01*
X134036777Y-106881681D01*
X134025898Y-106905012D01*
X133998247Y-106930348D01*
X133960780Y-106928712D01*
X133937080Y-106905011D01*
X133925468Y-106880110D01*
X133925467Y-106880108D01*
X133839891Y-106794532D01*
X133839889Y-106794531D01*
X133730198Y-106743381D01*
X133680208Y-106736800D01*
X133601650Y-106736800D01*
X133601650Y-107763199D01*
X133680206Y-107763199D01*
X133680211Y-107763198D01*
X133730197Y-107756619D01*
X133839889Y-107705468D01*
X133839891Y-107705467D01*
X133925467Y-107619891D01*
X133925469Y-107619888D01*
X133937080Y-107594989D01*
X133964729Y-107569651D01*
X134002196Y-107571287D01*
X134025898Y-107594988D01*
X134036776Y-107618316D01*
X134036777Y-107618318D01*
X134121681Y-107703222D01*
X134121683Y-107703223D01*
X134121684Y-107703224D01*
X134230513Y-107753972D01*
X134280099Y-107760500D01*
X134639900Y-107760499D01*
X134689487Y-107753972D01*
X134798316Y-107703224D01*
X134883224Y-107618316D01*
X134901654Y-107578791D01*
X134929304Y-107553455D01*
X134946063Y-107550500D01*
X135039564Y-107550500D01*
X135066230Y-107543354D01*
X135115989Y-107530021D01*
X135184511Y-107490460D01*
X135240460Y-107434511D01*
X135590461Y-107084510D01*
X135598851Y-107069978D01*
X135630022Y-107015988D01*
X135650501Y-106939561D01*
X135650501Y-106422886D01*
X135664853Y-106388238D01*
X135699501Y-106373886D01*
X135722267Y-106379987D01*
X135722285Y-106379945D01*
X135722609Y-106380079D01*
X135724007Y-106380454D01*
X135725253Y-106381174D01*
X135748351Y-106387362D01*
X135748352Y-106387362D01*
X135748352Y-105847349D01*
X135762704Y-105812701D01*
X135797352Y-105798349D01*
X135902652Y-105798349D01*
X135937300Y-105812701D01*
X135951652Y-105847349D01*
X135951652Y-106387362D01*
X135974753Y-106381173D01*
X136048450Y-106338622D01*
X136067260Y-106319812D01*
X136101908Y-106305459D01*
X136136555Y-106319808D01*
X136153209Y-106336462D01*
X136153213Y-106336464D01*
X136153214Y-106336465D01*
X136226289Y-106378656D01*
X136226292Y-106378657D01*
X136307802Y-106400497D01*
X136307803Y-106400498D01*
X136307806Y-106400498D01*
X136392199Y-106400498D01*
X136392199Y-106400497D01*
X136473710Y-106378657D01*
X136546793Y-106336462D01*
X136606465Y-106276790D01*
X136648660Y-106203707D01*
X136670500Y-106122196D01*
X136670501Y-106122196D01*
X136670501Y-105677802D01*
X136653191Y-105613202D01*
X136658086Y-105576020D01*
X136687839Y-105553190D01*
X136713202Y-105553190D01*
X136724046Y-105556095D01*
X136777803Y-105570500D01*
X136777806Y-105570500D01*
X136875233Y-105570500D01*
X136909881Y-105584852D01*
X137059543Y-105734514D01*
X137115492Y-105790463D01*
X137184014Y-105830024D01*
X137219481Y-105839527D01*
X137260439Y-105850503D01*
X137260441Y-105850503D01*
X137325750Y-105850503D01*
X137360398Y-105864855D01*
X137362782Y-105867415D01*
X137418872Y-105932146D01*
X137539947Y-106009956D01*
X137616785Y-106032517D01*
X137678034Y-106050502D01*
X137678037Y-106050502D01*
X137678039Y-106050503D01*
X137678040Y-106050503D01*
X137807700Y-106050503D01*
X137842348Y-106064855D01*
X137856700Y-106099503D01*
X137842348Y-106134151D01*
X137465616Y-106510884D01*
X137430968Y-106525236D01*
X137036171Y-106525236D01*
X136959745Y-106545715D01*
X136959743Y-106545715D01*
X136925498Y-106565488D01*
X136891223Y-106585276D01*
X136891223Y-106585277D01*
X132634148Y-110842352D01*
X132599500Y-110856704D01*
X132564852Y-110842352D01*
X132550500Y-110807704D01*
X132550500Y-107460211D01*
X133016801Y-107460211D01*
X133023380Y-107510197D01*
X133074531Y-107619889D01*
X133074532Y-107619891D01*
X133160108Y-107705467D01*
X133160110Y-107705468D01*
X133269801Y-107756618D01*
X133319792Y-107763199D01*
X133398349Y-107763199D01*
X133398350Y-107763198D01*
X133398350Y-107351650D01*
X133016801Y-107351650D01*
X133016801Y-107460211D01*
X132550500Y-107460211D01*
X132550500Y-107039791D01*
X133016800Y-107039791D01*
X133016800Y-107148350D01*
X133398350Y-107148350D01*
X133398350Y-106736800D01*
X133319793Y-106736800D01*
X133319788Y-106736801D01*
X133269802Y-106743380D01*
X133160110Y-106794531D01*
X133160108Y-106794532D01*
X133074532Y-106880108D01*
X133074531Y-106880110D01*
X133023381Y-106989801D01*
X133016800Y-107039791D01*
X132550500Y-107039791D01*
X132550500Y-105894767D01*
X132564852Y-105860119D01*
X132860119Y-105564852D01*
X132894767Y-105550500D01*
X132896715Y-105550500D01*
X132909397Y-105552170D01*
G37*
G04 #@! TD.AperFunction*
G04 #@! TA.AperFunction,Conductor*
G36*
X141119881Y-98544852D02*
G01*
X141535881Y-98960852D01*
X141550233Y-98995500D01*
X141535881Y-99030148D01*
X141501233Y-99044500D01*
X140124000Y-99044500D01*
X140110355Y-99045967D01*
X140080328Y-99049195D01*
X140080306Y-99049198D01*
X140028798Y-99060404D01*
X140018631Y-99062888D01*
X140018626Y-99062890D01*
X139937912Y-99105901D01*
X139885115Y-99151651D01*
X139867158Y-99169243D01*
X139867156Y-99169247D01*
X139822511Y-99249059D01*
X139822508Y-99249067D01*
X139802824Y-99316102D01*
X139794500Y-99373997D01*
X139794500Y-99721935D01*
X139795890Y-99745789D01*
X139799235Y-99774402D01*
X139824842Y-99852353D01*
X139824844Y-99852358D01*
X139859463Y-99913048D01*
X139873233Y-99934084D01*
X139911861Y-99966991D01*
X139942849Y-99993390D01*
X139942850Y-99993390D01*
X139942852Y-99993392D01*
X140004788Y-100025730D01*
X140004804Y-100025737D01*
X140004814Y-100025742D01*
X140027732Y-100035977D01*
X140027736Y-100035977D01*
X140027737Y-100035978D01*
X140033513Y-100036759D01*
X140045818Y-100038423D01*
X140078231Y-100057287D01*
X140087811Y-100093546D01*
X140073901Y-100121629D01*
X140035936Y-100159593D01*
X140035935Y-100159595D01*
X139985933Y-100266824D01*
X139985932Y-100266825D01*
X139979500Y-100315687D01*
X139979500Y-100664312D01*
X139979499Y-100664312D01*
X139985932Y-100713174D01*
X139985933Y-100713175D01*
X140035935Y-100820404D01*
X140035936Y-100820406D01*
X140119593Y-100904063D01*
X140119595Y-100904064D01*
X140119596Y-100904065D01*
X140183573Y-100933898D01*
X140230093Y-100955591D01*
X140255430Y-100983241D01*
X140253794Y-101020708D01*
X140230093Y-101044409D01*
X140119595Y-101095935D01*
X140119593Y-101095936D01*
X140035936Y-101179593D01*
X140035935Y-101179595D01*
X139985933Y-101286824D01*
X139985932Y-101286825D01*
X139979500Y-101335687D01*
X139979500Y-101684312D01*
X139979499Y-101684312D01*
X139985932Y-101733174D01*
X139985933Y-101733175D01*
X140035935Y-101840404D01*
X140035936Y-101840406D01*
X140119593Y-101924063D01*
X140119595Y-101924064D01*
X140119596Y-101924065D01*
X140171208Y-101948132D01*
X140196545Y-101975782D01*
X140199500Y-101992541D01*
X140199500Y-102297264D01*
X140219979Y-102373690D01*
X140219979Y-102373692D01*
X140239387Y-102407307D01*
X140245453Y-102438780D01*
X140236652Y-102499998D01*
X140236652Y-102500002D01*
X140257132Y-102642454D01*
X140280582Y-102693800D01*
X140316922Y-102773373D01*
X140316923Y-102773374D01*
X140316924Y-102773376D01*
X140382886Y-102849500D01*
X140411171Y-102882143D01*
X140532246Y-102959953D01*
X140609084Y-102982514D01*
X140670333Y-103000499D01*
X140670336Y-103000499D01*
X140670338Y-103000500D01*
X140670339Y-103000500D01*
X140814259Y-103000500D01*
X140814260Y-103000500D01*
X140814262Y-103000499D01*
X140814264Y-103000499D01*
X140850694Y-102989802D01*
X140952352Y-102959953D01*
X141073427Y-102882143D01*
X141129517Y-102817412D01*
X141163053Y-102800625D01*
X141166549Y-102800500D01*
X141915845Y-102800500D01*
X141950493Y-102814852D01*
X141964845Y-102849500D01*
X141950493Y-102884148D01*
X141940347Y-102891933D01*
X141933375Y-102895958D01*
X141923189Y-102901839D01*
X138884148Y-105940880D01*
X138849500Y-105955232D01*
X138814852Y-105940880D01*
X138800500Y-105906232D01*
X138800500Y-104611907D01*
X138794753Y-104590461D01*
X138794753Y-104590460D01*
X138780022Y-104535483D01*
X138780021Y-104535481D01*
X138756514Y-104494767D01*
X138740460Y-104466960D01*
X138314852Y-104041352D01*
X138300500Y-104006704D01*
X138300500Y-103752074D01*
X138314852Y-103717426D01*
X138328794Y-103707664D01*
X138333503Y-103705468D01*
X138338316Y-103703224D01*
X138423224Y-103618316D01*
X138434102Y-103594986D01*
X138461749Y-103569652D01*
X138499217Y-103571286D01*
X138522919Y-103594987D01*
X138534532Y-103619891D01*
X138620108Y-103705467D01*
X138620110Y-103705468D01*
X138729801Y-103756618D01*
X138779792Y-103763199D01*
X138858349Y-103763199D01*
X139061650Y-103763199D01*
X139140206Y-103763199D01*
X139140211Y-103763198D01*
X139190197Y-103756619D01*
X139299889Y-103705468D01*
X139299891Y-103705467D01*
X139385467Y-103619891D01*
X139385468Y-103619889D01*
X139436618Y-103510198D01*
X139443200Y-103460208D01*
X139443200Y-103351650D01*
X139061650Y-103351650D01*
X139061650Y-103763199D01*
X138858349Y-103763199D01*
X138858350Y-103763198D01*
X138858350Y-102806200D01*
X139061650Y-102806200D01*
X139061650Y-103148350D01*
X139443199Y-103148350D01*
X139443199Y-103039793D01*
X139443198Y-103039788D01*
X139436619Y-102989802D01*
X139385468Y-102880110D01*
X139385467Y-102880108D01*
X139296857Y-102791498D01*
X139297923Y-102790431D01*
X139280907Y-102763717D01*
X139289025Y-102727103D01*
X139308457Y-102710800D01*
X139319889Y-102705469D01*
X139405467Y-102619891D01*
X139405468Y-102619889D01*
X139456618Y-102510198D01*
X139463200Y-102460208D01*
X139463200Y-102351650D01*
X139081650Y-102351650D01*
X139081650Y-102765904D01*
X139067298Y-102800552D01*
X139061650Y-102806200D01*
X138858350Y-102806200D01*
X138858350Y-102734096D01*
X138872702Y-102699448D01*
X138878350Y-102693800D01*
X138878350Y-102148350D01*
X139081650Y-102148350D01*
X139463199Y-102148350D01*
X139463199Y-102039793D01*
X139463198Y-102039788D01*
X139456619Y-101989802D01*
X139405468Y-101880110D01*
X139405467Y-101880108D01*
X139319891Y-101794532D01*
X139319889Y-101794531D01*
X139210198Y-101743381D01*
X139160208Y-101736800D01*
X139081650Y-101736800D01*
X139081650Y-102148350D01*
X138878350Y-102148350D01*
X138878350Y-101736800D01*
X138799793Y-101736800D01*
X138799788Y-101736801D01*
X138749802Y-101743380D01*
X138640110Y-101794531D01*
X138640108Y-101794532D01*
X138554532Y-101880108D01*
X138542919Y-101905012D01*
X138515268Y-101930348D01*
X138477801Y-101928712D01*
X138454101Y-101905010D01*
X138443224Y-101881684D01*
X138443222Y-101881681D01*
X138358318Y-101796777D01*
X138358316Y-101796776D01*
X138249489Y-101746029D01*
X138249488Y-101746028D01*
X138234857Y-101744102D01*
X138199901Y-101739500D01*
X138199897Y-101739500D01*
X137840103Y-101739500D01*
X137840096Y-101739501D01*
X137805137Y-101744102D01*
X137768913Y-101734394D01*
X137750163Y-101701914D01*
X137759871Y-101665690D01*
X137764085Y-101660885D01*
X138430371Y-100994598D01*
X138458625Y-100980666D01*
X138459894Y-100980499D01*
X138459900Y-100980499D01*
X138509487Y-100973972D01*
X138618316Y-100923224D01*
X138703224Y-100838316D01*
X138753972Y-100729487D01*
X138760500Y-100679901D01*
X138760499Y-100320100D01*
X138753972Y-100270513D01*
X138752253Y-100266827D01*
X138725044Y-100208477D01*
X138703224Y-100161684D01*
X138703223Y-100161683D01*
X138703222Y-100161681D01*
X138618318Y-100076777D01*
X138618316Y-100076776D01*
X138591795Y-100064409D01*
X138566458Y-100036759D01*
X138568094Y-99999292D01*
X138591795Y-99975591D01*
X138591924Y-99975530D01*
X138618316Y-99963224D01*
X138703224Y-99878316D01*
X138753972Y-99769487D01*
X138760500Y-99719901D01*
X138760499Y-99360100D01*
X138753972Y-99310513D01*
X138753640Y-99309802D01*
X138709652Y-99215469D01*
X138703224Y-99201684D01*
X138703223Y-99201683D01*
X138703222Y-99201681D01*
X138618318Y-99116777D01*
X138618316Y-99116776D01*
X138509489Y-99066029D01*
X138509488Y-99066028D01*
X138499569Y-99064722D01*
X138459901Y-99059500D01*
X138459897Y-99059500D01*
X138040103Y-99059500D01*
X138040098Y-99059501D01*
X137990512Y-99066027D01*
X137881683Y-99116776D01*
X137881681Y-99116777D01*
X137796777Y-99201681D01*
X137796776Y-99201683D01*
X137792335Y-99211208D01*
X137764686Y-99236545D01*
X137747926Y-99239500D01*
X137670436Y-99239500D01*
X137594012Y-99259978D01*
X137594008Y-99259980D01*
X137541840Y-99290099D01*
X137525495Y-99299535D01*
X137525486Y-99299542D01*
X137259541Y-99565488D01*
X137259540Y-99565488D01*
X137219979Y-99634008D01*
X137219979Y-99634010D01*
X137199500Y-99710436D01*
X137199500Y-100789547D01*
X137185148Y-100824195D01*
X136824195Y-101185148D01*
X136789547Y-101199500D01*
X136482022Y-101199500D01*
X136447374Y-101185148D01*
X136433022Y-101150500D01*
X136437450Y-101130144D01*
X136444420Y-101114884D01*
X136461946Y-101076507D01*
X136461946Y-101076505D01*
X136461947Y-101076504D01*
X136469707Y-101022526D01*
X136488843Y-100990273D01*
X136518208Y-100980499D01*
X136709896Y-100980499D01*
X136709900Y-100980499D01*
X136759487Y-100973972D01*
X136868316Y-100923224D01*
X136953224Y-100838316D01*
X137003972Y-100729487D01*
X137010500Y-100679901D01*
X137010499Y-100320100D01*
X137003972Y-100270513D01*
X137002253Y-100266827D01*
X136975044Y-100208477D01*
X136953224Y-100161684D01*
X136953223Y-100161683D01*
X136953222Y-100161681D01*
X136868318Y-100076777D01*
X136868316Y-100076776D01*
X136844988Y-100065898D01*
X136819651Y-100038248D01*
X136821287Y-100000781D01*
X136844989Y-99977080D01*
X136869888Y-99965469D01*
X136869891Y-99965467D01*
X136955467Y-99879891D01*
X136955468Y-99879889D01*
X137006618Y-99770198D01*
X137013200Y-99720208D01*
X137013200Y-99641650D01*
X136447350Y-99641650D01*
X136412702Y-99627298D01*
X136398350Y-99592650D01*
X136398350Y-99438350D01*
X136601650Y-99438350D01*
X137013199Y-99438350D01*
X137013199Y-99359793D01*
X137013198Y-99359788D01*
X137006619Y-99309802D01*
X136955468Y-99200110D01*
X136955467Y-99200108D01*
X136869891Y-99114532D01*
X136869889Y-99114531D01*
X136760198Y-99063381D01*
X136710208Y-99056800D01*
X136601650Y-99056800D01*
X136601650Y-99438350D01*
X136398350Y-99438350D01*
X136398350Y-99056800D01*
X136289793Y-99056800D01*
X136289788Y-99056801D01*
X136239802Y-99063380D01*
X136130107Y-99114532D01*
X136127598Y-99116289D01*
X136090983Y-99124400D01*
X136059357Y-99104244D01*
X136050500Y-99076146D01*
X136050500Y-98716063D01*
X136064852Y-98681415D01*
X136078790Y-98671654D01*
X136118316Y-98653224D01*
X136203224Y-98568316D01*
X136207665Y-98558791D01*
X136235314Y-98533455D01*
X136252074Y-98530500D01*
X141085233Y-98530500D01*
X141119881Y-98544852D01*
G37*
G04 #@! TD.AperFunction*
G04 #@! TA.AperFunction,Conductor*
G36*
X146134282Y-102059252D02*
G01*
X146160149Y-102085119D01*
X146174501Y-102119767D01*
X146174501Y-102265100D01*
X146160149Y-102299748D01*
X146125501Y-102314100D01*
X145951651Y-102314100D01*
X145951651Y-102694950D01*
X145937299Y-102729598D01*
X145902651Y-102743950D01*
X145346801Y-102743950D01*
X145346801Y-102787318D01*
X145346868Y-102787999D01*
X145346801Y-102788219D01*
X145346801Y-102789721D01*
X145346346Y-102789721D01*
X145335980Y-102823886D01*
X145302904Y-102841563D01*
X145298104Y-102841799D01*
X143257542Y-102841799D01*
X143222894Y-102827447D01*
X143208542Y-102792799D01*
X143222894Y-102758151D01*
X143233039Y-102750365D01*
X143250197Y-102740460D01*
X143306146Y-102684511D01*
X143493375Y-102497282D01*
X145346801Y-102497282D01*
X145346801Y-102540650D01*
X145748351Y-102540650D01*
X145748351Y-102314100D01*
X145529983Y-102314100D01*
X145470717Y-102325889D01*
X145403501Y-102370800D01*
X145358590Y-102438016D01*
X145346801Y-102497282D01*
X143493375Y-102497282D01*
X143931405Y-102059252D01*
X143966053Y-102044900D01*
X146099634Y-102044900D01*
X146134282Y-102059252D01*
G37*
G04 #@! TD.AperFunction*
G04 #@! TA.AperFunction,Conductor*
G36*
X146526340Y-99269685D02*
G01*
X146572095Y-99322489D01*
X146582039Y-99391647D01*
X146574656Y-99419489D01*
X146550421Y-99480943D01*
X146550420Y-99480947D01*
X146542127Y-99550000D01*
X148326000Y-99550000D01*
X148393039Y-99569685D01*
X148438794Y-99622489D01*
X148450000Y-99674000D01*
X148450000Y-100429999D01*
X148462271Y-100429999D01*
X148549054Y-100419579D01*
X148549058Y-100419577D01*
X148580510Y-100407175D01*
X148650096Y-100400893D01*
X148712033Y-100433230D01*
X148746654Y-100493918D01*
X148750000Y-100522529D01*
X148750000Y-100876000D01*
X148730315Y-100943039D01*
X148677511Y-100988794D01*
X148626000Y-101000000D01*
X142544408Y-101000000D01*
X142477369Y-100980315D01*
X142431614Y-100927511D01*
X142421670Y-100858353D01*
X142429054Y-100830510D01*
X142459673Y-100752865D01*
X142459675Y-100752857D01*
X142467224Y-100690000D01*
X140424000Y-100690000D01*
X140356961Y-100670315D01*
X140311206Y-100617511D01*
X140300000Y-100566000D01*
X140300000Y-100290000D01*
X140700000Y-100290000D01*
X141550000Y-100290000D01*
X141950000Y-100290000D01*
X142467224Y-100290000D01*
X142459675Y-100227142D01*
X142459675Y-100227141D01*
X142405721Y-100090323D01*
X142316859Y-99973140D01*
X142286344Y-99950000D01*
X146542129Y-99950000D01*
X146550421Y-100019054D01*
X146550422Y-100019058D01*
X146604876Y-100157144D01*
X146604879Y-100157150D01*
X146694571Y-100275428D01*
X146812849Y-100365120D01*
X146812855Y-100365123D01*
X146950945Y-100419579D01*
X146950947Y-100419580D01*
X147037704Y-100429998D01*
X147037723Y-100429999D01*
X147450000Y-100429999D01*
X147462271Y-100429999D01*
X147549054Y-100419579D01*
X147549058Y-100419577D01*
X147687144Y-100365123D01*
X147689225Y-100363954D01*
X147691358Y-100363462D01*
X147695038Y-100362011D01*
X147695255Y-100362563D01*
X147757308Y-100348255D01*
X147804878Y-100362222D01*
X147804962Y-100362011D01*
X147807306Y-100362935D01*
X147810775Y-100363954D01*
X147812855Y-100365123D01*
X147950945Y-100419579D01*
X147950947Y-100419580D01*
X148037704Y-100429998D01*
X148037723Y-100429999D01*
X148050000Y-100429998D01*
X148050000Y-99950000D01*
X147450000Y-99950000D01*
X147450000Y-100429999D01*
X147037723Y-100429999D01*
X147050000Y-100429998D01*
X147050000Y-99950000D01*
X146542129Y-99950000D01*
X142286344Y-99950000D01*
X142199676Y-99884278D01*
X142062857Y-99830324D01*
X142062858Y-99830324D01*
X141976884Y-99820000D01*
X141950000Y-99820000D01*
X141950000Y-100290000D01*
X141550000Y-100290000D01*
X141550000Y-99820000D01*
X141523116Y-99820000D01*
X141437141Y-99830324D01*
X141300323Y-99884278D01*
X141199925Y-99960412D01*
X141134613Y-99985235D01*
X141066249Y-99970807D01*
X141050075Y-99960412D01*
X140949676Y-99884278D01*
X140812857Y-99830324D01*
X140812858Y-99830324D01*
X140726884Y-99820000D01*
X140700000Y-99820000D01*
X140700000Y-100290000D01*
X140300000Y-100290000D01*
X140300000Y-99820000D01*
X140273116Y-99820000D01*
X140187141Y-99830324D01*
X140187136Y-99830326D01*
X140169486Y-99837286D01*
X140099900Y-99843565D01*
X140037964Y-99811227D01*
X140003345Y-99750537D01*
X140000000Y-99721930D01*
X140000000Y-99374000D01*
X140019685Y-99306961D01*
X140072489Y-99261206D01*
X140124000Y-99250000D01*
X146459301Y-99250000D01*
X146526340Y-99269685D01*
G37*
G04 #@! TD.AperFunction*
M02*
