G04 #@! TF.GenerationSoftware,KiCad,Pcbnew,8.0.5*
G04 #@! TF.CreationDate,2025-05-26T10:54:01-04:00*
G04 #@! TF.ProjectId,tcg_counter,7463675f-636f-4756-9e74-65722e6b6963,1*
G04 #@! TF.SameCoordinates,Original*
G04 #@! TF.FileFunction,Soldermask,Bot*
G04 #@! TF.FilePolarity,Negative*
%FSLAX46Y46*%
G04 Gerber Fmt 4.6, Leading zero omitted, Abs format (unit mm)*
G04 Created by KiCad (PCBNEW 8.0.5) date 2025-05-26 10:54:01*
%MOMM*%
%LPD*%
G01*
G04 APERTURE LIST*
G04 Aperture macros list*
%AMRoundRect*
0 Rectangle with rounded corners*
0 $1 Rounding radius*
0 $2 $3 $4 $5 $6 $7 $8 $9 X,Y pos of 4 corners*
0 Add a 4 corners polygon primitive as box body*
4,1,4,$2,$3,$4,$5,$6,$7,$8,$9,$2,$3,0*
0 Add four circle primitives for the rounded corners*
1,1,$1+$1,$2,$3*
1,1,$1+$1,$4,$5*
1,1,$1+$1,$6,$7*
1,1,$1+$1,$8,$9*
0 Add four rect primitives between the rounded corners*
20,1,$1+$1,$2,$3,$4,$5,0*
20,1,$1+$1,$4,$5,$6,$7,0*
20,1,$1+$1,$6,$7,$8,$9,0*
20,1,$1+$1,$8,$9,$2,$3,0*%
G04 Aperture macros list end*
%ADD10C,0.990600*%
%ADD11C,0.400000*%
%ADD12O,0.240000X0.599999*%
%ADD13O,0.599999X0.240000*%
%ADD14R,2.100001X2.100001*%
%ADD15RoundRect,0.140000X0.170000X-0.140000X0.170000X0.140000X-0.170000X0.140000X-0.170000X-0.140000X0*%
%ADD16RoundRect,0.135000X-0.185000X0.135000X-0.185000X-0.135000X0.185000X-0.135000X0.185000X0.135000X0*%
%ADD17RoundRect,0.140000X-0.140000X-0.170000X0.140000X-0.170000X0.140000X0.170000X-0.140000X0.170000X0*%
%ADD18RoundRect,0.140000X-0.170000X0.140000X-0.170000X-0.140000X0.170000X-0.140000X0.170000X0.140000X0*%
%ADD19RoundRect,0.140000X0.140000X0.170000X-0.140000X0.170000X-0.140000X-0.170000X0.140000X-0.170000X0*%
%ADD20R,0.600000X0.250000*%
%ADD21R,0.250000X0.600000*%
%ADD22R,2.200000X2.200000*%
%ADD23RoundRect,0.135000X0.135000X0.185000X-0.135000X0.185000X-0.135000X-0.185000X0.135000X-0.185000X0*%
G04 APERTURE END LIST*
D10*
X137690000Y-126635000D03*
X145310000Y-125619000D03*
X145310000Y-127651000D03*
D11*
X135100001Y-103200000D03*
X135900001Y-104000000D03*
X135100001Y-104000000D03*
X134300001Y-104000000D03*
X135100001Y-104800000D03*
D12*
X133850001Y-102100001D03*
X134350000Y-102100001D03*
X134850001Y-102100001D03*
X135350001Y-102100001D03*
X135850002Y-102100001D03*
X136350001Y-102100001D03*
D13*
X137000000Y-102750000D03*
X137000000Y-103249999D03*
X137000000Y-103750000D03*
X137000000Y-104250000D03*
X137000000Y-104750001D03*
X137000000Y-105250000D03*
D12*
X136350001Y-105899999D03*
X135850002Y-105899999D03*
X135350001Y-105899999D03*
X134850001Y-105899999D03*
X134350000Y-105899999D03*
X133850001Y-105899999D03*
D13*
X133200002Y-105250000D03*
X133200002Y-104750001D03*
X133200002Y-104250000D03*
X133200002Y-103750000D03*
X133200002Y-103249999D03*
X133200002Y-102750000D03*
D14*
X135100001Y-104000000D03*
D15*
X135750000Y-98230000D03*
X135750000Y-97270000D03*
D16*
X141750000Y-100490000D03*
X141750000Y-101510000D03*
D17*
X138020000Y-102250000D03*
X138980000Y-102250000D03*
X133500000Y-107250000D03*
X134460000Y-107250000D03*
D16*
X140500000Y-100490000D03*
X140500000Y-101510000D03*
D18*
X138250000Y-99540000D03*
X138250000Y-100500000D03*
D19*
X130750000Y-102750000D03*
X129790000Y-102750000D03*
D11*
X147750001Y-103042300D03*
X148600001Y-103892300D03*
X147750001Y-103892300D03*
X146900001Y-103892300D03*
X147750001Y-104742300D03*
D20*
X149650001Y-102642300D03*
X149650001Y-103142300D03*
X149650001Y-103642300D03*
X149650001Y-104142300D03*
X149650001Y-104642300D03*
X149650001Y-105142300D03*
D21*
X149000001Y-105792300D03*
X148500001Y-105792300D03*
X148000001Y-105792300D03*
X147500001Y-105792300D03*
X147000001Y-105792300D03*
X146500001Y-105792300D03*
D20*
X145850001Y-105142300D03*
X145850001Y-104642300D03*
X145850001Y-104142300D03*
X145850001Y-103642300D03*
X145850001Y-103142300D03*
X145850001Y-102642300D03*
D21*
X146500001Y-101992300D03*
X147000001Y-101992300D03*
X147500001Y-101992300D03*
X148000001Y-101992300D03*
X148500001Y-101992300D03*
X149000001Y-101992300D03*
D22*
X147750001Y-103892300D03*
D15*
X148250000Y-99750000D03*
X148250000Y-98790000D03*
D17*
X133520000Y-97250000D03*
X134480000Y-97250000D03*
D23*
X141760000Y-108500000D03*
X140740000Y-108500000D03*
D19*
X130750000Y-103750000D03*
X129790000Y-103750000D03*
D15*
X147250000Y-99750000D03*
X147250000Y-98790000D03*
D17*
X133520000Y-99500000D03*
X134480000Y-99500000D03*
D15*
X136500000Y-100500000D03*
X136500000Y-99540000D03*
D17*
X138000000Y-103250000D03*
X138960000Y-103250000D03*
M02*
