M48
; DRILL file {KiCad 8.0.5} date 2025-05-26T10:54:03-0400
; FORMAT={-:-/ absolute / metric / decimal}
; #@! TF.CreationDate,2025-05-26T10:54:03-04:00
; #@! TF.GenerationSoftware,Kicad,Pcbnew,8.0.5
; #@! TF.FileFunction,Plated,1,2,PTH
FMAT,2
METRIC
; #@! TA.AperFunction,Plated,PTH,ComponentDrill
T1C0.200
; #@! TA.AperFunction,Plated,PTH,ViaDrill
T2C0.300
%
G90
G05
T1
X134.3Y-104.0
X135.1Y-103.2
X135.1Y-104.0
X135.1Y-104.8
X135.9Y-104.0
X146.9Y-103.892
X147.75Y-103.042
X147.75Y-103.892
X147.75Y-104.742
X148.6Y-103.892
T2
X129.5Y-100.75
X129.5Y-105.0
X129.5Y-109.25
X130.45Y-121.5
X131.65Y-125.334
X132.25Y-97.25
X132.25Y-129.25
X133.0Y-123.25
X133.5Y-94.25
X134.0Y-108.5
X134.0Y-110.75
X134.5Y-123.0
X134.75Y-130.0
X135.0Y-112.75
X135.977Y-100.934
X136.0Y-107.0
X136.0Y-112.75
X136.5Y-123.0
X137.0Y-96.75
X137.0Y-111.5
X137.75Y-104.75
X137.75Y-105.55
X138.0Y-107.25
X139.0Y-109.25
X139.25Y-99.25
X139.5Y-101.25
X140.0Y-111.5
X140.742Y-102.5
X141.0Y-111.5
X142.0Y-111.5
X142.75Y-101.51
X143.0Y-107.25
X143.25Y-100.25
X143.75Y-105.5
X144.0Y-107.5
X144.35Y-104.5
X144.75Y-102.5
X145.0Y-72.0
X145.0Y-107.65
X147.0Y-107.75
X147.25Y-97.5
X147.9Y-107.75
X148.25Y-97.5
X149.5Y-101.0
M30
