G04 #@! TF.GenerationSoftware,KiCad,Pcbnew,8.0.5*
G04 #@! TF.CreationDate,2025-05-26T10:54:01-04:00*
G04 #@! TF.ProjectId,tcg_counter,7463675f-636f-4756-9e74-65722e6b6963,1*
G04 #@! TF.SameCoordinates,Original*
G04 #@! TF.FileFunction,Legend,Bot*
G04 #@! TF.FilePolarity,Positive*
%FSLAX46Y46*%
G04 Gerber Fmt 4.6, Leading zero omitted, Abs format (unit mm)*
G04 Created by KiCad (PCBNEW 8.0.5) date 2025-05-26 10:54:01*
%MOMM*%
%LPD*%
G01*
G04 APERTURE LIST*
G04 Aperture macros list*
%AMRoundRect*
0 Rectangle with rounded corners*
0 $1 Rounding radius*
0 $2 $3 $4 $5 $6 $7 $8 $9 X,Y pos of 4 corners*
0 Add a 4 corners polygon primitive as box body*
4,1,4,$2,$3,$4,$5,$6,$7,$8,$9,$2,$3,0*
0 Add four circle primitives for the rounded corners*
1,1,$1+$1,$2,$3*
1,1,$1+$1,$4,$5*
1,1,$1+$1,$6,$7*
1,1,$1+$1,$8,$9*
0 Add four rect primitives between the rounded corners*
20,1,$1+$1,$2,$3,$4,$5,0*
20,1,$1+$1,$4,$5,$6,$7,0*
20,1,$1+$1,$6,$7,$8,$9,0*
20,1,$1+$1,$8,$9,$2,$3,0*%
G04 Aperture macros list end*
%ADD10C,0.150000*%
%ADD11C,0.120000*%
%ADD12C,0.152400*%
%ADD13C,0.990600*%
%ADD14C,0.400000*%
%ADD15O,0.240000X0.599999*%
%ADD16O,0.599999X0.240000*%
%ADD17R,2.100001X2.100001*%
%ADD18RoundRect,0.140000X0.170000X-0.140000X0.170000X0.140000X-0.170000X0.140000X-0.170000X-0.140000X0*%
%ADD19RoundRect,0.135000X-0.185000X0.135000X-0.185000X-0.135000X0.185000X-0.135000X0.185000X0.135000X0*%
%ADD20RoundRect,0.140000X-0.140000X-0.170000X0.140000X-0.170000X0.140000X0.170000X-0.140000X0.170000X0*%
%ADD21RoundRect,0.140000X-0.170000X0.140000X-0.170000X-0.140000X0.170000X-0.140000X0.170000X0.140000X0*%
%ADD22RoundRect,0.140000X0.140000X0.170000X-0.140000X0.170000X-0.140000X-0.170000X0.140000X-0.170000X0*%
%ADD23R,0.600000X0.250000*%
%ADD24R,0.250000X0.600000*%
%ADD25R,2.200000X2.200000*%
%ADD26RoundRect,0.135000X0.135000X0.185000X-0.135000X0.185000X-0.135000X-0.185000X0.135000X-0.185000X0*%
G04 APERTURE END LIST*
D10*
X152011904Y-100704819D02*
X152011904Y-101514342D01*
X152011904Y-101514342D02*
X151964285Y-101609580D01*
X151964285Y-101609580D02*
X151916666Y-101657200D01*
X151916666Y-101657200D02*
X151821428Y-101704819D01*
X151821428Y-101704819D02*
X151630952Y-101704819D01*
X151630952Y-101704819D02*
X151535714Y-101657200D01*
X151535714Y-101657200D02*
X151488095Y-101609580D01*
X151488095Y-101609580D02*
X151440476Y-101514342D01*
X151440476Y-101514342D02*
X151440476Y-100704819D01*
X150440476Y-101704819D02*
X151011904Y-101704819D01*
X150726190Y-101704819D02*
X150726190Y-100704819D01*
X150726190Y-100704819D02*
X150821428Y-100847676D01*
X150821428Y-100847676D02*
X150916666Y-100942914D01*
X150916666Y-100942914D02*
X151011904Y-100990533D01*
X132511904Y-100704819D02*
X132511904Y-101514342D01*
X132511904Y-101514342D02*
X132464285Y-101609580D01*
X132464285Y-101609580D02*
X132416666Y-101657200D01*
X132416666Y-101657200D02*
X132321428Y-101704819D01*
X132321428Y-101704819D02*
X132130952Y-101704819D01*
X132130952Y-101704819D02*
X132035714Y-101657200D01*
X132035714Y-101657200D02*
X131988095Y-101609580D01*
X131988095Y-101609580D02*
X131940476Y-101514342D01*
X131940476Y-101514342D02*
X131940476Y-100704819D01*
X131511904Y-100800057D02*
X131464285Y-100752438D01*
X131464285Y-100752438D02*
X131369047Y-100704819D01*
X131369047Y-100704819D02*
X131130952Y-100704819D01*
X131130952Y-100704819D02*
X131035714Y-100752438D01*
X131035714Y-100752438D02*
X130988095Y-100800057D01*
X130988095Y-100800057D02*
X130940476Y-100895295D01*
X130940476Y-100895295D02*
X130940476Y-100990533D01*
X130940476Y-100990533D02*
X130988095Y-101133390D01*
X130988095Y-101133390D02*
X131559523Y-101704819D01*
X131559523Y-101704819D02*
X130940476Y-101704819D01*
X136109580Y-95583333D02*
X136157200Y-95535714D01*
X136157200Y-95535714D02*
X136204819Y-95392857D01*
X136204819Y-95392857D02*
X136204819Y-95297619D01*
X136204819Y-95297619D02*
X136157200Y-95154762D01*
X136157200Y-95154762D02*
X136061961Y-95059524D01*
X136061961Y-95059524D02*
X135966723Y-95011905D01*
X135966723Y-95011905D02*
X135776247Y-94964286D01*
X135776247Y-94964286D02*
X135633390Y-94964286D01*
X135633390Y-94964286D02*
X135442914Y-95011905D01*
X135442914Y-95011905D02*
X135347676Y-95059524D01*
X135347676Y-95059524D02*
X135252438Y-95154762D01*
X135252438Y-95154762D02*
X135204819Y-95297619D01*
X135204819Y-95297619D02*
X135204819Y-95392857D01*
X135204819Y-95392857D02*
X135252438Y-95535714D01*
X135252438Y-95535714D02*
X135300057Y-95583333D01*
X135300057Y-95964286D02*
X135252438Y-96011905D01*
X135252438Y-96011905D02*
X135204819Y-96107143D01*
X135204819Y-96107143D02*
X135204819Y-96345238D01*
X135204819Y-96345238D02*
X135252438Y-96440476D01*
X135252438Y-96440476D02*
X135300057Y-96488095D01*
X135300057Y-96488095D02*
X135395295Y-96535714D01*
X135395295Y-96535714D02*
X135490533Y-96535714D01*
X135490533Y-96535714D02*
X135633390Y-96488095D01*
X135633390Y-96488095D02*
X136204819Y-95916667D01*
X136204819Y-95916667D02*
X136204819Y-96535714D01*
X142454819Y-98833333D02*
X141978628Y-98500000D01*
X142454819Y-98261905D02*
X141454819Y-98261905D01*
X141454819Y-98261905D02*
X141454819Y-98642857D01*
X141454819Y-98642857D02*
X141502438Y-98738095D01*
X141502438Y-98738095D02*
X141550057Y-98785714D01*
X141550057Y-98785714D02*
X141645295Y-98833333D01*
X141645295Y-98833333D02*
X141788152Y-98833333D01*
X141788152Y-98833333D02*
X141883390Y-98785714D01*
X141883390Y-98785714D02*
X141931009Y-98738095D01*
X141931009Y-98738095D02*
X141978628Y-98642857D01*
X141978628Y-98642857D02*
X141978628Y-98261905D01*
X141454819Y-99166667D02*
X141454819Y-99785714D01*
X141454819Y-99785714D02*
X141835771Y-99452381D01*
X141835771Y-99452381D02*
X141835771Y-99595238D01*
X141835771Y-99595238D02*
X141883390Y-99690476D01*
X141883390Y-99690476D02*
X141931009Y-99738095D01*
X141931009Y-99738095D02*
X142026247Y-99785714D01*
X142026247Y-99785714D02*
X142264342Y-99785714D01*
X142264342Y-99785714D02*
X142359580Y-99738095D01*
X142359580Y-99738095D02*
X142407200Y-99690476D01*
X142407200Y-99690476D02*
X142454819Y-99595238D01*
X142454819Y-99595238D02*
X142454819Y-99309524D01*
X142454819Y-99309524D02*
X142407200Y-99214286D01*
X142407200Y-99214286D02*
X142359580Y-99166667D01*
X140666666Y-103109580D02*
X140714285Y-103157200D01*
X140714285Y-103157200D02*
X140857142Y-103204819D01*
X140857142Y-103204819D02*
X140952380Y-103204819D01*
X140952380Y-103204819D02*
X141095237Y-103157200D01*
X141095237Y-103157200D02*
X141190475Y-103061961D01*
X141190475Y-103061961D02*
X141238094Y-102966723D01*
X141238094Y-102966723D02*
X141285713Y-102776247D01*
X141285713Y-102776247D02*
X141285713Y-102633390D01*
X141285713Y-102633390D02*
X141238094Y-102442914D01*
X141238094Y-102442914D02*
X141190475Y-102347676D01*
X141190475Y-102347676D02*
X141095237Y-102252438D01*
X141095237Y-102252438D02*
X140952380Y-102204819D01*
X140952380Y-102204819D02*
X140857142Y-102204819D01*
X140857142Y-102204819D02*
X140714285Y-102252438D01*
X140714285Y-102252438D02*
X140666666Y-102300057D01*
X139761904Y-102204819D02*
X140238094Y-102204819D01*
X140238094Y-102204819D02*
X140285713Y-102681009D01*
X140285713Y-102681009D02*
X140238094Y-102633390D01*
X140238094Y-102633390D02*
X140142856Y-102585771D01*
X140142856Y-102585771D02*
X139904761Y-102585771D01*
X139904761Y-102585771D02*
X139809523Y-102633390D01*
X139809523Y-102633390D02*
X139761904Y-102681009D01*
X139761904Y-102681009D02*
X139714285Y-102776247D01*
X139714285Y-102776247D02*
X139714285Y-103014342D01*
X139714285Y-103014342D02*
X139761904Y-103109580D01*
X139761904Y-103109580D02*
X139809523Y-103157200D01*
X139809523Y-103157200D02*
X139904761Y-103204819D01*
X139904761Y-103204819D02*
X140142856Y-103204819D01*
X140142856Y-103204819D02*
X140238094Y-103157200D01*
X140238094Y-103157200D02*
X140285713Y-103109580D01*
X134146666Y-108769580D02*
X134194285Y-108817200D01*
X134194285Y-108817200D02*
X134337142Y-108864819D01*
X134337142Y-108864819D02*
X134432380Y-108864819D01*
X134432380Y-108864819D02*
X134575237Y-108817200D01*
X134575237Y-108817200D02*
X134670475Y-108721961D01*
X134670475Y-108721961D02*
X134718094Y-108626723D01*
X134718094Y-108626723D02*
X134765713Y-108436247D01*
X134765713Y-108436247D02*
X134765713Y-108293390D01*
X134765713Y-108293390D02*
X134718094Y-108102914D01*
X134718094Y-108102914D02*
X134670475Y-108007676D01*
X134670475Y-108007676D02*
X134575237Y-107912438D01*
X134575237Y-107912438D02*
X134432380Y-107864819D01*
X134432380Y-107864819D02*
X134337142Y-107864819D01*
X134337142Y-107864819D02*
X134194285Y-107912438D01*
X134194285Y-107912438D02*
X134146666Y-107960057D01*
X133670475Y-108864819D02*
X133479999Y-108864819D01*
X133479999Y-108864819D02*
X133384761Y-108817200D01*
X133384761Y-108817200D02*
X133337142Y-108769580D01*
X133337142Y-108769580D02*
X133241904Y-108626723D01*
X133241904Y-108626723D02*
X133194285Y-108436247D01*
X133194285Y-108436247D02*
X133194285Y-108055295D01*
X133194285Y-108055295D02*
X133241904Y-107960057D01*
X133241904Y-107960057D02*
X133289523Y-107912438D01*
X133289523Y-107912438D02*
X133384761Y-107864819D01*
X133384761Y-107864819D02*
X133575237Y-107864819D01*
X133575237Y-107864819D02*
X133670475Y-107912438D01*
X133670475Y-107912438D02*
X133718094Y-107960057D01*
X133718094Y-107960057D02*
X133765713Y-108055295D01*
X133765713Y-108055295D02*
X133765713Y-108293390D01*
X133765713Y-108293390D02*
X133718094Y-108388628D01*
X133718094Y-108388628D02*
X133670475Y-108436247D01*
X133670475Y-108436247D02*
X133575237Y-108483866D01*
X133575237Y-108483866D02*
X133384761Y-108483866D01*
X133384761Y-108483866D02*
X133289523Y-108436247D01*
X133289523Y-108436247D02*
X133241904Y-108388628D01*
X133241904Y-108388628D02*
X133194285Y-108293390D01*
X140954819Y-98833333D02*
X140478628Y-98500000D01*
X140954819Y-98261905D02*
X139954819Y-98261905D01*
X139954819Y-98261905D02*
X139954819Y-98642857D01*
X139954819Y-98642857D02*
X140002438Y-98738095D01*
X140002438Y-98738095D02*
X140050057Y-98785714D01*
X140050057Y-98785714D02*
X140145295Y-98833333D01*
X140145295Y-98833333D02*
X140288152Y-98833333D01*
X140288152Y-98833333D02*
X140383390Y-98785714D01*
X140383390Y-98785714D02*
X140431009Y-98738095D01*
X140431009Y-98738095D02*
X140478628Y-98642857D01*
X140478628Y-98642857D02*
X140478628Y-98261905D01*
X140050057Y-99214286D02*
X140002438Y-99261905D01*
X140002438Y-99261905D02*
X139954819Y-99357143D01*
X139954819Y-99357143D02*
X139954819Y-99595238D01*
X139954819Y-99595238D02*
X140002438Y-99690476D01*
X140002438Y-99690476D02*
X140050057Y-99738095D01*
X140050057Y-99738095D02*
X140145295Y-99785714D01*
X140145295Y-99785714D02*
X140240533Y-99785714D01*
X140240533Y-99785714D02*
X140383390Y-99738095D01*
X140383390Y-99738095D02*
X140954819Y-99166667D01*
X140954819Y-99166667D02*
X140954819Y-99785714D01*
X138859580Y-97833333D02*
X138907200Y-97785714D01*
X138907200Y-97785714D02*
X138954819Y-97642857D01*
X138954819Y-97642857D02*
X138954819Y-97547619D01*
X138954819Y-97547619D02*
X138907200Y-97404762D01*
X138907200Y-97404762D02*
X138811961Y-97309524D01*
X138811961Y-97309524D02*
X138716723Y-97261905D01*
X138716723Y-97261905D02*
X138526247Y-97214286D01*
X138526247Y-97214286D02*
X138383390Y-97214286D01*
X138383390Y-97214286D02*
X138192914Y-97261905D01*
X138192914Y-97261905D02*
X138097676Y-97309524D01*
X138097676Y-97309524D02*
X138002438Y-97404762D01*
X138002438Y-97404762D02*
X137954819Y-97547619D01*
X137954819Y-97547619D02*
X137954819Y-97642857D01*
X137954819Y-97642857D02*
X138002438Y-97785714D01*
X138002438Y-97785714D02*
X138050057Y-97833333D01*
X137954819Y-98166667D02*
X137954819Y-98833333D01*
X137954819Y-98833333D02*
X138954819Y-98404762D01*
X128416666Y-103109580D02*
X128464285Y-103157200D01*
X128464285Y-103157200D02*
X128607142Y-103204819D01*
X128607142Y-103204819D02*
X128702380Y-103204819D01*
X128702380Y-103204819D02*
X128845237Y-103157200D01*
X128845237Y-103157200D02*
X128940475Y-103061961D01*
X128940475Y-103061961D02*
X128988094Y-102966723D01*
X128988094Y-102966723D02*
X129035713Y-102776247D01*
X129035713Y-102776247D02*
X129035713Y-102633390D01*
X129035713Y-102633390D02*
X128988094Y-102442914D01*
X128988094Y-102442914D02*
X128940475Y-102347676D01*
X128940475Y-102347676D02*
X128845237Y-102252438D01*
X128845237Y-102252438D02*
X128702380Y-102204819D01*
X128702380Y-102204819D02*
X128607142Y-102204819D01*
X128607142Y-102204819D02*
X128464285Y-102252438D01*
X128464285Y-102252438D02*
X128416666Y-102300057D01*
X128083332Y-102204819D02*
X127464285Y-102204819D01*
X127464285Y-102204819D02*
X127797618Y-102585771D01*
X127797618Y-102585771D02*
X127654761Y-102585771D01*
X127654761Y-102585771D02*
X127559523Y-102633390D01*
X127559523Y-102633390D02*
X127511904Y-102681009D01*
X127511904Y-102681009D02*
X127464285Y-102776247D01*
X127464285Y-102776247D02*
X127464285Y-103014342D01*
X127464285Y-103014342D02*
X127511904Y-103109580D01*
X127511904Y-103109580D02*
X127559523Y-103157200D01*
X127559523Y-103157200D02*
X127654761Y-103204819D01*
X127654761Y-103204819D02*
X127940475Y-103204819D01*
X127940475Y-103204819D02*
X128035713Y-103157200D01*
X128035713Y-103157200D02*
X128083332Y-103109580D01*
X148859580Y-96107142D02*
X148907200Y-96059523D01*
X148907200Y-96059523D02*
X148954819Y-95916666D01*
X148954819Y-95916666D02*
X148954819Y-95821428D01*
X148954819Y-95821428D02*
X148907200Y-95678571D01*
X148907200Y-95678571D02*
X148811961Y-95583333D01*
X148811961Y-95583333D02*
X148716723Y-95535714D01*
X148716723Y-95535714D02*
X148526247Y-95488095D01*
X148526247Y-95488095D02*
X148383390Y-95488095D01*
X148383390Y-95488095D02*
X148192914Y-95535714D01*
X148192914Y-95535714D02*
X148097676Y-95583333D01*
X148097676Y-95583333D02*
X148002438Y-95678571D01*
X148002438Y-95678571D02*
X147954819Y-95821428D01*
X147954819Y-95821428D02*
X147954819Y-95916666D01*
X147954819Y-95916666D02*
X148002438Y-96059523D01*
X148002438Y-96059523D02*
X148050057Y-96107142D01*
X148954819Y-97059523D02*
X148954819Y-96488095D01*
X148954819Y-96773809D02*
X147954819Y-96773809D01*
X147954819Y-96773809D02*
X148097676Y-96678571D01*
X148097676Y-96678571D02*
X148192914Y-96583333D01*
X148192914Y-96583333D02*
X148240533Y-96488095D01*
X148954819Y-98011904D02*
X148954819Y-97440476D01*
X148954819Y-97726190D02*
X147954819Y-97726190D01*
X147954819Y-97726190D02*
X148097676Y-97630952D01*
X148097676Y-97630952D02*
X148192914Y-97535714D01*
X148192914Y-97535714D02*
X148240533Y-97440476D01*
X132166666Y-97609580D02*
X132214285Y-97657200D01*
X132214285Y-97657200D02*
X132357142Y-97704819D01*
X132357142Y-97704819D02*
X132452380Y-97704819D01*
X132452380Y-97704819D02*
X132595237Y-97657200D01*
X132595237Y-97657200D02*
X132690475Y-97561961D01*
X132690475Y-97561961D02*
X132738094Y-97466723D01*
X132738094Y-97466723D02*
X132785713Y-97276247D01*
X132785713Y-97276247D02*
X132785713Y-97133390D01*
X132785713Y-97133390D02*
X132738094Y-96942914D01*
X132738094Y-96942914D02*
X132690475Y-96847676D01*
X132690475Y-96847676D02*
X132595237Y-96752438D01*
X132595237Y-96752438D02*
X132452380Y-96704819D01*
X132452380Y-96704819D02*
X132357142Y-96704819D01*
X132357142Y-96704819D02*
X132214285Y-96752438D01*
X132214285Y-96752438D02*
X132166666Y-96800057D01*
X131595237Y-97133390D02*
X131690475Y-97085771D01*
X131690475Y-97085771D02*
X131738094Y-97038152D01*
X131738094Y-97038152D02*
X131785713Y-96942914D01*
X131785713Y-96942914D02*
X131785713Y-96895295D01*
X131785713Y-96895295D02*
X131738094Y-96800057D01*
X131738094Y-96800057D02*
X131690475Y-96752438D01*
X131690475Y-96752438D02*
X131595237Y-96704819D01*
X131595237Y-96704819D02*
X131404761Y-96704819D01*
X131404761Y-96704819D02*
X131309523Y-96752438D01*
X131309523Y-96752438D02*
X131261904Y-96800057D01*
X131261904Y-96800057D02*
X131214285Y-96895295D01*
X131214285Y-96895295D02*
X131214285Y-96942914D01*
X131214285Y-96942914D02*
X131261904Y-97038152D01*
X131261904Y-97038152D02*
X131309523Y-97085771D01*
X131309523Y-97085771D02*
X131404761Y-97133390D01*
X131404761Y-97133390D02*
X131595237Y-97133390D01*
X131595237Y-97133390D02*
X131690475Y-97181009D01*
X131690475Y-97181009D02*
X131738094Y-97228628D01*
X131738094Y-97228628D02*
X131785713Y-97323866D01*
X131785713Y-97323866D02*
X131785713Y-97514342D01*
X131785713Y-97514342D02*
X131738094Y-97609580D01*
X131738094Y-97609580D02*
X131690475Y-97657200D01*
X131690475Y-97657200D02*
X131595237Y-97704819D01*
X131595237Y-97704819D02*
X131404761Y-97704819D01*
X131404761Y-97704819D02*
X131309523Y-97657200D01*
X131309523Y-97657200D02*
X131261904Y-97609580D01*
X131261904Y-97609580D02*
X131214285Y-97514342D01*
X131214285Y-97514342D02*
X131214285Y-97323866D01*
X131214285Y-97323866D02*
X131261904Y-97228628D01*
X131261904Y-97228628D02*
X131309523Y-97181009D01*
X131309523Y-97181009D02*
X131404761Y-97133390D01*
X141416666Y-107784819D02*
X141749999Y-107308628D01*
X141988094Y-107784819D02*
X141988094Y-106784819D01*
X141988094Y-106784819D02*
X141607142Y-106784819D01*
X141607142Y-106784819D02*
X141511904Y-106832438D01*
X141511904Y-106832438D02*
X141464285Y-106880057D01*
X141464285Y-106880057D02*
X141416666Y-106975295D01*
X141416666Y-106975295D02*
X141416666Y-107118152D01*
X141416666Y-107118152D02*
X141464285Y-107213390D01*
X141464285Y-107213390D02*
X141511904Y-107261009D01*
X141511904Y-107261009D02*
X141607142Y-107308628D01*
X141607142Y-107308628D02*
X141988094Y-107308628D01*
X140464285Y-107784819D02*
X141035713Y-107784819D01*
X140749999Y-107784819D02*
X140749999Y-106784819D01*
X140749999Y-106784819D02*
X140845237Y-106927676D01*
X140845237Y-106927676D02*
X140940475Y-107022914D01*
X140940475Y-107022914D02*
X141035713Y-107070533D01*
X128416666Y-104359580D02*
X128464285Y-104407200D01*
X128464285Y-104407200D02*
X128607142Y-104454819D01*
X128607142Y-104454819D02*
X128702380Y-104454819D01*
X128702380Y-104454819D02*
X128845237Y-104407200D01*
X128845237Y-104407200D02*
X128940475Y-104311961D01*
X128940475Y-104311961D02*
X128988094Y-104216723D01*
X128988094Y-104216723D02*
X129035713Y-104026247D01*
X129035713Y-104026247D02*
X129035713Y-103883390D01*
X129035713Y-103883390D02*
X128988094Y-103692914D01*
X128988094Y-103692914D02*
X128940475Y-103597676D01*
X128940475Y-103597676D02*
X128845237Y-103502438D01*
X128845237Y-103502438D02*
X128702380Y-103454819D01*
X128702380Y-103454819D02*
X128607142Y-103454819D01*
X128607142Y-103454819D02*
X128464285Y-103502438D01*
X128464285Y-103502438D02*
X128416666Y-103550057D01*
X127559523Y-103788152D02*
X127559523Y-104454819D01*
X127797618Y-103407200D02*
X128035713Y-104121485D01*
X128035713Y-104121485D02*
X127416666Y-104121485D01*
X147359580Y-96107142D02*
X147407200Y-96059523D01*
X147407200Y-96059523D02*
X147454819Y-95916666D01*
X147454819Y-95916666D02*
X147454819Y-95821428D01*
X147454819Y-95821428D02*
X147407200Y-95678571D01*
X147407200Y-95678571D02*
X147311961Y-95583333D01*
X147311961Y-95583333D02*
X147216723Y-95535714D01*
X147216723Y-95535714D02*
X147026247Y-95488095D01*
X147026247Y-95488095D02*
X146883390Y-95488095D01*
X146883390Y-95488095D02*
X146692914Y-95535714D01*
X146692914Y-95535714D02*
X146597676Y-95583333D01*
X146597676Y-95583333D02*
X146502438Y-95678571D01*
X146502438Y-95678571D02*
X146454819Y-95821428D01*
X146454819Y-95821428D02*
X146454819Y-95916666D01*
X146454819Y-95916666D02*
X146502438Y-96059523D01*
X146502438Y-96059523D02*
X146550057Y-96107142D01*
X147454819Y-97059523D02*
X147454819Y-96488095D01*
X147454819Y-96773809D02*
X146454819Y-96773809D01*
X146454819Y-96773809D02*
X146597676Y-96678571D01*
X146597676Y-96678571D02*
X146692914Y-96583333D01*
X146692914Y-96583333D02*
X146740533Y-96488095D01*
X146550057Y-97440476D02*
X146502438Y-97488095D01*
X146502438Y-97488095D02*
X146454819Y-97583333D01*
X146454819Y-97583333D02*
X146454819Y-97821428D01*
X146454819Y-97821428D02*
X146502438Y-97916666D01*
X146502438Y-97916666D02*
X146550057Y-97964285D01*
X146550057Y-97964285D02*
X146645295Y-98011904D01*
X146645295Y-98011904D02*
X146740533Y-98011904D01*
X146740533Y-98011904D02*
X146883390Y-97964285D01*
X146883390Y-97964285D02*
X147454819Y-97392857D01*
X147454819Y-97392857D02*
X147454819Y-98011904D01*
X132142857Y-99859580D02*
X132190476Y-99907200D01*
X132190476Y-99907200D02*
X132333333Y-99954819D01*
X132333333Y-99954819D02*
X132428571Y-99954819D01*
X132428571Y-99954819D02*
X132571428Y-99907200D01*
X132571428Y-99907200D02*
X132666666Y-99811961D01*
X132666666Y-99811961D02*
X132714285Y-99716723D01*
X132714285Y-99716723D02*
X132761904Y-99526247D01*
X132761904Y-99526247D02*
X132761904Y-99383390D01*
X132761904Y-99383390D02*
X132714285Y-99192914D01*
X132714285Y-99192914D02*
X132666666Y-99097676D01*
X132666666Y-99097676D02*
X132571428Y-99002438D01*
X132571428Y-99002438D02*
X132428571Y-98954819D01*
X132428571Y-98954819D02*
X132333333Y-98954819D01*
X132333333Y-98954819D02*
X132190476Y-99002438D01*
X132190476Y-99002438D02*
X132142857Y-99050057D01*
X131190476Y-99954819D02*
X131761904Y-99954819D01*
X131476190Y-99954819D02*
X131476190Y-98954819D01*
X131476190Y-98954819D02*
X131571428Y-99097676D01*
X131571428Y-99097676D02*
X131666666Y-99192914D01*
X131666666Y-99192914D02*
X131761904Y-99240533D01*
X130571428Y-98954819D02*
X130476190Y-98954819D01*
X130476190Y-98954819D02*
X130380952Y-99002438D01*
X130380952Y-99002438D02*
X130333333Y-99050057D01*
X130333333Y-99050057D02*
X130285714Y-99145295D01*
X130285714Y-99145295D02*
X130238095Y-99335771D01*
X130238095Y-99335771D02*
X130238095Y-99573866D01*
X130238095Y-99573866D02*
X130285714Y-99764342D01*
X130285714Y-99764342D02*
X130333333Y-99859580D01*
X130333333Y-99859580D02*
X130380952Y-99907200D01*
X130380952Y-99907200D02*
X130476190Y-99954819D01*
X130476190Y-99954819D02*
X130571428Y-99954819D01*
X130571428Y-99954819D02*
X130666666Y-99907200D01*
X130666666Y-99907200D02*
X130714285Y-99859580D01*
X130714285Y-99859580D02*
X130761904Y-99764342D01*
X130761904Y-99764342D02*
X130809523Y-99573866D01*
X130809523Y-99573866D02*
X130809523Y-99335771D01*
X130809523Y-99335771D02*
X130761904Y-99145295D01*
X130761904Y-99145295D02*
X130714285Y-99050057D01*
X130714285Y-99050057D02*
X130666666Y-99002438D01*
X130666666Y-99002438D02*
X130571428Y-98954819D01*
X137359580Y-97833333D02*
X137407200Y-97785714D01*
X137407200Y-97785714D02*
X137454819Y-97642857D01*
X137454819Y-97642857D02*
X137454819Y-97547619D01*
X137454819Y-97547619D02*
X137407200Y-97404762D01*
X137407200Y-97404762D02*
X137311961Y-97309524D01*
X137311961Y-97309524D02*
X137216723Y-97261905D01*
X137216723Y-97261905D02*
X137026247Y-97214286D01*
X137026247Y-97214286D02*
X136883390Y-97214286D01*
X136883390Y-97214286D02*
X136692914Y-97261905D01*
X136692914Y-97261905D02*
X136597676Y-97309524D01*
X136597676Y-97309524D02*
X136502438Y-97404762D01*
X136502438Y-97404762D02*
X136454819Y-97547619D01*
X136454819Y-97547619D02*
X136454819Y-97642857D01*
X136454819Y-97642857D02*
X136502438Y-97785714D01*
X136502438Y-97785714D02*
X136550057Y-97833333D01*
X137454819Y-98785714D02*
X137454819Y-98214286D01*
X137454819Y-98500000D02*
X136454819Y-98500000D01*
X136454819Y-98500000D02*
X136597676Y-98404762D01*
X136597676Y-98404762D02*
X136692914Y-98309524D01*
X136692914Y-98309524D02*
X136740533Y-98214286D01*
X140666666Y-104359580D02*
X140714285Y-104407200D01*
X140714285Y-104407200D02*
X140857142Y-104454819D01*
X140857142Y-104454819D02*
X140952380Y-104454819D01*
X140952380Y-104454819D02*
X141095237Y-104407200D01*
X141095237Y-104407200D02*
X141190475Y-104311961D01*
X141190475Y-104311961D02*
X141238094Y-104216723D01*
X141238094Y-104216723D02*
X141285713Y-104026247D01*
X141285713Y-104026247D02*
X141285713Y-103883390D01*
X141285713Y-103883390D02*
X141238094Y-103692914D01*
X141238094Y-103692914D02*
X141190475Y-103597676D01*
X141190475Y-103597676D02*
X141095237Y-103502438D01*
X141095237Y-103502438D02*
X140952380Y-103454819D01*
X140952380Y-103454819D02*
X140857142Y-103454819D01*
X140857142Y-103454819D02*
X140714285Y-103502438D01*
X140714285Y-103502438D02*
X140666666Y-103550057D01*
X139809523Y-103454819D02*
X139999999Y-103454819D01*
X139999999Y-103454819D02*
X140095237Y-103502438D01*
X140095237Y-103502438D02*
X140142856Y-103550057D01*
X140142856Y-103550057D02*
X140238094Y-103692914D01*
X140238094Y-103692914D02*
X140285713Y-103883390D01*
X140285713Y-103883390D02*
X140285713Y-104264342D01*
X140285713Y-104264342D02*
X140238094Y-104359580D01*
X140238094Y-104359580D02*
X140190475Y-104407200D01*
X140190475Y-104407200D02*
X140095237Y-104454819D01*
X140095237Y-104454819D02*
X139904761Y-104454819D01*
X139904761Y-104454819D02*
X139809523Y-104407200D01*
X139809523Y-104407200D02*
X139761904Y-104359580D01*
X139761904Y-104359580D02*
X139714285Y-104264342D01*
X139714285Y-104264342D02*
X139714285Y-104026247D01*
X139714285Y-104026247D02*
X139761904Y-103931009D01*
X139761904Y-103931009D02*
X139809523Y-103883390D01*
X139809523Y-103883390D02*
X139904761Y-103835771D01*
X139904761Y-103835771D02*
X140095237Y-103835771D01*
X140095237Y-103835771D02*
X140190475Y-103883390D01*
X140190475Y-103883390D02*
X140238094Y-103931009D01*
X140238094Y-103931009D02*
X140285713Y-104026247D01*
D11*
X136030000Y-124095000D02*
X146970000Y-124095000D01*
X136030000Y-129175000D02*
X136030000Y-124095000D01*
X146970000Y-124095000D02*
X146970000Y-129175000D01*
X146970000Y-129175000D02*
X136030000Y-129175000D01*
D12*
X132875002Y-101775001D02*
X133500002Y-101775001D01*
X132875002Y-102400001D02*
X132875002Y-101775001D01*
X132875002Y-106224999D02*
X132875002Y-106000001D01*
X132875002Y-106224999D02*
X133100000Y-106224999D01*
X137100002Y-101775001D02*
X137325000Y-101775001D01*
X137100002Y-106224999D02*
X137325000Y-106224999D01*
X137325000Y-101999999D02*
X137325000Y-101775001D01*
X137325000Y-106224999D02*
X137325000Y-106000001D01*
D11*
X135390000Y-97642164D02*
X135390000Y-97857836D01*
X136110000Y-97642164D02*
X136110000Y-97857836D01*
X141370000Y-101153641D02*
X141370000Y-100846359D01*
X142130000Y-101153641D02*
X142130000Y-100846359D01*
X138607836Y-101890000D02*
X138392164Y-101890000D01*
X138607836Y-102610000D02*
X138392164Y-102610000D01*
X134087836Y-106890000D02*
X133872164Y-106890000D01*
X134087836Y-107610000D02*
X133872164Y-107610000D01*
X140120000Y-101153641D02*
X140120000Y-100846359D01*
X140880000Y-101153641D02*
X140880000Y-100846359D01*
X137890000Y-100127836D02*
X137890000Y-99912164D01*
X138610000Y-100127836D02*
X138610000Y-99912164D01*
X130162164Y-102390000D02*
X130377836Y-102390000D01*
X130162164Y-103110000D02*
X130377836Y-103110000D01*
D10*
X149750001Y-101992300D02*
G75*
G02*
X149550001Y-101992300I-100000J0D01*
G01*
X149550001Y-101992300D02*
G75*
G02*
X149750001Y-101992300I100000J0D01*
G01*
D11*
X147890000Y-99162164D02*
X147890000Y-99377836D01*
X148610000Y-99162164D02*
X148610000Y-99377836D01*
X134107836Y-96890000D02*
X133892164Y-96890000D01*
X134107836Y-97610000D02*
X133892164Y-97610000D01*
X141096359Y-108120000D02*
X141403641Y-108120000D01*
X141096359Y-108880000D02*
X141403641Y-108880000D01*
X130162164Y-103390000D02*
X130377836Y-103390000D01*
X130162164Y-104110000D02*
X130377836Y-104110000D01*
X146890000Y-99162164D02*
X146890000Y-99377836D01*
X147610000Y-99162164D02*
X147610000Y-99377836D01*
X134107836Y-99140000D02*
X133892164Y-99140000D01*
X134107836Y-99860000D02*
X133892164Y-99860000D01*
X136140000Y-99912164D02*
X136140000Y-100127836D01*
X136860000Y-99912164D02*
X136860000Y-100127836D01*
X138587836Y-102890000D02*
X138372164Y-102890000D01*
X138587836Y-103610000D02*
X138372164Y-103610000D01*
%LPC*%
D13*
X137690000Y-126635000D03*
X145310000Y-125619000D03*
X145310000Y-127651000D03*
D14*
X135100001Y-103200000D03*
X135900001Y-104000000D03*
X135100001Y-104000000D03*
X134300001Y-104000000D03*
X135100001Y-104800000D03*
D15*
X133850001Y-102100001D03*
X134350000Y-102100001D03*
X134850001Y-102100001D03*
X135350001Y-102100001D03*
X135850002Y-102100001D03*
X136350001Y-102100001D03*
D16*
X137000000Y-102750000D03*
X137000000Y-103249999D03*
X137000000Y-103750000D03*
X137000000Y-104250000D03*
X137000000Y-104750001D03*
X137000000Y-105250000D03*
D15*
X136350001Y-105899999D03*
X135850002Y-105899999D03*
X135350001Y-105899999D03*
X134850001Y-105899999D03*
X134350000Y-105899999D03*
X133850001Y-105899999D03*
D16*
X133200002Y-105250000D03*
X133200002Y-104750001D03*
X133200002Y-104250000D03*
X133200002Y-103750000D03*
X133200002Y-103249999D03*
X133200002Y-102750000D03*
D17*
X135100001Y-104000000D03*
D18*
X135750000Y-98230000D03*
X135750000Y-97270000D03*
D19*
X141750000Y-100490000D03*
X141750000Y-101510000D03*
D20*
X138020000Y-102250000D03*
X138980000Y-102250000D03*
X133500000Y-107250000D03*
X134460000Y-107250000D03*
D19*
X140500000Y-100490000D03*
X140500000Y-101510000D03*
D21*
X138250000Y-99540000D03*
X138250000Y-100500000D03*
D22*
X130750000Y-102750000D03*
X129790000Y-102750000D03*
D14*
X147750001Y-103042300D03*
X148600001Y-103892300D03*
X147750001Y-103892300D03*
X146900001Y-103892300D03*
X147750001Y-104742300D03*
D23*
X149650001Y-102642300D03*
X149650001Y-103142300D03*
X149650001Y-103642300D03*
X149650001Y-104142300D03*
X149650001Y-104642300D03*
X149650001Y-105142300D03*
D24*
X149000001Y-105792300D03*
X148500001Y-105792300D03*
X148000001Y-105792300D03*
X147500001Y-105792300D03*
X147000001Y-105792300D03*
X146500001Y-105792300D03*
D23*
X145850001Y-105142300D03*
X145850001Y-104642300D03*
X145850001Y-104142300D03*
X145850001Y-103642300D03*
X145850001Y-103142300D03*
X145850001Y-102642300D03*
D24*
X146500001Y-101992300D03*
X147000001Y-101992300D03*
X147500001Y-101992300D03*
X148000001Y-101992300D03*
X148500001Y-101992300D03*
X149000001Y-101992300D03*
D25*
X147750001Y-103892300D03*
D18*
X148250000Y-99750000D03*
X148250000Y-98790000D03*
D20*
X133520000Y-97250000D03*
X134480000Y-97250000D03*
D26*
X141760000Y-108500000D03*
X140740000Y-108500000D03*
D22*
X130750000Y-103750000D03*
X129790000Y-103750000D03*
D18*
X147250000Y-99750000D03*
X147250000Y-98790000D03*
D20*
X133520000Y-99500000D03*
X134480000Y-99500000D03*
D18*
X136500000Y-100500000D03*
X136500000Y-99540000D03*
D20*
X138000000Y-103250000D03*
X138960000Y-103250000D03*
%LPD*%
M02*
